<svg width="72" height="72" viewBox="0 0 72 72" fill="none" xmlns="http://www.w3.org/2000/svg">
<rect width="72" height="72" rx="12" fill="#ECEEEE"/>
<path d="M24.9165 28.9167C24.9165 26.7076 26.7074 24.9167 28.9165 24.9167H43.0832C45.2923 24.9167 47.0832 26.7076 47.0832 28.9167V43.0834C47.0832 45.2926 45.2923 47.0834 43.0832 47.0834H28.9165C26.7074 47.0834 24.9165 45.2926 24.9165 43.0834V28.9167Z" stroke="#B5BDBF" stroke-width="1.5"/>
<path d="M24.9165 38.9164L29.0553 34.7777C29.9377 33.8954 31.4036 34.0276 32.1139 35.0535L34.7663 38.8846C35.431 39.8446 36.7733 40.0335 37.6771 39.294L41.0157 36.5626C41.8109 35.9119 42.9698 35.9697 43.6963 36.6963L47.0832 40.0831" stroke="#B5BDBF" stroke-width="1.5"/>
<circle cx="41.25" cy="30.75" r="1.75" fill="#B5BDBF"/>
</svg>
