<svg preserveAspectRatio="none" width="100%" height="100%" overflow="visible" style="display: block;" viewBox="0 0 23 23.0005" fill="none" xmlns="http://www.w3.org/2000/svg">
<g id="logo googleg 48dp">
<path id="Shape" fill-rule="evenodd" clip-rule="evenodd" d="M22.54 11.7605C22.54 10.945 22.4668 10.1609 22.3309 9.4082H11.5V13.8566H17.6891C17.4225 15.2941 16.6123 16.5121 15.3943 17.3275V20.213H19.1109C21.2855 18.2109 22.54 15.2627 22.54 11.7605Z" fill="var(--fill-0, #4285F4)"/>
<path id="Shape_2" fill-rule="evenodd" clip-rule="evenodd" d="M11.4995 23.0005C14.6045 23.0005 17.2077 21.9708 19.1104 20.2144L15.3938 17.329C14.364 18.019 13.0467 18.4267 11.4995 18.4267C8.50425 18.4267 5.96902 16.4037 5.0647 13.6855H1.22266V16.6651C3.11493 20.4235 7.00402 23.0005 11.4995 23.0005Z" fill="var(--fill-0, #34A853)"/>
<path id="Shape_3" fill-rule="evenodd" clip-rule="evenodd" d="M5.06523 13.6855C4.83523 12.9955 4.70455 12.2584 4.70455 11.5005C4.70455 10.7425 4.83523 10.0055 5.06523 9.31548V6.33594H1.22318C0.444318 7.88844 0 9.6448 0 11.5005C0 13.3562 0.444318 15.1125 1.22318 16.665L5.06523 13.6855Z" fill="var(--fill-0, #FBBC05)"/>
<path id="Shape_4" fill-rule="evenodd" clip-rule="evenodd" d="M11.4995 4.57386C13.1879 4.57386 14.7038 5.15409 15.8956 6.29364L19.194 2.99523C17.2024 1.13955 14.5992 0 11.4995 0C7.00402 0 3.11493 2.57705 1.22266 6.33545L5.0647 9.315C5.96902 6.59682 8.50425 4.57386 11.4995 4.57386Z" fill="var(--fill-0, #EA4335)"/>
<g id="Shape_5">
</g>
</g>
</svg>
