<svg xmlns="http://www.w3.org/2000/svg" aria-hidden="true" style="position:absolute;width:0;height:0;overflow:hidden">
<symbol id="app-bar-close" viewBox="0 0 24 24" fill="none">
<path d="M17.4697 5.46973C17.7626 5.17684 18.2373 5.17685 18.5302 5.46973C18.8231 5.76262 18.8231 6.23738 18.5302 6.53028L13.0605 12L18.5302 17.4697C18.8231 17.7626 18.8231 18.2374 18.5302 18.5303C18.2373 18.8232 17.7626 18.8231 17.4697 18.5303L11.9999 13.0606L6.53022 18.5303C6.23732 18.8232 5.76256 18.8232 5.46967 18.5303C5.17679 18.2374 5.17678 17.7626 5.46967 17.4697L10.9394 12L5.46967 6.53028C5.17678 6.23738 5.17678 5.76262 5.46967 5.46973C5.76256 5.17684 6.23732 5.17684 6.53022 5.46973L11.9999 10.9395L17.4697 5.46973Z" fill="#1F2324"/>
</symbol>
<symbol id="app-bar-more" viewBox="0 0 24 24" fill="none">
<g clip-path="url(#app-bar-more--clip0-1216-5236)">
<path d="M3 6H21M3 12H21M3 18H21" stroke="#1F2324" stroke-width="1.5" stroke-linecap="round" stroke-linejoin="round"/>
</g>
<defs>
<clipPath id="app-bar-more--clip0-1216-5236">
<rect width="24" height="24" fill="white"/>
</clipPath>
</defs>
</symbol>
<symbol id="app-bar-setting" viewBox="0 0 24 24" fill="none">
<g transform="translate(1.25 1.25)">
<path id="app-bar-setting--subtract" d="M11.3818 0.750001V1.01328e-06V0.750001ZM12.2129 0.820314L12.4889 0.122959L12.4886 0.122845L12.2129 0.820314ZM12.7334 1.29199L13.4001 0.948378L13.4 0.948304L12.7334 1.29199ZM12.8857 2.11133L13.632 2.03681L12.8857 2.11133ZM13.1807 3.56836L12.5843 4.02313L12.5844 4.02332L13.1807 3.56836ZM14.1094 3.95313L14.2093 4.69643L14.2096 4.6964L14.1094 3.95313ZM15.3477 3.13086L14.8728 2.55035L15.3477 3.13086ZM16.0361 2.65918L15.8082 1.94466L15.8081 1.94468L16.0361 2.65918ZM16.7373 2.69434L17.0354 2.00614L17.0353 2.0061L16.7373 2.69434ZM17.375 3.23242L16.8447 3.76275L17.375 3.23242ZM18.2676 4.125L18.7979 3.59467L18.2676 4.125ZM18.8057 4.7627L19.494 4.46478L19.4938 4.46453L18.8057 4.7627ZM18.8408 5.46387L19.5552 5.69224L19.5553 5.69191L18.8408 5.46387ZM18.3682 6.15137L18.9485 6.62643L18.3682 6.15137ZM17.5469 7.38965L16.8037 7.28889L16.8036 7.2895L17.5469 7.38965ZM17.9316 8.31836L17.4767 8.91462L17.4768 8.91473L17.9316 8.31836ZM19.3887 8.61328L19.4634 7.86701L19.3887 8.61328ZM20.209 8.7666L20.5533 8.10029L20.5529 8.10013L20.209 8.7666ZM20.6797 9.28711L21.3771 9.01122L21.3771 9.0112L20.6797 9.28711ZM20.75 10.1182H21.5H20.75ZM20.75 11.3818H21.5H20.75ZM20.6797 12.2129L21.377 12.4889L21.3772 12.4885L20.6797 12.2129ZM20.208 12.7334L20.5516 13.4001L20.5516 13.4L20.208 12.7334ZM19.3887 12.8857L19.4632 13.632L19.3887 12.8857ZM17.9326 13.1807L17.478 12.5842L17.4779 12.5842L17.9326 13.1807ZM17.5479 14.1094L16.8046 14.2096L16.8046 14.2096L17.5479 14.1094ZM18.3691 15.3477L18.9496 14.8727L18.3691 15.3477ZM18.8408 16.0342L19.5552 15.8058L19.5551 15.8054L18.8408 16.0342ZM18.8057 16.7363L19.4938 17.0346L19.4939 17.0343L18.8057 16.7363ZM16.7373 18.8047L17.0354 19.4929L17.0354 19.4929L16.7373 18.8047ZM16.0361 18.8398L15.8081 19.5543L15.8082 19.5544L16.0361 18.8398ZM15.3477 18.3682L15.8225 17.7877L15.3477 18.3682ZM14.1084 17.5459L14.2081 16.8026L14.2078 16.8025L14.1084 17.5459ZM13.1807 17.9307L12.5844 17.4757L12.5844 17.4757L13.1807 17.9307ZM12.8857 19.3877L12.1395 19.3132L12.8857 19.3877ZM12.7334 20.208L13.3999 20.5518L13.4001 20.5515L12.7334 20.208ZM12.2129 20.6797L12.4888 21.3771L12.4889 21.377L12.2129 20.6797ZM10.1182 20.75V21.5V20.75ZM9.28711 20.6797L9.0112 21.3771L9.01122 21.3771L9.28711 20.6797ZM8.7666 20.209L8.10013 20.5529L8.10029 20.5533L8.7666 20.209ZM8.61328 19.3887L7.86701 19.4634L8.61328 19.3887ZM8.31836 17.9316L8.91473 17.4768L8.91462 17.4767L8.31836 17.9316ZM7.38965 17.5469L7.2895 16.8036L7.28889 16.8037L7.38965 17.5469ZM6.15137 18.3682L6.62643 18.9485L6.15137 18.3682ZM5.46387 18.8408L5.69191 19.5553L5.69224 19.5552L5.46387 18.8408ZM4.7627 18.8057L4.46453 19.4938L4.46478 19.494L4.7627 18.8057ZM3.23242 17.375L2.70209 17.9053L3.23242 17.375ZM2.69434 16.7373L2.0061 17.0353L2.00614 17.0354L2.69434 16.7373ZM2.65918 16.0361L1.94468 15.8081L1.94466 15.8082L2.65918 16.0361ZM3.13086 15.3477L2.55035 14.8728L3.13086 15.3477ZM3.95313 14.1094L4.6964 14.2096L4.69643 14.2093L3.95313 14.1094ZM3.56836 13.1807L4.02332 12.5844L4.02313 12.5843L3.56836 13.1807ZM2.11133 12.8857L2.03681 13.632L2.11133 12.8857ZM1.29199 12.7334L0.948304 13.4L0.948378 13.4001L1.29199 12.7334ZM0.820314 12.2129L0.122845 12.4886L0.122959 12.4889L0.820314 12.2129ZM0.750001 11.3818H1.07288e-06H0.750001ZM0.750001 10.1182H1.07288e-06H0.750001ZM0.820314 9.28711L0.122905 9.01121L0.12288 9.01127L0.820314 9.28711ZM1.29102 8.7666L0.947088 8.10011L0.946735 8.10029L1.29102 8.7666ZM2.11133 8.61328L2.03663 7.86701L2.11133 8.61328ZM3.56836 8.31836L4.02336 8.91458L4.02348 8.91449L3.56836 8.31836ZM3.95313 7.39063L4.69647 7.29091L4.69643 7.29066L3.95313 7.39063ZM3.13086 6.15137L2.55042 6.62633V6.62633L3.13086 6.15137ZM2.65918 5.46387L1.94467 5.69186L1.94475 5.69208L2.65918 5.46387ZM2.69434 4.7627L2.00614 4.46456L2.00609 4.46468L2.69434 4.7627ZM4.7627 2.69434L4.46458 2.00613L4.46457 2.00614L4.7627 2.69434ZM5.46387 2.65918L5.69193 1.9447L5.69181 1.94466L5.46387 2.65918ZM6.15234 3.13086L5.67749 3.71139L6.15234 3.13086ZM7.39063 3.95215L7.29076 4.69547L7.29086 4.69548L7.39063 3.95215ZM8.31836 3.56738L8.91459 4.02237L8.91469 4.02224L8.31836 3.56738ZM8.61328 2.11133L9.35955 2.18604L8.61328 2.11133ZM8.7666 1.29102L8.1003 0.946729L8.10009 0.947121L8.7666 1.29102ZM9.28711 0.820314L9.01132 0.12286L9.01122 0.1229L9.28711 0.820314ZM11.3818 0.750001V1.5C11.6094 1.5 11.7437 1.50046 11.844 1.5072C11.9369 1.51345 11.9497 1.52275 11.9371 1.51778L12.2129 0.820314L12.4886 0.122845C12.2989 0.047841 12.1141 0.0219854 11.9447 0.0105869C11.7826 -0.000316918 11.59 1.01328e-06 11.3818 1.01328e-06V0.750001ZM12.2129 0.820314L11.9369 1.51767C11.9925 1.5397 12.0388 1.58139 12.0668 1.63568L12.7334 1.29199L13.4 0.948304C13.2063 0.572594 12.8831 0.278977 12.4889 0.122959L12.2129 0.820314ZM12.7334 1.29199L12.0667 1.63561C12.0606 1.6236 12.071 1.63534 12.0864 1.72694C12.1031 1.82592 12.1168 1.95938 12.1395 2.18585L12.8857 2.11133L13.632 2.03681C13.6114 1.82984 13.5926 1.63828 13.5657 1.47827C13.5375 1.31088 13.4935 1.12967 13.4001 0.948378L12.7334 1.29199ZM12.8857 2.11133L12.1395 2.18585C12.1792 2.58377 12.2129 2.92659 12.2614 3.19602C12.3086 3.45816 12.3866 3.7639 12.5843 4.02313L13.1807 3.56836L13.7771 3.11359C13.803 3.14762 13.7746 3.13525 13.7377 2.93037C13.7021 2.73279 13.6743 2.45969 13.632 2.03681L12.8857 2.11133ZM13.1807 3.56836L12.5844 4.02332C12.9656 4.52293 13.5861 4.78025 14.2093 4.69643L14.1094 3.95313L14.0094 3.20982C13.9206 3.22176 13.8315 3.18494 13.7769 3.1134L13.1807 3.56836ZM14.1094 3.95313L14.2096 4.6964C14.5332 4.65276 14.8046 4.49113 15.0228 4.33919C15.2472 4.183 15.5133 3.96432 15.8225 3.71138L15.3477 3.13086L14.8728 2.55035C14.5434 2.81977 14.3307 2.9933 14.1657 3.10818C13.9946 3.22732 13.9662 3.21565 14.0091 3.20986L14.1094 3.95313ZM15.3477 3.13086L15.8225 3.71138C15.9986 3.56737 16.103 3.48269 16.1847 3.42464C16.2604 3.37087 16.2765 3.36973 16.2641 3.37368L16.0361 2.65918L15.8081 1.94468C15.4569 2.05676 15.1591 2.31616 14.8728 2.55035L15.3477 3.13086ZM16.0361 2.65918L16.2641 3.3737C16.3214 3.35541 16.3836 3.35845 16.4393 3.38257L16.7373 2.69434L17.0353 2.0061C16.6474 1.83808 16.2115 1.81599 15.8082 1.94466L16.0361 2.65918ZM16.7373 2.69434L16.4392 3.38254C16.4269 3.37722 16.4426 3.37977 16.5127 3.44099C16.5883 3.50708 16.6837 3.60178 16.8447 3.76275L17.375 3.23242L17.9053 2.70209C17.758 2.55477 17.622 2.4183 17.4996 2.31137C17.3716 2.19956 17.2226 2.08722 17.0354 2.00614L16.7373 2.69434ZM17.375 3.23242L16.8447 3.76275L17.7372 4.65533L18.2676 4.125L18.7979 3.59467L17.9053 2.70209L17.375 3.23242ZM18.2676 4.125L17.7372 4.65533C17.8982 4.81624 17.9929 4.91164 18.059 4.98731C18.1203 5.05744 18.1228 5.07318 18.1175 5.06086L18.8057 4.7627L19.4938 4.46453C19.4128 4.27739 19.3004 4.12839 19.1886 4.00044C19.0817 3.87802 18.9452 3.74199 18.7979 3.59467L18.2676 4.125ZM18.8057 4.7627L18.1174 5.06061C18.1416 5.11655 18.1445 5.17875 18.1263 5.23582L18.8408 5.46387L19.5553 5.69191C19.6841 5.2884 19.6618 4.85255 19.494 4.46478L18.8057 4.7627ZM18.8408 5.46387L18.1264 5.2355C18.1308 5.22194 18.1301 5.23738 18.0758 5.31345C18.0172 5.39556 17.9323 5.49974 17.7878 5.67631L18.3682 6.15137L18.9485 6.62643C19.0801 6.46573 19.2025 6.31689 19.2967 6.18494C19.3952 6.04695 19.4929 5.88727 19.5552 5.69224L18.8408 5.46387ZM18.3682 6.15137L17.7878 5.67631C17.5345 5.98577 17.3161 6.25189 17.16 6.47668C17.008 6.69548 16.8474 6.96642 16.8037 7.28889L17.5469 7.38965L18.2901 7.49041C18.2844 7.53229 18.2733 7.50313 18.3919 7.33246C18.5063 7.16778 18.6795 6.95505 18.9485 6.62643L18.3682 6.15137ZM17.5469 7.38965L16.8036 7.2895C16.7196 7.91306 16.9771 8.53341 17.4767 8.91462L17.9316 8.31836L18.3866 7.7221C18.3149 7.66738 18.2782 7.57846 18.2902 7.4898L17.5469 7.38965ZM17.9316 8.31836L17.4768 8.91473C17.7361 9.11247 18.0419 9.19043 18.3039 9.23757C18.5732 9.28601 18.9161 9.31973 19.314 9.35956L19.3887 8.61328L19.4634 7.86701C19.0402 7.82466 18.7671 7.7968 18.5695 7.76126C18.3646 7.72441 18.3523 7.69599 18.3864 7.72199L17.9316 8.31836ZM19.3887 8.61328L19.314 9.35956C19.5401 9.38218 19.6738 9.39615 19.7727 9.4129C19.8643 9.42844 19.8766 9.43904 19.865 9.43308L20.209 8.7666L20.5529 8.10013C20.2254 7.93111 19.8313 7.90383 19.4634 7.86701L19.3887 8.61328ZM20.209 8.7666L19.8647 9.43292C19.9182 9.46056 19.96 9.50668 19.9823 9.56303L20.6797 9.28711L21.3771 9.0112C21.2216 8.61814 20.9291 8.29449 20.5533 8.10029L20.209 8.7666ZM20.6797 9.28711L19.9823 9.563C19.9773 9.55043 19.9866 9.56318 19.9928 9.65594C19.9996 9.75615 20 9.89044 20 10.1182H20.75H21.5C21.5 9.90999 21.5003 9.71736 21.4894 9.55532C21.4781 9.38584 21.4522 9.20101 21.3771 9.01122L20.6797 9.28711ZM20.75 10.1182H20V11.3818H20.75H21.5V10.1182H20.75ZM20.75 11.3818H20C20 11.6093 19.9995 11.7437 19.9928 11.844C19.9865 11.9369 19.9772 11.9498 19.9822 11.9372L20.6797 12.2129L21.3772 12.4885C21.4521 12.2989 21.478 12.1141 21.4894 11.9447C21.5003 11.7826 21.5 11.59 21.5 11.3818H20.75ZM20.6797 12.2129L19.9823 11.9369C19.9603 11.9926 19.9186 12.0388 19.8644 12.0668L20.208 12.7334L20.5516 13.4C20.9275 13.2063 21.221 12.8831 21.377 12.4889L20.6797 12.2129ZM20.208 12.7334L19.8644 12.0667C19.8764 12.0605 19.8647 12.071 19.7731 12.0864C19.6741 12.1031 19.5406 12.1168 19.3141 12.1395L19.3887 12.8857L19.4632 13.632C19.6702 13.6114 19.8617 13.5926 20.0218 13.5657C20.1891 13.5375 20.3703 13.4935 20.5516 13.4001L20.208 12.7334ZM19.3887 12.8857L19.3141 12.1395C18.9162 12.1792 18.5737 12.2129 18.3044 12.2615C18.0422 12.3087 17.737 12.3868 17.478 12.5842L17.9326 13.1807L18.3873 13.7771C18.3534 13.8029 18.3659 13.7745 18.5703 13.7377C18.7676 13.7021 19.0405 13.6742 19.4632 13.632L19.3887 12.8857ZM17.9326 13.1807L17.4779 12.5842C16.9776 12.9656 16.7205 13.586 16.8046 14.2096L17.5479 14.1094L18.2911 14.0092C18.2791 13.9202 18.3158 13.8316 18.3873 13.7771L17.9326 13.1807ZM17.5479 14.1094L16.8046 14.2096C16.8481 14.5325 17.009 14.8037 17.1609 15.0224C17.3171 15.247 17.5355 15.5132 17.7887 15.8226L18.3691 15.3477L18.9496 14.8727C18.6805 14.5438 18.5072 14.3311 18.3927 14.1664C18.2741 13.9956 18.2854 13.9668 18.2911 14.0092L17.5479 14.1094ZM18.3691 15.3477L17.7887 15.8226C17.9329 15.9988 18.0175 16.1028 18.0759 16.1847C18.13 16.2605 18.1308 16.2761 18.1266 16.263L18.8408 16.0342L19.5551 15.8054C19.4928 15.611 19.3956 15.4517 19.2972 15.3138C19.2032 15.1819 19.081 15.0333 18.9496 14.8727L18.3691 15.3477ZM18.8408 16.0342L18.1264 16.2625C18.1447 16.3195 18.1417 16.3822 18.1174 16.4383L18.8057 16.7363L19.4939 17.0343C19.6619 16.6464 19.6843 16.2097 19.5552 15.8058L18.8408 16.0342ZM18.8057 16.7363L18.1175 16.438C18.1229 16.4257 18.1203 16.4415 18.0589 16.5118C17.9928 16.5875 17.898 16.6829 17.7372 16.8437L18.2676 17.374L18.7979 17.9044C18.9452 17.7571 19.0816 17.621 19.1886 17.4986C19.3003 17.3707 19.4127 17.2217 19.4938 17.0346L18.8057 16.7363ZM18.2676 17.374L17.7372 16.8437L16.8447 17.7363L17.375 18.2666L17.9053 18.7969L18.7979 17.9044L18.2676 17.374ZM17.375 18.2666L16.8447 17.7363C16.6837 17.8972 16.5883 17.9919 16.5127 18.058C16.4426 18.1193 16.4269 18.1218 16.4392 18.1165L16.7373 18.8047L17.0354 19.4929C17.2226 19.4118 17.3716 19.2995 17.4996 19.1877C17.622 19.0807 17.758 18.9443 17.9053 18.7969L17.375 18.2666ZM16.7373 18.8047L16.4393 18.1165C16.3836 18.1406 16.3214 18.1436 16.2641 18.1253L16.0361 18.8398L15.8082 19.5544C16.2115 19.683 16.6473 19.661 17.0354 19.4929L16.7373 18.8047ZM16.0361 18.8398L16.2642 18.1253C16.2765 18.1293 16.2604 18.1282 16.1847 18.0744C16.1029 18.0163 15.9985 17.9316 15.8225 17.7877L15.3477 18.3682L14.8728 18.9487C15.159 19.1828 15.4569 19.4423 15.8081 19.5543L16.0361 18.8398ZM15.3477 18.3682L15.8225 17.7877C15.5131 17.5345 15.2467 17.3158 15.0221 17.1595C14.8035 17.0075 14.5318 16.846 14.2081 16.8026L14.1084 17.5459L14.0087 18.2892C13.9658 18.2835 13.9944 18.2718 14.1655 18.3909C14.3306 18.5057 14.5434 18.6792 14.8728 18.9487L15.3477 18.3682ZM14.1084 17.5459L14.2078 16.8025C13.585 16.7193 12.9654 16.9764 12.5844 17.4757L13.1807 17.9307L13.7769 18.3856C13.8314 18.3142 13.9202 18.2774 14.009 18.2893L14.1084 17.5459ZM13.1807 17.9307L12.5844 17.4757C12.3866 17.735 12.3085 18.0408 12.2613 18.303C12.2129 18.5724 12.1792 18.9152 12.1395 19.3132L12.8857 19.3877L13.632 19.4622C13.6743 19.0391 13.7021 18.7661 13.7376 18.5685C13.7745 18.3638 13.8029 18.3516 13.7769 18.3856L13.1807 17.9307ZM12.8857 19.3877L12.1395 19.3132C12.1168 19.5399 12.1031 19.6736 12.0864 19.7729C12.071 19.8648 12.0604 19.8766 12.0667 19.8645L12.7334 20.208L13.4001 20.5515C13.4936 20.37 13.5376 20.1885 13.5657 20.0211C13.5926 19.861 13.6114 19.6692 13.632 19.4622L12.8857 19.3877ZM12.7334 20.208L12.0669 19.8642C12.0388 19.9186 11.9923 19.9604 11.9368 19.9823L12.2129 20.6797L12.4889 21.377C12.8831 21.221 13.2063 20.9272 13.3999 20.5518L12.7334 20.208ZM12.2129 20.6797L11.937 19.9823C11.9497 19.9772 11.9369 19.9866 11.8437 19.9928C11.7433 19.9996 11.6087 20 11.3809 20V20.75V21.5C11.5891 21.5 11.782 21.5003 11.9442 21.4895C12.1136 21.4781 12.2988 21.4523 12.4888 21.3771L12.2129 20.6797ZM11.3809 20.75V20H10.1182V20.75V21.5H11.3809V20.75ZM10.1182 20.75V20C9.89044 20 9.75615 19.9996 9.65594 19.9928C9.56318 19.9866 9.55043 19.9773 9.563 19.9823L9.28711 20.6797L9.01122 21.3771C9.20101 21.4522 9.38584 21.4781 9.55532 21.4894C9.71736 21.5003 9.90999 21.5 10.1182 21.5V20.75ZM9.28711 20.6797L9.56303 19.9823C9.50668 19.96 9.46056 19.9182 9.43292 19.8647L8.7666 20.209L8.10029 20.5533C8.29449 20.9291 8.61814 21.2216 9.0112 21.3771L9.28711 20.6797ZM8.7666 20.209L9.43308 19.865C9.43904 19.8766 9.42844 19.8643 9.4129 19.7727C9.39615 19.6738 9.38218 19.5401 9.35956 19.314L8.61328 19.3887L7.86701 19.4634C7.90383 19.8313 7.93111 20.2254 8.10013 20.5529L8.7666 20.209ZM8.61328 19.3887L9.35956 19.314C9.31973 18.9161 9.28601 18.5732 9.23757 18.3039C9.19043 18.0419 9.11247 17.7361 8.91473 17.4768L8.31836 17.9316L7.72199 18.3864C7.69599 18.3523 7.72441 18.3646 7.76126 18.5695C7.7968 18.7671 7.82466 19.0402 7.86701 19.4634L8.61328 19.3887ZM8.31836 17.9316L8.91462 17.4767C8.53341 16.9771 7.91306 16.7196 7.2895 16.8036L7.38965 17.5469L7.4898 18.2902C7.57846 18.2782 7.66738 18.3149 7.7221 18.3866L8.31836 17.9316ZM7.38965 17.5469L7.28889 16.8037C6.96642 16.8474 6.69548 17.008 6.47668 17.16C6.25189 17.3161 5.98577 17.5345 5.67631 17.7878L6.15137 18.3682L6.62643 18.9485C6.95505 18.6795 7.16778 18.5063 7.33246 18.3919C7.50313 18.2733 7.53229 18.2844 7.49041 18.2901L7.38965 17.5469ZM6.15137 18.3682L5.67631 17.7878C5.49974 17.9323 5.39556 18.0172 5.31345 18.0758C5.23738 18.1301 5.22194 18.1308 5.2355 18.1264L5.46387 18.8408L5.69224 19.5552C5.88727 19.4929 6.04695 19.3952 6.18494 19.2967C6.31689 19.2025 6.46573 19.0801 6.62643 18.9485L6.15137 18.3682ZM5.46387 18.8408L5.23582 18.1263C5.17875 18.1445 5.11655 18.1416 5.06061 18.1174L4.7627 18.8057L4.46478 19.494C4.85255 19.6618 5.2884 19.6841 5.69191 19.5553L5.46387 18.8408ZM4.7627 18.8057L5.06086 18.1175C5.07318 18.1228 5.05744 18.1203 4.98731 18.059C4.91164 17.9929 4.81624 17.8982 4.65533 17.7372L4.125 18.2676L3.59467 18.7979C3.74199 18.9452 3.87802 19.0817 4.00044 19.1886C4.12839 19.3004 4.27739 19.4128 4.46453 19.4938L4.7627 18.8057ZM4.125 18.2676L4.65533 17.7372L3.76275 16.8447L3.23242 17.375L2.70209 17.9053L3.59467 18.7979L4.125 18.2676ZM3.23242 17.375L3.76275 16.8447C3.60178 16.6837 3.50708 16.5883 3.44099 16.5127C3.37977 16.4426 3.37722 16.4269 3.38254 16.4392L2.69434 16.7373L2.00614 17.0354C2.08722 17.2226 2.19956 17.3716 2.31137 17.4996C2.4183 17.622 2.55477 17.758 2.70209 17.9053L3.23242 17.375ZM2.69434 16.7373L3.38257 16.4393C3.35845 16.3836 3.35541 16.3214 3.3737 16.2641L2.65918 16.0361L1.94466 15.8082C1.81599 16.2115 1.83808 16.6474 2.0061 17.0353L2.69434 16.7373ZM2.65918 16.0361L3.37368 16.2641C3.36973 16.2765 3.37087 16.2604 3.42464 16.1847C3.48269 16.103 3.56737 15.9986 3.71138 15.8225L3.13086 15.3477L2.55035 14.8728C2.31616 15.1591 2.05676 15.4569 1.94468 15.8081L2.65918 16.0361ZM3.13086 15.3477L3.71138 15.8225C3.96432 15.5133 4.183 15.2472 4.33919 15.0228C4.49113 14.8046 4.65276 14.5332 4.6964 14.2096L3.95313 14.1094L3.20986 14.0091C3.21565 13.9662 3.22732 13.9946 3.10818 14.1657C2.9933 14.3307 2.81977 14.5434 2.55035 14.8728L3.13086 15.3477ZM3.95313 14.1094L4.69643 14.2093C4.78025 13.5861 4.52293 12.9656 4.02332 12.5844L3.56836 13.1807L3.1134 13.7769C3.18494 13.8315 3.22176 13.9206 3.20982 14.0094L3.95313 14.1094ZM3.56836 13.1807L4.02313 12.5843C3.7639 12.3866 3.45816 12.3086 3.19603 12.2614C2.92659 12.2129 2.58377 12.1792 2.18585 12.1395L2.11133 12.8857L2.03681 13.632C2.45969 13.6743 2.73279 13.7021 2.93037 13.7377C3.13525 13.7746 3.14762 13.803 3.11359 13.7771L3.56836 13.1807ZM2.11133 12.8857L2.18585 12.1395C1.95938 12.1168 1.82592 12.1031 1.72694 12.0864C1.63534 12.071 1.6236 12.0606 1.63561 12.0667L1.29199 12.7334L0.948378 13.4001C1.12967 13.4935 1.31088 13.5375 1.47827 13.5657C1.63828 13.5926 1.82984 13.6114 2.03681 13.632L2.11133 12.8857ZM1.29199 12.7334L1.63568 12.0668C1.58139 12.0388 1.5397 11.9925 1.51767 11.9369L0.820314 12.2129L0.122959 12.4889C0.278977 12.8831 0.572594 13.2063 0.948304 13.4L1.29199 12.7334ZM0.820314 12.2129L1.51778 11.9371C1.52275 11.9497 1.51345 11.9369 1.5072 11.844C1.50046 11.7437 1.5 11.6094 1.5 11.3818H0.750001H1.07288e-06C1.07288e-06 11.59 -0.000316858 11.7826 0.010587 11.9447C0.0219854 12.1141 0.0478411 12.2989 0.122845 12.4886L0.820314 12.2129ZM0.750001 11.3818H1.5V10.1182H0.750001H1.07288e-06V11.3818H0.750001ZM0.750001 10.1182H1.5C1.5 9.89046 1.50045 9.75616 1.50719 9.65595C1.51342 9.56317 1.52271 9.5504 1.51775 9.56295L0.820314 9.28711L0.12288 9.01127C0.0478327 9.20102 0.0219626 9.38583 0.0105659 9.55531C-0.000330448 9.71735 1.07288e-06 9.90998 1.07288e-06 10.1182H0.750001ZM0.820314 9.28711L1.51772 9.56301C1.54001 9.50668 1.58177 9.46057 1.6353 9.43291L1.29102 8.7666L0.946735 8.10029C0.5709 8.29449 0.278415 8.61812 0.122905 9.01121L0.820314 9.28711ZM1.29102 8.7666L1.63495 9.4331C1.6234 9.43906 1.63568 9.42845 1.72735 9.41291C1.82621 9.39615 1.95996 9.38218 2.18603 9.35955L2.11133 8.61328L2.03663 7.86701C1.66873 7.90384 1.27456 7.93112 0.947088 8.10011L1.29102 8.7666ZM2.11133 8.61328L2.18603 9.35955C2.58386 9.31973 2.92671 9.28603 3.196 9.23761C3.45805 9.1905 3.76396 9.11254 4.02336 8.91458L3.56836 8.31836L3.11336 7.72214C3.14757 7.69604 3.13549 7.72444 2.93058 7.76128C2.73291 7.79682 2.45985 7.82465 2.03663 7.86701L2.11133 8.61328ZM3.56836 8.31836L4.02348 8.91449C4.52226 8.53369 4.7801 7.91435 4.69647 7.29091L3.95313 7.39063L3.20978 7.49035C3.22162 7.57855 3.18519 7.66731 3.11324 7.72223L3.56836 8.31836ZM3.95313 7.39063L4.69643 7.29066C4.65293 6.96719 4.49154 6.69558 4.33952 6.47697C4.18321 6.2522 3.96451 5.98585 3.71131 5.67641L3.13086 6.15137L2.55042 6.62633C2.81971 6.95542 2.99325 7.16833 3.10802 7.33336C3.22707 7.50456 3.21556 7.53331 3.20982 7.49059L3.95313 7.39063ZM3.13086 6.15137L3.71131 5.67641C3.56725 5.50036 3.48258 5.39616 3.42436 5.31436C3.37043 5.23858 3.3695 5.22278 3.37362 5.23565L2.65918 5.46387L1.94475 5.69208C2.00682 5.8864 2.10382 6.0458 2.20228 6.18414C2.29645 6.31646 2.41864 6.46528 2.55042 6.62633L3.13086 6.15137ZM2.65918 5.46387L3.37369 5.23588C3.35542 5.17862 3.35843 5.1165 3.38259 5.06071L2.69434 4.7627L2.00609 4.46468C1.8381 4.85262 1.81595 5.28846 1.94467 5.69186L2.65918 5.46387ZM2.69434 4.7627L3.38253 5.06083C3.3772 5.07315 3.37975 5.05743 3.44101 4.98731C3.50711 4.91165 3.60182 4.81626 3.76275 4.65533L3.23242 4.125L2.70209 3.59467C2.55478 3.74199 2.41832 3.87802 2.31138 4.00043C2.19959 4.12839 2.08722 4.27739 2.00614 4.46456L2.69434 4.7627ZM3.23242 4.125L3.76275 4.65533L4.65533 3.76275L4.125 3.23242L3.59467 2.70209L2.70209 3.59467L3.23242 4.125ZM4.125 3.23242L4.65533 3.76275C4.81627 3.60181 4.91165 3.5071 4.98732 3.441C5.05742 3.37975 5.07313 3.3772 5.06082 3.38254L4.7627 2.69434L4.46457 2.00614C4.27739 2.08722 4.12839 2.19959 4.00042 2.31138C3.87802 2.41832 3.74199 2.55478 3.59467 2.70209L4.125 3.23242ZM4.7627 2.69434L5.06081 3.38254C5.11644 3.35845 5.17851 3.35539 5.23593 3.3737L5.46387 2.65918L5.69181 1.94466C5.28852 1.81601 4.8527 1.83801 4.46458 2.00613L4.7627 2.69434ZM5.46387 2.65918L5.23581 3.37367C5.22339 3.3697 5.23953 3.37085 5.31533 3.42469C5.3971 3.48277 5.50155 3.56748 5.67749 3.71139L6.15234 3.13086L6.6272 2.55033C6.34108 2.31629 6.04305 2.05677 5.69193 1.9447L5.46387 2.65918ZM6.15234 3.13086L5.67749 3.71139C5.98683 3.96441 6.25298 4.18291 6.47754 4.33901C6.6961 4.49095 6.96744 4.65203 7.29076 4.69547L7.39063 3.95215L7.49049 3.20883C7.53311 3.21455 7.50452 3.2261 7.33372 3.10737C7.16892 2.99281 6.95629 2.81952 6.6272 2.55033L6.15234 3.13086ZM7.39063 3.95215L7.29086 4.69548C7.91434 4.77916 8.53371 4.52148 8.91459 4.02237L8.31836 3.56738L7.72213 3.1124C7.66729 3.18426 7.57875 3.22067 7.49039 3.20881L7.39063 3.95215ZM8.31836 3.56738L8.91469 4.02224C9.1124 3.76304 9.1904 3.45755 9.23756 3.19551C9.28601 2.92636 9.31973 2.58375 9.35955 2.18604L8.61328 2.11133L7.86701 2.03661C7.82467 2.45957 7.79682 2.73238 7.76129 2.9298C7.72447 3.13432 7.6961 3.14653 7.72203 3.11253L8.31836 3.56738ZM8.61328 2.11133L9.35955 2.18604C9.38218 1.96 9.39616 1.82623 9.41292 1.72736C9.42846 1.63565 9.43907 1.62336 9.43311 1.63491L8.7666 1.29102L8.10009 0.947121C7.93114 1.27456 7.90384 1.66875 7.86701 2.03661L8.61328 2.11133ZM8.7666 1.29102L9.43291 1.6353C9.46058 1.58176 9.50669 1.54 9.563 1.51773L9.28711 0.820314L9.01122 0.1229C8.6181 0.278412 8.29448 0.57091 8.1003 0.946729L8.7666 1.29102ZM9.28711 0.820314L9.5629 1.51777C9.55036 1.52272 9.56317 1.51343 9.65596 1.50719C9.75618 1.50045 9.8905 1.5 10.1182 1.5V0.750001V1.01328e-06C9.90996 1.01328e-06 9.71735 -0.000324905 9.5553 0.0105749C9.38583 0.0219738 9.20104 0.0478412 9.01132 0.12286L9.28711 0.820314ZM10.1182 0.750001V1.5H11.3818V0.750001V1.01328e-06H10.1182V0.750001ZM10.75 6.75V6C8.12665 6 6 8.12665 6 10.75H6.75H7.5C7.5 8.95508 8.95508 7.5 10.75 7.5V6.75ZM6.75 10.75H6C6 13.3734 8.12665 15.5 10.75 15.5V14.75V14C8.95508 14 7.5 12.5449 7.5 10.75H6.75ZM10.75 14.75V15.5C13.3734 15.5 15.5 13.3734 15.5 10.75H14.75H14C14 12.5449 12.5449 14 10.75 14V14.75ZM14.75 10.75H15.5C15.5 8.12665 13.3734 6 10.75 6V6.75V7.5C12.5449 7.5 14 8.95508 14 10.75H14.75Z" fill="currentColor"/>
</g>
</symbol>
<symbol id="app-bar-trash" viewBox="0 0 24 24" fill="none">
<g clip-path="url(#app-bar-trash--clip0-1210-3046)">
<path d="M14 11V17" stroke="#1F2324" stroke-width="1.5" stroke-linecap="round" stroke-linejoin="round"/>
<path d="M10 11V17" stroke="#1F2324" stroke-width="1.5" stroke-linecap="round" stroke-linejoin="round"/>
<path d="M6 7V19C6 20.1046 6.89543 21 8 21H16C17.1046 21 18 20.1046 18 19V7" stroke="#1F2324" stroke-width="1.5" stroke-linecap="round" stroke-linejoin="round"/>
<path d="M4 7H20" stroke="#1F2324" stroke-width="1.5" stroke-linecap="round" stroke-linejoin="round"/>
<path d="M7 7L9 3H15L17 7" stroke="#1F2324" stroke-width="1.5" stroke-linecap="round" stroke-linejoin="round"/>
</g>
<defs>
<clipPath id="app-bar-trash--clip0-1210-3046">
<rect width="24" height="24" fill="white"/>
</clipPath>
</defs>
</symbol>
<symbol id="arrow-down" viewBox="0 0 24 24" fill="none">
<path d="M6 9L12 15L18 9" stroke="#1F2324" stroke-width="1.5" stroke-linecap="round" stroke-linejoin="round"/>
</symbol>
<symbol id="arrow-left" viewBox="0 0 24 24" fill="none">
<path d="M15 18L9 12L15 6" stroke="#1F2324" stroke-width="1.5" stroke-linecap="round" stroke-linejoin="round"/>
</symbol>
<symbol id="arrow-right" viewBox="0 0 24 24" fill="none">
<path d="M10 17L15 12" stroke="#1F2324" stroke-width="1.5" stroke-linecap="round" stroke-linejoin="round"/>
<path d="M15 12L10 7" stroke="#1F2324" stroke-width="1.5" stroke-linecap="round" stroke-linejoin="round"/>
</symbol>
<symbol id="arrow-up" viewBox="0 0 24 24" fill="none">
<path d="M18 15L12 9L6 15" stroke="#1F2324" stroke-width="1.5" stroke-linecap="round" stroke-linejoin="round"/>
</symbol>
<symbol id="chat-alarm-line" viewBox="0 0 24 24" fill="none">
<path d="M14.2498 17.75H9.74978V18C9.74978 19.2426 10.7571 20.25 11.9998 20.25C13.2424 20.25 14.2498 19.2426 14.2498 18V17.75ZM5.74978 13.7227C5.74972 14.0996 5.59968 14.4606 5.33376 14.7266L4.94411 15.1162C4.88175 15.1786 4.84673 15.2138 4.82106 15.2412C4.80491 15.2584 4.79834 15.2664 4.79665 15.2686C4.77449 15.2994 4.75902 15.3355 4.7527 15.374C4.75237 15.3769 4.75148 15.3873 4.75075 15.4102C4.74957 15.4478 4.74978 15.4974 4.74978 15.5859C4.74978 15.7872 4.74958 15.9074 4.75466 15.9971C4.75944 16.0812 4.7668 16.0929 4.76247 16.0801C4.7873 16.1537 4.84565 16.2122 4.9197 16.2373C4.90728 16.2332 4.91923 16.2404 5.00173 16.2451C5.09053 16.2502 5.20943 16.25 5.40896 16.25H18.5906C18.79 16.25 18.9088 16.2502 18.9978 16.2451C19.0817 16.2404 19.093 16.2329 19.0799 16.2373C19.1528 16.2127 19.2108 16.155 19.2361 16.0801C19.2378 16.0709 19.2411 16.0465 19.2439 15.9971C19.249 15.9074 19.2498 15.7872 19.2498 15.5859C19.2498 15.4975 19.249 15.4476 19.2478 15.4102C19.247 15.3863 19.2462 15.3765 19.2459 15.374C19.2393 15.3339 19.2241 15.2981 19.2029 15.2686C19.201 15.2661 19.1946 15.2584 19.1795 15.2422C19.1535 15.2145 19.118 15.1787 19.0554 15.1162L18.6658 14.7266C18.3995 14.4603 18.2498 14.0992 18.2498 13.7227V10C18.2498 6.54821 15.4516 3.74999 11.9998 3.75C8.548 3.75001 5.74978 6.54823 5.74978 10V13.7227ZM19.7498 13.6895L20.116 14.0557C20.2174 14.1571 20.3302 14.2663 20.4216 14.3936C20.5801 14.6142 20.683 14.8671 20.7263 15.1309C20.7517 15.2853 20.7498 15.4402 20.7498 15.5859C20.7498 15.9109 20.7597 16.258 20.658 16.5596C20.4837 17.0763 20.0781 17.4832 19.5593 17.6582C19.3338 17.7342 19.0829 17.748 18.8357 17.75H15.7498V18C15.7498 20.0711 14.0708 21.75 11.9998 21.75C9.92871 21.75 8.24978 20.0711 8.24978 18V17.75H5.16481C4.91757 17.748 4.66689 17.7343 4.44118 17.6582C3.9237 17.4837 3.51632 17.0775 3.34157 16.5596C3.23986 16.258 3.24978 15.9109 3.24978 15.5859C3.24978 15.4417 3.24781 15.2856 3.27321 15.1309C3.3168 14.8654 3.42041 14.6129 3.5779 14.3936C3.66919 14.2664 3.78076 14.1585 3.88356 14.0557L4.24978 13.6895V10C4.24978 5.7198 7.71958 2.25001 11.9998 2.25C16.28 2.24999 19.7498 5.71979 19.7498 10V13.6895Z" fill="#1F2324"/>
</symbol>
<symbol id="chat-alarm-off" viewBox="0 0 24 24" fill="none">
<path d="M5.88308 8.71094C5.79586 9.12691 5.75026 9.55811 5.75026 10V13.7227C5.7502 14.0996 5.60011 14.4606 5.33425 14.7266L4.9446 15.1162C4.88231 15.1785 4.84721 15.2139 4.82155 15.2412C4.80561 15.2582 4.79894 15.2663 4.79714 15.2686C4.77498 15.2994 4.75952 15.3355 4.75319 15.374C4.75286 15.3769 4.75196 15.3873 4.75124 15.4102C4.75006 15.4478 4.75026 15.4974 4.75026 15.5859C4.75026 15.7872 4.75007 15.9074 4.75515 15.9971C4.75992 16.0811 4.76724 16.0928 4.76296 16.0801C4.7878 16.1537 4.84615 16.2122 4.92019 16.2373C4.90777 16.2332 4.91972 16.2404 5.00222 16.2451C5.091 16.2501 5.21006 16.25 5.40944 16.25H13.4221L15.7112 18.5391C15.4498 20.3546 13.8882 21.7499 12.0003 21.75C9.9292 21.75 8.25026 20.0711 8.25026 18V17.75H5.1653C4.91812 17.748 4.66733 17.7342 4.44167 17.6582C3.92421 17.4837 3.51682 17.0775 3.34206 16.5596C3.24035 16.258 3.25026 15.9109 3.25026 15.5859C3.25026 15.4417 3.2483 15.2856 3.2737 15.1309C3.31729 14.8654 3.4209 14.6129 3.57839 14.3936C3.66967 14.2665 3.78127 14.1584 3.88405 14.0557L4.25026 13.6895V10C4.25026 9.12283 4.39771 8.28035 4.66628 7.49414L5.88308 8.71094ZM9.75026 18C9.75026 19.2426 10.7576 20.25 12.0003 20.25C13.2428 20.2499 14.2503 19.2426 14.2503 18V17.75H9.75026V18ZM12.0003 2.25C16.2804 2.25009 19.7503 5.71985 19.7503 10V13.6895L20.1165 14.0557C20.2179 14.1571 20.3308 14.2663 20.4221 14.3936C20.5806 14.6142 20.6835 14.8671 20.7268 15.1309C20.7522 15.2853 20.7503 15.4402 20.7503 15.5859C20.7503 15.9109 20.7602 16.2581 20.6585 16.5596C20.5579 16.8576 20.3784 17.1168 20.1467 17.3184L19.0667 16.2383C19.0869 16.2355 19.0881 16.2347 19.0803 16.2373C19.1532 16.2127 19.2113 16.1549 19.2366 16.0801C19.2383 16.0709 19.2416 16.0464 19.2444 15.9971C19.2495 15.9074 19.2503 15.7872 19.2503 15.5859C19.2503 15.4975 19.2495 15.4476 19.2483 15.4102C19.2475 15.3863 19.2467 15.3765 19.2464 15.374C19.2398 15.3339 19.2246 15.2981 19.2034 15.2686C19.2015 15.2661 19.1951 15.2583 19.18 15.2422C19.154 15.2146 19.1184 15.1787 19.0559 15.1162L18.6663 14.7266C18.4 14.4603 18.2503 14.0992 18.2503 13.7227V10C18.2503 6.54828 15.452 3.75009 12.0003 3.75C10.4853 3.75 9.0958 4.28881 8.01394 5.18555L6.95046 4.12207C8.30689 2.95572 10.071 2.25 12.0003 2.25Z" fill="#1F2324"/>
<path d="M3 3L21 21" stroke="#1F2324" stroke-width="1.5" stroke-linecap="round"/>
</symbol>
<symbol id="chat-alarm-on-line" viewBox="0 0 24 24" fill="none">
<path d="M14.2498 17.75H9.74978V18C9.74978 19.2426 10.7571 20.25 11.9998 20.25C13.2424 20.25 14.2498 19.2426 14.2498 18V17.75ZM5.74978 13.7227C5.74972 14.0996 5.59968 14.4606 5.33376 14.7266L4.94411 15.1162C4.88175 15.1786 4.84673 15.2138 4.82106 15.2412C4.80491 15.2584 4.79834 15.2664 4.79665 15.2686C4.77449 15.2994 4.75902 15.3355 4.7527 15.374C4.75237 15.3769 4.75148 15.3873 4.75075 15.4102C4.74957 15.4478 4.74978 15.4974 4.74978 15.5859C4.74978 15.7872 4.74958 15.9074 4.75466 15.9971C4.75944 16.0812 4.7668 16.0929 4.76247 16.0801C4.7873 16.1537 4.84565 16.2122 4.9197 16.2373C4.90728 16.2332 4.91923 16.2404 5.00173 16.2451C5.09053 16.2502 5.20943 16.25 5.40896 16.25H18.5906C18.79 16.25 18.9088 16.2502 18.9978 16.2451C19.0817 16.2404 19.093 16.2329 19.0799 16.2373C19.1528 16.2127 19.2108 16.155 19.2361 16.0801C19.2378 16.0709 19.2411 16.0465 19.2439 15.9971C19.249 15.9074 19.2498 15.7872 19.2498 15.5859C19.2498 15.4975 19.249 15.4476 19.2478 15.4102C19.247 15.3863 19.2462 15.3765 19.2459 15.374C19.2393 15.3339 19.2241 15.2981 19.2029 15.2686C19.201 15.2661 19.1946 15.2584 19.1795 15.2422C19.1535 15.2145 19.118 15.1787 19.0554 15.1162L18.6658 14.7266C18.3995 14.4603 18.2498 14.0992 18.2498 13.7227V10C18.2498 6.54821 15.4516 3.74999 11.9998 3.75C8.548 3.75001 5.74978 6.54823 5.74978 10V13.7227ZM19.7498 13.6895L20.116 14.0557C20.2174 14.1571 20.3302 14.2663 20.4216 14.3936C20.5801 14.6142 20.683 14.8671 20.7263 15.1309C20.7517 15.2853 20.7498 15.4402 20.7498 15.5859C20.7498 15.9109 20.7597 16.258 20.658 16.5596C20.4837 17.0763 20.0781 17.4832 19.5593 17.6582C19.3338 17.7342 19.0829 17.748 18.8357 17.75H15.7498V18C15.7498 20.0711 14.0708 21.75 11.9998 21.75C9.92871 21.75 8.24978 20.0711 8.24978 18V17.75H5.16481C4.91757 17.748 4.66689 17.7343 4.44118 17.6582C3.9237 17.4837 3.51632 17.0775 3.34157 16.5596C3.23986 16.258 3.24978 15.9109 3.24978 15.5859C3.24978 15.4417 3.24781 15.2856 3.27321 15.1309C3.3168 14.8654 3.42041 14.6129 3.5779 14.3936C3.66919 14.2664 3.78076 14.1585 3.88356 14.0557L4.24978 13.6895V10C4.24978 5.7198 7.71958 2.25001 11.9998 2.25C16.28 2.24999 19.7498 5.71979 19.7498 10V13.6895Z" fill="#1F2324"/>
</symbol>
<symbol id="chat-alarm-on" viewBox="0 0 24 24" fill="none">
<path d="M7 5.5L10 3.5H15L18.5 7L19 13.5L20 15.5V16C20 16.5523 19.5523 17 19 17H5C4.44772 17 4 16.5523 4 16V15.5L5.5 13.5V8L7 5.5Z" fill="#1F2324"/>
<path d="M14.9023 18.75C14.569 20.0435 13.3976 21 12 21C10.6024 21 9.43095 20.0435 9.09766 18.75H14.9023ZM12 15C13.5726 15 14.8612 16.2102 14.9883 17.75H9.01172C9.13881 16.2102 10.4274 15 12 15Z" fill="#1F2324"/>
<path d="M15.6741 18.75C15.3266 20.4616 13.8135 21.75 11.9993 21.75C10.1852 21.7499 8.67192 20.4616 8.32448 18.75H9.88015C10.1892 19.6234 11.02 20.2499 11.9993 20.25C12.9786 20.25 13.8093 19.6234 14.1184 18.75H15.6741ZM11.9993 2.25C16.2795 2.24999 19.7493 5.71979 19.7493 10V13.6895L20.1155 14.0557C20.2169 14.1571 20.3298 14.2663 20.4212 14.3936C20.5796 14.6142 20.6825 14.8671 20.7258 15.1309C20.7512 15.2853 20.7493 15.4402 20.7493 15.5859C20.7493 15.9109 20.7592 16.258 20.6575 16.5596C20.4832 17.0763 20.0776 17.4832 19.5589 17.6582C19.3334 17.7342 19.0824 17.748 18.8352 17.75H5.16432C4.91714 17.748 4.66634 17.7342 4.44069 17.6582C3.92329 17.4836 3.51581 17.0775 3.34108 16.5596C3.2394 16.2581 3.24929 15.9109 3.24929 15.5859C3.24929 15.4417 3.24733 15.2856 3.27272 15.1309C3.31631 14.8655 3.41996 14.6129 3.57741 14.3936C3.66867 14.2665 3.7803 14.1584 3.88307 14.0557L4.24929 13.6895V10C4.24929 5.71986 7.71918 2.25011 11.9993 2.25ZM11.9993 3.75C8.5476 3.75011 5.74929 6.54829 5.74929 10V13.7227C5.74923 14.0996 5.59919 14.4606 5.33327 14.7266L4.94362 15.1162C4.88132 15.1785 4.84623 15.2139 4.82057 15.2412C4.80448 15.2584 4.79785 15.2664 4.79616 15.2686C4.77403 15.2994 4.75853 15.3356 4.75222 15.374C4.75188 15.3769 4.75098 15.3873 4.75026 15.4102C4.74908 15.4478 4.74929 15.4974 4.74929 15.5859C4.74929 15.7872 4.74909 15.9074 4.75417 15.9971C4.75895 16.0812 4.76631 16.0929 4.76198 16.0801C4.78679 16.1536 4.84524 16.2122 4.91921 16.2373C4.90708 16.2333 4.91929 16.2404 5.00124 16.2451C5.09002 16.2502 5.20905 16.25 5.40847 16.25H18.5901C18.7893 16.25 18.9083 16.2501 18.9973 16.2451C19.0812 16.2404 19.0925 16.2329 19.0794 16.2373C19.1523 16.2127 19.2103 16.155 19.2356 16.0801C19.2373 16.0709 19.2406 16.0465 19.2434 15.9971C19.2485 15.9074 19.2493 15.7872 19.2493 15.5859C19.2493 15.4975 19.2485 15.4476 19.2473 15.4102C19.2465 15.3863 19.2457 15.3765 19.2454 15.374C19.2388 15.3339 19.2236 15.2981 19.2024 15.2686C19.2004 15.266 19.194 15.2582 19.179 15.2422C19.153 15.2146 19.1174 15.1787 19.0549 15.1162L18.6653 14.7266C18.3991 14.4603 18.2494 14.0992 18.2493 13.7227V10C18.2493 6.54821 15.4511 3.74999 11.9993 3.75Z" fill="#1F2324"/>
</symbol>
<symbol id="chat-alert" viewBox="0 0 24 24" fill="none">
<path d="M19.3259 6.23982C20 7.24871 20 8.65317 20 11.4621C20 14.271 20 15.6755 19.3259 16.6844C19.034 17.1211 18.659 17.4961 18.2223 17.788C17.3409 18.3769 16.1577 18.4513 14 18.4607V18.4621L12.8944 20.6732C12.5259 21.4103 11.4741 21.4103 11.1056 20.6732L10 18.4621V18.4607C7.8423 18.4513 6.65907 18.3769 5.77772 17.788C5.34096 17.4961 4.96596 17.1211 4.67412 16.6844C4 15.6755 4 14.271 4 11.4621C4 8.65317 4 7.24871 4.67412 6.23982C4.96596 5.80306 5.34096 5.42805 5.77772 5.13622C6.78661 4.4621 8.19108 4.4621 11 4.4621H13C15.8089 4.4621 17.2134 4.4621 18.2223 5.13622C18.659 5.42805 19.034 5.80306 19.3259 6.23982Z" stroke="#F20808" stroke-width="1.5" stroke-linecap="round" stroke-linejoin="round"/>
<path d="M11.5157 7.98346C11.5061 7.7037 11.7302 7.47166 12.0101 7.47165C12.2908 7.47163 12.5153 7.70485 12.5046 7.98531L12.3032 13.2464C12.297 13.4092 12.1632 13.538 12.0003 13.538C11.8369 13.538 11.7029 13.4085 11.6973 13.2453L11.5157 7.98346Z" fill="#F20808" stroke="#F20808"/>
<circle cx="12.0007" cy="15.4335" r="0.839585" fill="#F20808"/>
</symbol>
<symbol id="chat-block" viewBox="0 0 20 20" fill="none">
<path d="M3.38604 3.38604C1.75736 5.01472 0.75 7.26472 0.75 9.75C0.75 14.7206 4.77944 18.75 9.75 18.75C12.2353 18.75 14.4853 17.7426 16.114 16.114M3.38604 3.38604C5.01472 1.75736 7.26472 0.75 9.75 0.75C14.7206 0.75 18.75 4.77944 18.75 9.75C18.75 12.2353 17.7426 14.4853 16.114 16.114M3.38604 3.38604L16.114 16.114" stroke="#F20808" stroke-width="1.5" stroke-linecap="round" stroke-linejoin="round"/>
</symbol>
<symbol id="chat-calendar" viewBox="0 0 24 24" fill="none">
<rect x="3" y="6" width="18" height="15" rx="2" stroke="#1F2324"/>
<path d="M3 10C3 8.11438 3 7.17157 3.58579 6.58579C4.17157 6 5.11438 6 7 6H17C18.8856 6 19.8284 6 20.4142 6.58579C21 7.17157 21 8.11438 21 10V17C21 18.8856 21 19.8284 20.4142 20.4142C19.8284 21 18.8856 21 17 21H7C5.11438 21 4.17157 21 3.58579 20.4142C3 19.8284 3 18.8856 3 17V10Z" fill="#1F2324"/>
<path d="M7 3L7 6" stroke="#1F2324" stroke-linecap="round"/>
<path d="M17 3L17 6" stroke="#1F2324" stroke-linecap="round"/>
<g clip-path="url(#chat-calendar--clip0-1336-3737)">
<path d="M15.8728 10.3345L11.5944 16.2282L8.67773 13.3115" stroke="white" stroke-width="1.5" stroke-linecap="round" stroke-linejoin="round"/>
</g>
<defs>
<clipPath id="chat-calendar--clip0-1336-3737">
<rect width="14" height="14" fill="white" transform="translate(5 6)"/>
</clipPath>
</defs>
</symbol>
<symbol id="chat-camera-fill" viewBox="0 0 20 20" fill="none">
<path d="M12.1046 2.58301C13.1406 2.58588 14.0878 3.17141 14.5538 4.09668C14.5555 4.10005 14.5574 4.1039 14.5597 4.1084L15.2442 5.47656C15.3789 5.7459 15.654 5.91598 15.9552 5.91602C17.2225 5.9161 18.2499 6.94459 18.2501 8.21191V12.3809C18.2501 13.5147 18.2611 14.2737 18.0401 14.9053C17.6632 15.9823 16.8155 16.8292 15.7384 17.2061C15.1067 17.427 14.348 17.416 13.214 17.416H6.78622C5.65226 17.416 4.89345 17.427 4.26181 17.2061C3.18479 16.8291 2.33698 15.9823 1.96005 14.9053C1.73914 14.2737 1.75009 13.5147 1.75009 12.3809V8.21191C1.75028 6.94462 2.7777 5.91615 4.04501 5.91602C4.34617 5.91602 4.62127 5.74592 4.75595 5.47656L5.44052 4.1084C5.44279 4.10386 5.44467 4.10007 5.44638 4.09668C5.91235 3.17139 6.8596 2.58591 7.8956 2.58301H12.1046ZM10.0001 7.5C8.15941 7.50018 6.66727 8.99233 6.66708 10.833C6.66708 12.6165 8.06782 14.073 9.82919 14.1621L10.0001 14.167C11.7834 14.1669 13.2399 12.766 13.3292 11.0049L13.3341 10.833C13.3339 8.9923 11.8408 7.50013 10.0001 7.5ZM10.0001 9C11.0124 9.00013 11.8339 9.82072 11.8341 10.833C11.8341 11.8455 11.0125 12.6669 10.0001 12.667C8.98772 12.6668 8.16708 11.8454 8.16708 10.833C8.16727 9.82076 8.98783 9.00018 10.0001 9Z" fill="white"/>
</symbol>
<symbol id="chat-camera-line" viewBox="0 0 24 24" fill="none">
<path d="M3 9.8541C3 8.83011 3.83011 8 4.8541 8C5.55638 8 6.19839 7.60322 6.51246 6.97508L7.33333 5.33333C7.44329 5.11342 7.49827 5.00346 7.56062 4.90782C7.8859 4.40882 8.41668 4.08078 9.00848 4.01299C9.1219 4 9.24484 4 9.49071 4H14.5093C14.7552 4 14.8781 4 14.9915 4.01299C15.5833 4.08078 16.1141 4.40882 16.4394 4.90782C16.5017 5.00346 16.5567 5.11342 16.6667 5.33333L17.4875 6.97508C17.8016 7.60322 18.4436 8 19.1459 8C20.1699 8 21 8.83011 21 9.8541V14.8571C21 16.8619 21 17.8643 20.5402 18.5961C20.3004 18.9777 19.9777 19.3004 19.5961 19.5402C18.8643 20 17.8619 20 15.8571 20H8.14286C6.1381 20 5.13571 20 4.4039 19.5402C4.02229 19.3004 3.69961 18.9777 3.45983 18.5961C3 17.8643 3 16.8619 3 14.8571V9.8541Z" stroke="#1F2324" stroke-width="1.5"/>
<circle cx="12" cy="13" r="3.25" stroke="#1F2324" stroke-width="1.5"/>
</symbol>
<symbol id="chat-crown" viewBox="0 0 20 20" fill="none">
<path d="M9.83992 2.85944C9.88277 2.85637 9.9257 2.85445 9.96865 2.85367C10.6765 2.8426 10.9197 3.41551 11.253 3.92973L12.487 5.81719C12.5748 5.95192 12.6659 6.08688 12.7543 6.22678C13.0738 6.73248 13.4404 7.39324 14.1617 7.10475C14.4253 6.99934 14.6682 6.71953 14.873 6.51492L15.9877 5.40244C16.2267 5.16477 16.4496 4.91953 16.7283 4.72018C17.3269 4.29069 18.2361 4.81652 18.1939 5.53295C18.1674 5.9833 17.9918 6.57611 17.8811 7.02545L17.4704 8.73486L16.8961 11.1462C16.7612 11.7315 16.6236 12.3341 16.4613 12.9128C16.4177 13.0666 16.3253 13.1848 16.2179 13.2979C15.8849 13.6484 15.4384 13.6002 15.0001 13.5995L13.9392 13.5974L10.1638 13.598L6.37453 13.5988L5.15707 13.5997C4.68611 13.5998 4.18588 13.6714 3.81578 13.3269C3.46877 13.0038 3.42427 12.4879 3.31888 12.0368L2.94213 10.4544L2.22779 7.47307C2.09367 6.91625 1.95238 6.35713 1.83228 5.79668C1.77072 5.50936 1.80864 5.22838 1.98177 4.98231C2.13449 4.76809 2.3666 4.62391 2.62631 4.58195C3.18388 4.49432 3.48652 4.88303 3.8373 5.23164L4.94322 6.33645C5.37533 6.76822 6.06861 7.61832 6.75615 6.91848C7.01351 6.65651 7.30314 6.13893 7.50943 5.82047L8.60447 4.15221C8.92269 3.66643 9.22244 2.96666 9.83992 2.85944Z" fill="#FFC240"/>
<path d="M4.26461 15.958L4.03226 14.9703C3.95843 14.6565 4.19656 14.3558 4.51897 14.3558H15.4922C15.8152 14.3558 16.0534 14.6575 15.9786 14.9716L15.7435 15.9593C15.6898 16.1845 15.4886 16.3435 15.2571 16.3435H4.75132C4.51929 16.3435 4.31775 16.1839 4.26461 15.958Z" fill="#FFC240"/>
</symbol>
<symbol id="chat-image" viewBox="0 0 24 24" fill="none">
<path d="M2.5 6.5C2.5 4.29086 4.29086 2.5 6.5 2.5H17.5C19.7091 2.5 21.5 4.29086 21.5 6.5V17.5C21.5 19.7091 19.7091 21.5 17.5 21.5H6.5C4.29086 21.5 2.5 19.7091 2.5 17.5V6.5Z" stroke="#1F2324" stroke-width="1.5"/>
<path d="M2.5 14.4999L5.8055 11.1945C6.68783 10.3122 8.15379 10.4443 8.86406 11.4702L10.7664 14.218C11.4311 15.1781 12.7735 15.3669 13.6773 14.6275L16.0992 12.646C16.8944 11.9954 18.0533 12.0532 18.7798 12.7797L21.5 15.4999" stroke="#1F2324" stroke-width="1.5"/>
<circle cx="16.5" cy="7.5" r="1.5" fill="#1F2324"/>
</symbol>
<symbol id="chat-notification" viewBox="0 0 24 24" fill="none">
<path d="M18.6583 3.48791L9 7V21H11.5V16.5L18.7178 18.6229C19.3583 18.8113 20 18.3311 20 17.6635V4.4277C20 3.73374 19.3104 3.25075 18.6583 3.48791Z" fill="#1F2324"/>
<path d="M4 8C4 7.44772 4.44772 7 5 7H8V16H5C4.44772 16 4 15.5523 4 15V8Z" fill="#1F2324"/>
</symbol>
<symbol id="chat-pin-line" viewBox="0 0 24 24" fill="none">
<path d="M5 19L8.5 15.5" stroke="#1F2324" stroke-width="1.5" stroke-linecap="round"/>
<path d="M14.6358 3.90949C15.2888 3.47412 15.6153 3.25643 15.9711 3.29166C16.3269 3.32689 16.6044 3.60439 17.1594 4.15938L19.8406 6.84062C20.3956 7.39561 20.6731 7.67311 20.7083 8.02888C20.7436 8.38465 20.5259 8.71118 20.0905 9.36424L18.1885 12.2172C17.5952 13.1073 17.2985 13.5523 17.0642 14.0314C16.8299 14.5104 16.6607 15.0179 16.3224 16.0327L15.4331 18.7008C15.4228 18.7316 15.4177 18.747 15.4134 18.7588C15.1938 19.3662 14.4647 19.6093 13.9246 19.2551C13.9141 19.2482 13.9007 19.239 13.874 19.2205C13.7326 19.1226 13.662 19.0737 13.592 19.0247C10.238 16.6784 7.32156 13.762 4.97526 10.408C4.92634 10.338 4.8774 10.2674 4.77953 10.126C4.76104 10.0993 4.75179 10.0859 4.74489 10.0754C4.39074 9.53532 4.63379 8.80619 5.24116 8.58661C5.25298 8.58234 5.26839 8.5772 5.29921 8.56693L7.96727 7.67758C8.98213 7.33929 9.48956 7.17015 9.96862 6.93584C10.4477 6.70154 10.8927 6.40484 11.7828 5.81145L14.6358 3.90949Z" stroke="#1F2324" stroke-width="1.5"/>
</symbol>
<symbol id="chat-pin-off" viewBox="0 0 24 24" fill="none">
<path d="M5 19L8.5 15.5" stroke="#1F2324" stroke-width="1.5" stroke-linecap="round"/>
<path d="M6.22095 9.04927L5.53638 9.27876C5.52053 9.28405 5.51054 9.28799 5.50318 9.29048C5.49937 9.29176 5.49718 9.29214 5.49634 9.29243C5.34461 9.34737 5.28386 9.52952 5.37232 9.6645C5.37291 9.6654 5.37427 9.6675 5.37623 9.67036C5.38064 9.67677 5.38731 9.68605 5.39674 9.69966C5.49472 9.8412 5.54252 9.91095 5.59009 9.97896C7.88596 13.2607 10.7399 16.1148 14.0217 18.4106C14.0897 18.4581 14.1594 18.5059 14.301 18.604C14.3147 18.6134 14.3239 18.6201 14.3303 18.6245C14.3335 18.6266 14.3355 18.6279 14.3362 18.6284C14.471 18.7165 14.6532 18.6557 14.7083 18.5043C14.7085 18.5035 14.709 18.5011 14.7102 18.4975C14.7127 18.4902 14.7167 18.48 14.7219 18.4643L14.9504 17.7788L16.136 18.9643C16.1304 18.9816 16.1249 18.999 16.1194 19.0141C15.735 20.0766 14.4589 20.5017 13.5139 19.8823C13.4935 19.8689 13.47 19.8529 13.4475 19.8374C13.307 19.7401 13.234 19.6902 13.1624 19.6401C9.73659 17.2436 6.75713 14.2641 4.3606 10.8383C4.31047 10.7667 4.26058 10.6936 4.16334 10.5532C4.14783 10.5308 4.13179 10.5072 4.11842 10.4868C3.49869 9.54165 3.92374 8.26558 4.98658 7.8813C5.0018 7.8758 5.01902 7.87034 5.03638 7.8647L6.22095 9.04927ZM16.0452 2.54536C16.4173 2.58224 16.7083 2.74922 16.9524 2.93989C17.1801 3.11788 17.4257 3.36537 17.6897 3.62935L20.3713 6.31099C20.6353 6.57497 20.8829 6.82055 21.0608 7.04829C21.2514 7.29234 21.4185 7.58353 21.4553 7.95552C21.492 8.32745 21.3854 8.64567 21.2463 8.92232C21.1165 9.18057 20.9222 9.47006 20.7151 9.78071L18.8128 12.6333C18.209 13.5389 17.9459 13.9379 17.7385 14.3618C17.6798 14.482 17.6252 14.6043 17.5696 14.7417L16.4387 13.6108C16.6929 13.1107 17.0156 12.6249 17.5647 11.8012L19.467 8.94868C19.695 8.60677 19.8275 8.40552 19.9065 8.24849C19.942 8.17791 19.9544 8.13729 19.9592 8.11763C19.9611 8.1099 19.962 8.10531 19.9622 8.10396V8.102C19.9618 8.10083 19.9606 8.09643 19.9573 8.08931C19.9488 8.07113 19.9271 8.03472 19.8782 7.97212C19.77 7.83363 19.6013 7.66208 19.3108 7.37153L16.6292 4.68989C16.3386 4.39938 16.1671 4.23076 16.0286 4.12251C15.9661 4.07368 15.9297 4.05201 15.9114 4.04341C15.9044 4.04014 15.9001 4.03894 15.8987 4.03853H15.8967C15.8962 4.03857 15.892 4.03927 15.8831 4.04146C15.8635 4.04624 15.8233 4.05849 15.7522 4.09419C15.5951 4.17317 15.3941 4.3056 15.052 4.53364L12.1995 6.43599C11.3756 6.98522 10.8891 7.3068 10.3889 7.56099L9.25709 6.42915C9.3948 6.3734 9.51846 6.32107 9.63892 6.26216C10.0628 6.05483 10.4617 5.79174 11.3674 5.18794L14.22 3.2856C14.5307 3.07843 14.8201 2.88422 15.0784 2.75435C15.3551 2.61522 15.673 2.50855 16.0452 2.54536Z" fill="#1F2324"/>
<path d="M3 3L21 21" stroke="#1F2324" stroke-width="1.5" stroke-linecap="round"/>
</symbol>
<symbol id="chat-pin-on" viewBox="0 0 24 24" fill="none">
<path d="M5 19L8.5 15.5" stroke="#1F2324" stroke-width="1.5" stroke-linecap="round"/>
<path d="M14.6358 3.90949C15.2888 3.47412 15.6153 3.25643 15.9711 3.29166C16.3269 3.32689 16.6044 3.60439 17.1594 4.15938L19.8406 6.84062C20.3956 7.39561 20.6731 7.67311 20.7083 8.02888C20.7436 8.38465 20.5259 8.71118 20.0905 9.36424L18.1885 12.2172C17.5952 13.1073 17.2985 13.5523 17.0642 14.0314C16.8299 14.5104 16.6607 15.0179 16.3224 16.0327L15.4331 18.7008C15.4228 18.7316 15.4177 18.747 15.4134 18.7588C15.1938 19.3662 14.4647 19.6093 13.9246 19.2551C13.9141 19.2482 13.9007 19.239 13.874 19.2205C13.7326 19.1226 13.662 19.0737 13.592 19.0247C10.238 16.6784 7.32156 13.762 4.97526 10.408C4.92634 10.338 4.8774 10.2674 4.77953 10.126C4.76104 10.0993 4.75179 10.0859 4.74489 10.0754C4.39074 9.53532 4.63379 8.80619 5.24116 8.58661C5.25298 8.58234 5.26839 8.5772 5.29921 8.56693L7.96727 7.67758C8.98213 7.33929 9.48956 7.17015 9.96862 6.93584C10.4477 6.70154 10.8927 6.40484 11.7828 5.81145L14.6358 3.90949Z" stroke="#1F2324" stroke-width="1.5"/>
<path d="M9.5 15.5L5 9.5L5.5 8.5L11 6.5L16 3.5L20.5 8.5L18.5 11L14.5 19L9.5 15.5Z" fill="#1F2324"/>
</symbol>
<symbol id="chat-respond" viewBox="0 0 24 24" fill="none">
<path d="M12.6963 10.3096C12.9892 10.0167 13.4649 10.0167 13.7578 10.3096L18.5303 15.083C18.8232 15.3759 18.8232 15.8507 18.5303 16.1436L13.7578 20.917C13.4649 21.2099 12.9892 21.2099 12.6963 20.917C12.4034 20.6241 12.4034 20.1484 12.6963 19.8555L16.1895 16.3633H10C7.37665 16.3633 5.25 14.2366 5.25 11.6133V3.61328C5.25 3.19907 5.58579 2.86328 6 2.86328C6.41421 2.86328 6.75 3.19907 6.75 3.61328V11.6133C6.75 13.4082 8.20507 14.8633 10 14.8633H16.1895L12.6963 11.3711C12.4034 11.0782 12.4034 10.6025 12.6963 10.3096Z" fill="#1F2324"/>
</symbol>
<symbol id="chat-send-button" viewBox="0 0 32 32" fill="none">
<rect width="32" height="32" rx="16" fill="#FC7045"/>
<path d="M22.7366 11.7352L20.1127 22.2313C19.7367 23.7273 18.4566 24.3993 17.3366 24.3993C17.3286 24.3993 17.3207 24.3993 17.3207 24.3993C16.1927 24.3913 14.9047 23.7033 14.5527 22.1913L13.8647 19.2713L18.1687 14.9672C18.4807 14.6552 18.4807 14.1433 18.1687 13.8313C17.8567 13.5193 17.3446 13.5193 17.0326 13.8313L12.7286 18.1352L9.80866 17.4473C8.29666 17.0953 7.60866 15.8073 7.60066 14.6873C7.59266 13.5593 8.26467 12.2633 9.76867 11.8873L20.2647 9.26333C20.9607 9.08733 21.6887 9.28726 22.2007 9.79926C22.7127 10.3113 22.9126 11.0392 22.7366 11.7352Z" fill="white"/>
</symbol>
<symbol id="chat-title-pin" viewBox="0 0 20 20" fill="none">
<path d="M4.16634 15.8334L7.08301 12.9167" stroke="#9AA5A8" stroke-width="1.5" stroke-linecap="round"/>
<path d="M11.9688 3.40949C12.6218 2.97412 12.9484 2.75643 13.3041 2.79166C13.6599 2.82689 13.9374 3.10439 14.4924 3.65938L16.3403 5.50729C16.8953 6.06228 17.1728 6.33978 17.208 6.69555C17.2432 7.05132 17.0256 7.37785 16.5902 8.0309L15.3549 9.88384C14.7615 10.7739 14.4648 11.219 14.2305 11.698C13.9962 12.1771 13.8271 12.6845 13.4888 13.6994L12.8606 15.584C12.6801 16.1253 12.0305 16.3419 11.5614 16.0171C8.60007 13.9669 6.03274 11.3996 3.98261 8.43832C3.65781 7.96916 3.87435 7.31955 4.41568 7.13911L6.30027 6.51091C7.31514 6.17262 7.82257 6.00348 8.30163 5.76918C8.78069 5.53488 9.22574 5.23818 10.1158 4.64478L11.9688 3.40949Z" stroke="#9AA5A8" stroke-width="1.5"/>
<path d="M7.91699 12.9167L4.16699 7.91669L4.58366 7.08335L9.16699 5.41669L13.3337 2.91669L17.0837 7.08335L15.417 9.16669L12.0837 15.8334L7.91699 12.9167Z" fill="#9AA5A8"/>
</symbol>
<symbol id="chat-trash" viewBox="0 0 24 24" fill="none">
<g clip-path="url(#chat-trash--clip0-1443-2112)">
<path d="M14 11V17" stroke="#F20808" stroke-width="1.5" stroke-linecap="round" stroke-linejoin="round"/>
<path d="M10 11V17" stroke="#F20808" stroke-width="1.5" stroke-linecap="round" stroke-linejoin="round"/>
<path d="M6 7V19C6 20.1046 6.89543 21 8 21H16C17.1046 21 18 20.1046 18 19V7" stroke="#F20808" stroke-width="1.5" stroke-linecap="round" stroke-linejoin="round"/>
<path d="M4 7H20" stroke="#F20808" stroke-width="1.5" stroke-linecap="round" stroke-linejoin="round"/>
<path d="M7 7L9 3H15L17 7" stroke="#F20808" stroke-width="1.5" stroke-linecap="round" stroke-linejoin="round"/>
</g>
<defs>
<clipPath id="chat-trash--clip0-1443-2112">
<rect width="24" height="24" fill="white"/>
</clipPath>
</defs>
</symbol>
<symbol id="circle-add-friend" viewBox="0 0 24 24" fill="none">
<circle cx="9.4165" cy="8" r="2.25" stroke="#1F2324" stroke-width="1.5" stroke-linecap="round"/>
<path d="M13.401 8.625C13.633 8.22305 14.0153 7.92976 14.4636 7.80963C14.9119 7.6895 15.3896 7.75239 15.7915 7.98446C16.1935 8.21652 16.4867 8.59875 16.6069 9.04707C16.727 9.49538 16.6641 9.97305 16.432 10.375C16.2 10.7769 15.8178 11.0702 15.3694 11.1904C14.9211 11.3105 14.4435 11.2476 14.0415 11.0155C13.6396 10.7835 13.3463 10.4012 13.2261 9.95293C13.106 9.50462 13.1689 9.02695 13.401 8.625L13.401 8.625Z" stroke="#1F2324" stroke-width="1.5"/>
<path d="M9.41602 12.5L9.41602 11.75H9.41602V12.5ZM14.8213 17.5068L15.5619 17.3887L15.5619 17.3887L14.8213 17.5068ZM13.916 18.5V19.25H13.9161L13.916 18.5ZM4.01074 17.5068L3.2701 17.3887L3.2701 17.3887L4.01074 17.5068ZM9.41602 12.5L9.41601 13.25C11.2178 13.25 12.2852 13.9632 12.9546 14.8244C13.6512 15.7207 13.9539 16.8301 14.0807 17.625L14.8213 17.5068L15.5619 17.3887C15.4168 16.4787 15.0568 15.0848 14.1389 13.9038C13.1936 12.6878 11.6943 11.75 9.41602 11.75L9.41602 12.5ZM14.8213 17.5068L14.0806 17.625C14.0841 17.6463 14.0815 17.6584 14.0793 17.6653C14.0768 17.6733 14.0714 17.684 14.0602 17.6961C14.0369 17.721 13.9888 17.75 13.916 17.75L13.916 18.5L13.9161 19.25C14.8593 19.2499 15.7322 18.4565 15.5619 17.3887L14.8213 17.5068ZM13.916 18.5V17.75H4.91602V18.5V19.25H13.916V18.5ZM4.91602 18.5V17.75C4.84322 17.75 4.79515 17.7211 4.77188 17.6961C4.76059 17.684 4.75527 17.6733 4.75273 17.6653C4.75054 17.6584 4.74798 17.6463 4.75138 17.625L4.01074 17.5068L3.2701 17.3887C3.09982 18.4564 3.97263 19.25 4.91602 19.25V18.5ZM4.01074 17.5068L4.75138 17.625C4.87816 16.8301 5.18078 15.7206 5.87746 14.8244C6.54684 13.9632 7.61417 13.25 9.41602 13.25V12.5V11.75C7.13775 11.75 5.63841 12.6878 4.69316 13.9038C3.77521 15.0847 3.41525 16.4787 3.2701 17.3887L4.01074 17.5068Z" fill="#1F2324"/>
<path d="M14.9175 13.5L14.9176 12.75H14.9175V13.5ZM18.7134 17.416L19.4409 17.2338L19.4409 17.2338L18.7134 17.416ZM17.812 18.5V19.25H17.812L17.812 18.5ZM14.8228 17.5068L15.5634 17.3887L15.5634 17.3887L14.8228 17.5068ZM13.2173 13.9814L12.8154 13.3482L12.0428 13.8386L12.6753 14.4998L13.2173 13.9814ZM14.9175 13.5L14.9174 14.25C15.8468 14.2501 16.5008 14.6983 16.9954 15.3571C17.5058 16.0369 17.8123 16.9052 17.9858 17.5982L18.7134 17.416L19.4409 17.2338C19.2462 16.4565 18.8785 15.367 18.1949 14.4564C17.4954 13.5248 16.4356 12.7502 14.9176 12.75L14.9175 13.5ZM18.7134 17.416L17.9858 17.5982C17.9922 17.6238 17.9903 17.6393 17.988 17.6487C17.9854 17.6594 17.9794 17.6728 17.967 17.6875C17.9416 17.7174 17.89 17.75 17.812 17.75L17.812 18.5L17.812 19.25C18.8227 19.25 19.7194 18.3459 19.4409 17.2338L18.7134 17.416ZM17.812 18.5V17.75H13.9165V18.5V19.25H17.812V18.5ZM13.9165 18.5V19.25C14.8587 19.25 15.7338 18.4575 15.5634 17.3887L14.8228 17.5068L14.0821 17.625C14.0855 17.6461 14.0829 17.658 14.0808 17.6648C14.0783 17.6728 14.0729 17.6835 14.0615 17.6957C14.0379 17.721 13.9894 17.75 13.9165 17.75V18.5ZM14.8228 17.5068L15.5634 17.3887C15.4008 16.369 14.9646 14.7233 13.7593 13.4631L13.2173 13.9814L12.6753 14.4998C13.5708 15.4362 13.9384 16.724 14.0821 17.625L14.8228 17.5068ZM13.2173 13.9814L13.6192 14.6147C13.9703 14.3918 14.3924 14.25 14.9175 14.25V13.5V12.75C14.1004 12.75 13.4005 12.9768 12.8154 13.3482L13.2173 13.9814Z" fill="#1F2324"/>
<rect x="17.25" y="5.25" width="4.5" height="0.5" rx="0.25" stroke="#1F2324" stroke-width="0.5" stroke-linecap="round"/>
<rect x="19.75" y="3.25" width="4.5" height="0.5" rx="0.25" transform="rotate(90 19.75 3.25)" stroke="#1F2324" stroke-width="0.5" stroke-linecap="round"/>
</symbol>
<symbol id="circle-alarm-on" viewBox="0 0 24 24" fill="none">
<path d="M14.2498 17.75H9.74978V18C9.74978 19.2426 10.7571 20.25 11.9998 20.25C13.2424 20.25 14.2498 19.2426 14.2498 18V17.75ZM5.74978 13.7227C5.74972 14.0996 5.59968 14.4606 5.33376 14.7266L4.94411 15.1162C4.88175 15.1786 4.84673 15.2138 4.82106 15.2412C4.80491 15.2584 4.79834 15.2664 4.79665 15.2686C4.77449 15.2994 4.75902 15.3355 4.7527 15.374C4.75237 15.3769 4.75148 15.3873 4.75075 15.4102C4.74957 15.4478 4.74978 15.4974 4.74978 15.5859C4.74978 15.7872 4.74958 15.9074 4.75466 15.9971C4.75944 16.0812 4.7668 16.0929 4.76247 16.0801C4.7873 16.1537 4.84565 16.2122 4.9197 16.2373C4.90728 16.2332 4.91923 16.2404 5.00173 16.2451C5.09053 16.2502 5.20943 16.25 5.40896 16.25H18.5906C18.79 16.25 18.9088 16.2502 18.9978 16.2451C19.0817 16.2404 19.093 16.2329 19.0799 16.2373C19.1528 16.2127 19.2108 16.155 19.2361 16.0801C19.2378 16.0709 19.2411 16.0465 19.2439 15.9971C19.249 15.9074 19.2498 15.7872 19.2498 15.5859C19.2498 15.4975 19.249 15.4476 19.2478 15.4102C19.247 15.3863 19.2462 15.3765 19.2459 15.374C19.2393 15.3339 19.2241 15.2981 19.2029 15.2686C19.201 15.2661 19.1946 15.2584 19.1795 15.2422C19.1535 15.2145 19.118 15.1787 19.0554 15.1162L18.6658 14.7266C18.3995 14.4603 18.2498 14.0992 18.2498 13.7227V10C18.2498 6.54821 15.4516 3.74999 11.9998 3.75C8.548 3.75001 5.74978 6.54823 5.74978 10V13.7227ZM19.7498 13.6895L20.116 14.0557C20.2174 14.1571 20.3302 14.2663 20.4216 14.3936C20.5801 14.6142 20.683 14.8671 20.7263 15.1309C20.7517 15.2853 20.7498 15.4402 20.7498 15.5859C20.7498 15.9109 20.7597 16.258 20.658 16.5596C20.4837 17.0763 20.0781 17.4832 19.5593 17.6582C19.3338 17.7342 19.0829 17.748 18.8357 17.75H15.7498V18C15.7498 20.0711 14.0708 21.75 11.9998 21.75C9.92871 21.75 8.24978 20.0711 8.24978 18V17.75H5.16481C4.91757 17.748 4.66689 17.7343 4.44118 17.6582C3.9237 17.4837 3.51632 17.0775 3.34157 16.5596C3.23986 16.258 3.24978 15.9109 3.24978 15.5859C3.24978 15.4417 3.24781 15.2856 3.27321 15.1309C3.3168 14.8654 3.42041 14.6129 3.5779 14.3936C3.66919 14.2664 3.78076 14.1585 3.88356 14.0557L4.24978 13.6895V10C4.24978 5.7198 7.71958 2.25001 11.9998 2.25C16.28 2.24999 19.7498 5.71979 19.7498 10V13.6895Z" fill="#1F2324"/>
<circle cx="17.1855" cy="4.01416" r="3.5" fill="#FC7045" stroke="white"/>
</symbol>
<symbol id="circle-alarm" viewBox="0 0 24 24" fill="none">
<path d="M14.2498 17.75H9.74978V18C9.74978 19.2426 10.7571 20.25 11.9998 20.25C13.2424 20.25 14.2498 19.2426 14.2498 18V17.75ZM5.74978 13.7227C5.74972 14.0996 5.59968 14.4606 5.33376 14.7266L4.94411 15.1162C4.88175 15.1786 4.84673 15.2138 4.82106 15.2412C4.80491 15.2584 4.79834 15.2664 4.79665 15.2686C4.77449 15.2994 4.75902 15.3355 4.7527 15.374C4.75237 15.3769 4.75148 15.3873 4.75075 15.4102C4.74957 15.4478 4.74978 15.4974 4.74978 15.5859C4.74978 15.7872 4.74958 15.9074 4.75466 15.9971C4.75944 16.0812 4.7668 16.0929 4.76247 16.0801C4.7873 16.1537 4.84565 16.2122 4.9197 16.2373C4.90728 16.2332 4.91923 16.2404 5.00173 16.2451C5.09053 16.2502 5.20943 16.25 5.40896 16.25H18.5906C18.79 16.25 18.9088 16.2502 18.9978 16.2451C19.0817 16.2404 19.093 16.2329 19.0799 16.2373C19.1528 16.2127 19.2108 16.155 19.2361 16.0801C19.2378 16.0709 19.2411 16.0465 19.2439 15.9971C19.249 15.9074 19.2498 15.7872 19.2498 15.5859C19.2498 15.4975 19.249 15.4476 19.2478 15.4102C19.247 15.3863 19.2462 15.3765 19.2459 15.374C19.2393 15.3339 19.2241 15.2981 19.2029 15.2686C19.201 15.2661 19.1946 15.2584 19.1795 15.2422C19.1535 15.2145 19.118 15.1787 19.0554 15.1162L18.6658 14.7266C18.3995 14.4603 18.2498 14.0992 18.2498 13.7227V10C18.2498 6.54821 15.4516 3.74999 11.9998 3.75C8.548 3.75001 5.74978 6.54823 5.74978 10V13.7227ZM19.7498 13.6895L20.116 14.0557C20.2174 14.1571 20.3302 14.2663 20.4216 14.3936C20.5801 14.6142 20.683 14.8671 20.7263 15.1309C20.7517 15.2853 20.7498 15.4402 20.7498 15.5859C20.7498 15.9109 20.7597 16.258 20.658 16.5596C20.4837 17.0763 20.0781 17.4832 19.5593 17.6582C19.3338 17.7342 19.0829 17.748 18.8357 17.75H15.7498V18C15.7498 20.0711 14.0708 21.75 11.9998 21.75C9.92871 21.75 8.24978 20.0711 8.24978 18V17.75H5.16481C4.91757 17.748 4.66689 17.7343 4.44118 17.6582C3.9237 17.4837 3.51632 17.0775 3.34157 16.5596C3.23986 16.258 3.24978 15.9109 3.24978 15.5859C3.24978 15.4417 3.24781 15.2856 3.27321 15.1309C3.3168 14.8654 3.42041 14.6129 3.5779 14.3936C3.66919 14.2664 3.78076 14.1585 3.88356 14.0557L4.24978 13.6895V10C4.24978 5.7198 7.71958 2.25001 11.9998 2.25C16.28 2.24999 19.7498 5.71979 19.7498 10V13.6895Z" fill="#1F2324"/>
</symbol>
<symbol id="circle-close-white" viewBox="0 0 24 24" fill="none">
<path d="M17.4697 5.46973C17.7626 5.17684 18.2374 5.17685 18.5303 5.46973C18.8232 5.76262 18.8232 6.23738 18.5303 6.53027L13.0605 12L18.5303 17.4697C18.8231 17.7626 18.8232 18.2374 18.5303 18.5303C18.2374 18.8232 17.7626 18.8231 17.4697 18.5303L12 13.0605L6.53027 18.5303C6.23738 18.8232 5.76262 18.8232 5.46973 18.5303C5.17685 18.2374 5.17684 17.7626 5.46973 17.4697L10.9395 12L5.46973 6.53027C5.17683 6.23738 5.17683 5.76262 5.46973 5.46973C5.76262 5.17683 6.23738 5.17683 6.53027 5.46973L12 10.9395L17.4697 5.46973Z" fill="white"/>
</symbol>
<symbol id="circle-friend-list" viewBox="0 0 32 32" fill="none">
<circle cx="22.3336" cy="13.8751" r="3.02749" stroke="#1D1F20" stroke-width="1.5" stroke-linecap="round"/>
<path d="M15.5129 22.9601C16.101 20.602 18.5408 19.4968 20.971 19.4968H23.6691C26.0994 19.4968 28.5392 20.602 29.1273 22.9601C29.2217 23.3387 29.2978 23.7414 29.3459 24.1646C29.4083 24.7133 28.9552 25.1631 28.4029 25.1631H16.2373C15.685 25.1631 15.2319 24.7133 15.2943 24.1646C15.3424 23.7414 15.4185 23.3387 15.5129 22.9601Z" stroke="#1D1F20" stroke-width="1.5" stroke-linecap="round"/>
<circle cx="12.9998" cy="11.1969" r="4.10677" stroke="#1F2324" stroke-width="1.5" stroke-linecap="round"/>
<path d="M4.55945 21.2751C5.34799 18.9763 7.73667 17.8748 10.1669 17.8748H15.8331C18.2633 17.8748 20.652 18.9763 21.4406 21.2751C21.7302 22.1195 21.9672 23.0925 22.062 24.1603C22.1108 24.7105 21.6587 25.1599 21.1064 25.1599H4.89356C4.34127 25.1599 3.88922 24.7105 3.93804 24.1603C4.0328 23.0925 4.26977 22.1195 4.55945 21.2751Z" fill="white" stroke="#1F2324" stroke-width="1.5" stroke-linecap="round"/>
</symbol>
<symbol id="circle-list" viewBox="0 0 24 24" fill="none">
<path d="M5 7H5.01M5 12H5.01M5 17H5.01M9 7H19M9 12H19M9 17H19" stroke="#1F2324" stroke-width="1.5" stroke-linecap="round" stroke-linejoin="round"/>
</symbol>
<symbol id="circle-location-primary" viewBox="0 0 24 24" fill="none">
<path d="M12 0.75C12.4212 0.750002 12.7627 1.09147 12.7627 1.5127V2.6875C17.3145 3.05525 20.9448 6.68548 21.3125 11.2373H22.4873C22.9085 11.2373 23.25 11.5788 23.25 12C23.25 12.4212 22.9085 12.7627 22.4873 12.7627H21.3125C20.9447 17.3145 17.3145 20.9447 12.7627 21.3125V22.4873C12.7627 22.9085 12.4212 23.25 12 23.25C11.5788 23.25 11.2373 22.9085 11.2373 22.4873V21.3125C6.68548 20.9447 3.05525 17.3145 2.6875 12.7627H1.5127C1.09147 12.7627 0.750002 12.4212 0.75 12C0.75 11.5788 1.09147 11.2373 1.5127 11.2373H2.6875C3.05525 6.68548 6.68548 3.05525 11.2373 2.6875V1.5127C11.2373 1.09147 11.5788 0.75 12 0.75ZM12 4.18262C7.68235 4.18262 4.18262 7.68235 4.18262 12C4.18262 16.3176 7.68235 19.8174 12 19.8174C16.3176 19.8174 19.8174 16.3176 19.8174 12C19.8174 7.68235 16.3176 4.18262 12 4.18262ZM12 7.25C14.6234 7.25 16.75 9.37665 16.75 12C16.75 14.6234 14.6234 16.75 12 16.75C9.37665 16.75 7.25 14.6234 7.25 12C7.25 9.37665 9.37665 7.25 12 7.25ZM12 8.84961C10.2603 8.84961 8.84961 10.2603 8.84961 12C8.84961 13.7397 10.2603 15.1504 12 15.1504C13.7397 15.1504 15.1504 13.7397 15.1504 12C15.1504 10.2603 13.7397 8.84961 12 8.84961Z" fill="#FC7045"/>
</symbol>
<symbol id="circle-location" viewBox="0 0 24 24" fill="none">
<path d="M12 0.75C12.4212 0.750002 12.7627 1.09147 12.7627 1.5127V2.6875C17.3145 3.05525 20.9448 6.68548 21.3125 11.2373H22.4873C22.9085 11.2373 23.25 11.5788 23.25 12C23.25 12.4212 22.9085 12.7627 22.4873 12.7627H21.3125C20.9447 17.3145 17.3145 20.9447 12.7627 21.3125V22.4873C12.7627 22.9085 12.4212 23.25 12 23.25C11.5788 23.25 11.2373 22.9085 11.2373 22.4873V21.3125C6.68548 20.9447 3.05525 17.3145 2.6875 12.7627H1.5127C1.09147 12.7627 0.750002 12.4212 0.75 12C0.75 11.5788 1.09147 11.2373 1.5127 11.2373H2.6875C3.05525 6.68548 6.68548 3.05525 11.2373 2.6875V1.5127C11.2373 1.09147 11.5788 0.75 12 0.75ZM12 4.18262C7.68235 4.18262 4.18262 7.68235 4.18262 12C4.18262 16.3176 7.68235 19.8174 12 19.8174C16.3176 19.8174 19.8174 16.3176 19.8174 12C19.8174 7.68235 16.3176 4.18262 12 4.18262ZM12 7.25C14.6234 7.25 16.75 9.37665 16.75 12C16.75 14.6234 14.6234 16.75 12 16.75C9.37665 16.75 7.25 14.6234 7.25 12C7.25 9.37665 9.37665 7.25 12 7.25ZM12 8.84961C10.2603 8.84961 8.84961 10.2603 8.84961 12C8.84961 13.7397 10.2603 15.1504 12 15.1504C13.7397 15.1504 15.1504 13.7397 15.1504 12C15.1504 10.2603 13.7397 8.84961 12 8.84961Z" fill="#1F2324"/>
</symbol>
<symbol id="circle-plus-white" viewBox="0 0 24 24" fill="none">
<path d="M12 4.91797L12 19.082" stroke="white" stroke-width="1.5" stroke-linecap="round"/>
<path d="M19.082 12L4.91797 12" stroke="white" stroke-width="1.5" stroke-linecap="round"/>
</symbol>
<symbol id="circle-plus" viewBox="0 0 24 24" fill="none">
<path d="M12 4.91797L12 19.082" stroke="#1F2324" stroke-width="1.5" stroke-linecap="round"/>
<path d="M19.082 12L4.91797 12" stroke="#1F2324" stroke-width="1.5" stroke-linecap="round"/>
</symbol>
<symbol id="common-check" viewBox="0 0 20 20" fill="none">
<g id="common-check--icon-frame">
<g id="common-check--base">
</g>
<path id="common-check--vector-5" d="M15.5328 6.19194L9.4209 14.6115L5.25423 10.4448" stroke="var(--stroke-0, white)" stroke-width="1.5" stroke-linecap="round" stroke-linejoin="round"/>
</g>
</symbol>
<symbol id="common-clear" viewBox="0 0 12 12" fill="none">
<path d="M10.1831 0.183058C10.4271 -0.0610147 10.8228 -0.0610051 11.0668 0.183058C11.3109 0.427136 11.3109 0.82277 11.0668 1.06685L6.50874 5.62495L11.0668 10.1831C11.3109 10.4271 11.3109 10.8228 11.0668 11.0668C10.8228 11.3109 10.4271 11.3109 10.1831 11.0668L5.62495 6.50874L1.06685 11.0668C0.82277 11.3109 0.427136 11.3109 0.183058 11.0668C-0.0610051 10.8228 -0.0610147 10.4271 0.183058 10.1831L4.74116 5.62495L0.183058 1.06685C-0.0610194 0.82277 -0.0610194 0.427136 0.183058 0.183058C0.427136 -0.0610194 0.82277 -0.0610194 1.06685 0.183058L5.62495 4.74116L10.1831 0.183058Z" fill="white"/>
</symbol>
<symbol id="common-no-image-profile" viewBox="0 0 24 24" fill="none">
<circle cx="12" cy="12" r="12" fill="#ECEEEE"/>
<mask id="common-no-image-profile--no-image-profile-mask" style="mask-type:alpha" maskUnits="userSpaceOnUse" x="0" y="0" width="24" height="24">
<circle cx="12" cy="12" r="12" fill="#242424"/>
</mask>
<g mask="url(#common-no-image-profile--no-image-profile-mask)">
<ellipse cx="12" cy="23" rx="9" ry="8" fill="#B5BDBF"/>
</g>
<circle cx="12" cy="10.5" r="4" fill="#B5BDBF"/>
</symbol>
<symbol id="common-no-image" viewBox="0 0 72 72" fill="none">
<rect width="72" height="72" rx="12" fill="#ECEEEE"/>
<path d="M24.9165 28.9167C24.9165 26.7076 26.7074 24.9167 28.9165 24.9167H43.0832C45.2923 24.9167 47.0832 26.7076 47.0832 28.9167V43.0834C47.0832 45.2926 45.2923 47.0834 43.0832 47.0834H28.9165C26.7074 47.0834 24.9165 45.2926 24.9165 43.0834V28.9167Z" stroke="#B5BDBF" stroke-width="1.5"/>
<path d="M24.9165 38.9164L29.0553 34.7777C29.9377 33.8954 31.4036 34.0276 32.1139 35.0535L34.7663 38.8846C35.431 39.8446 36.7733 40.0335 37.6771 39.294L41.0157 36.5626C41.8109 35.9119 42.9698 35.9697 43.6963 36.6963L47.0832 40.0831" stroke="#B5BDBF" stroke-width="1.5"/>
<circle cx="41.25" cy="30.75" r="1.75" fill="#B5BDBF"/>
</symbol>
<symbol id="explanation-green-check" viewBox="0 0 16 16" fill="none">
<path d="M12.4265 4.95361L7.53695 11.6893L4.20361 8.35592" stroke="#63CA5A" stroke-width="1.5" stroke-linecap="round" stroke-linejoin="round"/>
</symbol>
<symbol id="map-group" viewBox="0 0 24 24" fill="none">
<path d="M15.0004 4.7999L19.2004 8.3999M4.20039 15.5999L16.0318 3.35533C17.3057 2.08143 19.3711 2.08143 20.645 3.35533C21.9189 4.62923 21.9189 6.69463 20.645 7.96853L8.40039 19.7999L2.40039 21.5999L4.20039 15.5999Z" stroke="#1F2324" stroke-width="1.5" stroke-linecap="round" stroke-linejoin="round"/>
</symbol>
<symbol id="map-location-pin" viewBox="0 0 24 24" fill="none">
<path d="M12 2.49985C13.9873 2.49985 15.8948 3.28033 17.3018 4.67172C18.7087 6.06323 19.4998 7.95248 19.5 9.9227C19.5 12.4938 18.377 14.8123 17.0488 16.659C15.7182 18.5091 14.1511 19.9275 13.1934 20.7118C12.9446 20.9154 12.7269 21.1039 12.4062 21.1942C12.1615 21.2631 11.8375 21.2631 11.5928 21.1942C11.2725 21.1039 11.0536 20.914 10.8066 20.7118C9.84882 19.9275 8.28193 18.5083 6.95117 16.6581C5.62301 14.8113 4.5 12.4936 4.5 9.9227C4.50007 7.95225 5.29119 6.06331 6.69824 4.67172C8.10514 3.28036 10.0127 2.49987 12 2.49985ZM12 6.55063C10.6193 6.55063 9.5 7.66992 9.5 9.05063C9.50012 10.4312 10.6194 11.5506 12 11.5506C13.3806 11.5506 14.4999 10.4312 14.5 9.05063C14.5 7.66992 13.3807 6.55063 12 6.55063Z" fill="#9AA5A8"/>
</symbol>
<symbol id="map-pin-no-image" viewBox="0 0 28 28" fill="none">
<path d="M2.9165 6.91674C2.9165 4.70761 4.70736 2.91675 6.9165 2.91675H21.0832C23.2923 2.91675 25.0832 4.70761 25.0832 6.91675V21.0834C25.0832 23.2926 23.2923 25.0834 21.0832 25.0834H6.9165C4.70736 25.0834 2.9165 23.2926 2.9165 21.0834V6.91674Z" stroke="#B5BDBF" stroke-width="1.5"/>
<path d="M2.9165 16.9164L7.05534 12.7777C7.93767 11.8954 9.40363 12.0276 10.1139 13.0535L12.7663 16.8846C13.431 17.8446 14.7733 18.0335 15.6771 17.294L19.0157 14.5626C19.8109 13.9119 20.9698 13.9697 21.6963 14.6963L25.0832 18.0831" stroke="#B5BDBF" stroke-width="1.5"/>
<circle cx="19.25" cy="8.75" r="1.75" fill="#B5BDBF"/>
</symbol>
<symbol id="map-question" viewBox="0 0 21 21" fill="none">
<path d="M10.35 10.35V7.95M10.35 7.95V5.55M10.35 7.95H7.95M10.35 7.95H12.75M10.037 14.9413L5.02826 19.95V14.9413H3.15C1.82452 14.9413 0.75 13.8668 0.75 12.5413V3.15C0.75 1.82452 1.82452 0.75 3.15 0.75H17.55C18.8755 0.75 19.95 1.82452 19.95 3.15V12.5413C19.95 13.8668 18.8755 14.9413 17.55 14.9413H10.037Z" stroke="#1F2324" stroke-width="1.5" stroke-linecap="round" stroke-linejoin="round"/>
</symbol>
<symbol id="meetup-location" viewBox="0 0 18 18" fill="none">
<path d="M3.75 7.44214C3.75 11.081 6.93336 14.0902 8.34239 15.2439C8.54405 15.409 8.64608 15.4926 8.79653 15.5349C8.91368 15.5679 9.0861 15.5679 9.20325 15.5349C9.35398 15.4925 9.4553 15.4098 9.65771 15.244C11.0668 14.0903 14.2499 11.0813 14.2499 7.44247C14.2499 6.06539 13.6968 4.74454 12.7123 3.77079C11.7277 2.79705 10.3924 2.25 9.00006 2.25C7.60767 2.25 6.27226 2.79713 5.28769 3.77087C4.30312 4.74462 3.75 6.06505 3.75 7.44214Z" stroke="#B5BDBF" stroke-width="1.2" stroke-linecap="round" stroke-linejoin="round"/>
<path d="M7.5 6.75C7.5 7.57843 8.17157 8.25 9 8.25C9.82843 8.25 10.5 7.57843 10.5 6.75C10.5 5.92157 9.82843 5.25 9 5.25C8.17157 5.25 7.5 5.92157 7.5 6.75Z" stroke="#B5BDBF" stroke-width="1.2" stroke-linecap="round" stroke-linejoin="round"/>
</symbol>
<symbol id="meetup-people" viewBox="0 0 18 18" fill="none">
<circle cx="9" cy="5.39746" r="3.04258" stroke="#B5BDBF" stroke-width="1.2" stroke-linecap="round"/>
<path d="M2.40343 13.8795C2.95653 11.513 5.40594 10.4062 7.83621 10.4062H10.1633C12.5936 10.4062 15.043 11.513 15.5961 13.8795C15.6697 14.1945 15.7298 14.526 15.7705 14.8717C15.8352 15.4202 15.3819 15.8701 14.8296 15.8701H3.16992C2.61764 15.8701 2.16432 15.4202 2.22898 14.8717C2.26974 14.526 2.3298 14.1945 2.40343 13.8795Z" stroke="#B5BDBF" stroke-width="1.2" stroke-linecap="round"/>
</symbol>
<symbol id="meetup-time" viewBox="0 0 18 18" fill="none">
<g clip-path="url(#meetup-time--clip0-1515-8161)">
<circle cx="9" cy="9" r="6.75" stroke="#B5BDBF" stroke-width="1.2" stroke-linecap="round" stroke-linejoin="round"/>
<path d="M8.25 6V9.75H12" stroke="#B5BDBF" stroke-width="1.2" stroke-linecap="round" stroke-linejoin="round"/>
</g>
<defs>
<clipPath id="meetup-time--clip0-1515-8161">
<rect width="18" height="18" fill="white"/>
</clipPath>
</defs>
</symbol>
<symbol id="my-bell" viewBox="0 0 24 24" fill="none">
<g id="my-bell--alarm">
<path id="my-bell--vector-stroke" d="M14.25 17.75H9.75V18C9.75 19.2426 10.7574 20.25 12 20.25C13.2426 20.25 14.25 19.2426 14.25 18V17.75ZM5.75 13.7227C5.74994 14.0996 5.5999 14.4606 5.33398 14.7266L4.94434 15.1162C4.88197 15.1786 4.84696 15.2138 4.82129 15.2412C4.80513 15.2584 4.79857 15.2664 4.79687 15.2686C4.77471 15.2994 4.75925 15.3355 4.75293 15.374C4.75259 15.3769 4.7517 15.3873 4.75098 15.4102C4.7498 15.4478 4.75 15.4974 4.75 15.5859C4.75 15.7872 4.7498 15.9074 4.75488 15.9971C4.75966 16.0812 4.76702 16.0929 4.7627 16.0801C4.78752 16.1537 4.84587 16.2122 4.91992 16.2373C4.90751 16.2332 4.91945 16.2404 5.00195 16.2451C5.09076 16.2502 5.20965 16.25 5.40918 16.25H18.5908C18.7902 16.25 18.909 16.2502 18.998 16.2451C19.0819 16.2404 19.0932 16.2329 19.0801 16.2373C19.153 16.2127 19.211 16.155 19.2363 16.0801C19.238 16.0709 19.2413 16.0465 19.2441 15.9971C19.2492 15.9074 19.25 15.7872 19.25 15.5859C19.25 15.4975 19.2493 15.4476 19.248 15.4102C19.2473 15.3863 19.2464 15.3765 19.2461 15.374C19.2395 15.3339 19.2243 15.2981 19.2031 15.2686C19.2012 15.2661 19.1949 15.2584 19.1797 15.2422C19.1537 15.2145 19.1182 15.1787 19.0557 15.1162L18.666 14.7266C18.3998 14.4603 18.2501 14.0992 18.25 13.7227V10C18.25 6.54821 15.4518 3.74999 12 3.75C8.54822 3.75001 5.75 6.54823 5.75 10V13.7227ZM19.75 13.6895L20.1162 14.0557C20.2176 14.1571 20.3305 14.2663 20.4219 14.3936C20.5803 14.6142 20.6833 14.8671 20.7266 15.1309C20.7519 15.2853 20.75 15.4402 20.75 15.5859C20.75 15.9109 20.7599 16.258 20.6582 16.5596C20.4839 17.0763 20.0783 17.4832 19.5596 17.6582C19.3341 17.7342 19.0831 17.748 18.8359 17.75H15.75V18C15.75 20.0711 14.0711 21.75 12 21.75C9.92893 21.75 8.25 20.0711 8.25 18V17.75H5.16504C4.91779 17.748 4.66711 17.7343 4.44141 17.6582C3.92392 17.4837 3.51655 17.0775 3.3418 16.5596C3.24009 16.258 3.25 15.9109 3.25 15.5859C3.25 15.4417 3.24804 15.2856 3.27344 15.1309C3.31703 14.8654 3.42064 14.6129 3.57812 14.3936C3.66942 14.2664 3.78098 14.1585 3.88379 14.0557L4.25 13.6895V10C4.25 5.7198 7.7198 2.25001 12 2.25C16.2802 2.24999 19.75 5.71979 19.75 10V13.6895Z" fill="var(--fill-0, #1F2324)"/>
</g>
</symbol>
<symbol id="my-device" viewBox="0 0 20 20" fill="none">
<g id="my-device--phone">
<path id="my-device--icon" d="M7.5 3.74997H12.5M4 3.99999V16C4 17.1046 4.89543 18 6 18H14C15.1046 18 16 17.1046 16 16V4.00001C16 2.89544 15.1046 2.00001 14 2.00001L6 1.99999C4.89543 1.99999 4 2.89542 4 3.99999Z" stroke="var(--stroke-0, #1F2324)" stroke-width="1.5" stroke-linecap="round" stroke-linejoin="round"/>
</g>
</symbol>
<symbol id="my-global" viewBox="0 0 20 20" fill="none">
<g id="my-global--global">
<circle id="my-global--ellipse-114" cx="10" cy="10" r="7.58333" stroke="var(--stroke-0, #1F2324)" stroke-width="1.5"/>
<path id="my-global--ellipse-115" d="M9.99967 2.41667C10.1872 2.41667 10.4422 2.50843 10.7526 2.83659C11.0645 3.16643 11.3801 3.68467 11.6608 4.38639C12.2204 5.78559 12.5836 7.76982 12.5837 9.99967C12.5837 12.2298 12.2205 14.2147 11.6608 15.6139C11.3802 16.3155 11.0645 16.8329 10.7526 17.1628C10.4422 17.491 10.1872 17.5837 9.99967 17.5837C9.81214 17.5836 9.55798 17.4908 9.24772 17.1628C8.9358 16.8329 8.62019 16.3156 8.33952 15.6139C7.7798 14.2146 7.41667 12.2299 7.41667 9.99967C7.4167 7.76976 7.7799 5.7856 8.33952 4.38639C8.62021 3.68467 8.93578 3.16643 9.24772 2.83659C9.55786 2.50875 9.8122 2.41677 9.99967 2.41667Z" stroke="var(--stroke-0, #1F2324)" stroke-width="1.5"/>
<path id="my-global--vector-397" d="M2.5 10H17.5" stroke="var(--stroke-0, #1F2324)" stroke-width="1.5" stroke-linecap="round"/>
</g>
</symbol>
<symbol id="my-information" viewBox="0 0 20 20" fill="none">
<g id="my-information--information">
<path id="my-information--icon" d="M10 10L10 13.75M10 7.22046V7.1875M2.5 10C2.5 5.85786 5.85787 2.5 10 2.5C14.1421 2.5 17.5 5.85787 17.5 10C17.5 14.1421 14.1421 17.5 10 17.5C5.85786 17.5 2.5 14.1421 2.5 10Z" stroke="var(--stroke-0, #1F2324)" stroke-width="1.5" stroke-linecap="round" stroke-linejoin="round"/>
</g>
</symbol>
<symbol id="my-mail" viewBox="0 0 20 20" fill="none">
<g id="my-mail--mail">
<path id="my-mail--icon" d="M3.4375 5.22365L10 9.98009L17.0312 5.22365M4.375 16.6667C3.33947 16.6667 2.5 15.7202 2.5 14.5527V6.28064C2.5 5.11312 3.33947 4.16667 4.375 4.16667H15.625C16.6605 4.16667 17.5 5.11312 17.5 6.28064V14.5527C17.5 15.7202 16.6605 16.6667 15.625 16.6667H4.375Z" stroke="var(--stroke-0, #1F2324)" stroke-width="1.5" stroke-linecap="round" stroke-linejoin="round"/>
</g>
</symbol>
<symbol id="my-pencil" viewBox="0 0 16 16" fill="none">
<g id="my-pencil--pencil">
<path id="my-pencil--icon" d="M10 3.2L12.8 5.6M2.8 10.4L10.6876 2.23695C11.5368 1.38768 12.9138 1.38768 13.763 2.23695C14.6123 3.08622 14.6123 4.46315 13.763 5.31242L5.6 13.2L1.6 14.4L2.8 10.4Z" stroke="var(--stroke-0, #9AA5A8)" stroke-width="1.5" stroke-linecap="round" stroke-linejoin="round"/>
</g>
</symbol>
<symbol id="schedule-clock" viewBox="0 0 18 18" fill="none">
<rect width="18" height="18" fill="#E6E6E6"/>
<g id="schedule-clock--236-187-180-237-143-172-235-132-140-237-138-184">
<path d="M-1391 -1099C-1391 -1100.1 -1390.1 -1101 -1389 -1101H762C763.105 -1101 764 -1100.1 764 -1099V1944C764 1945.1 763.104 1946 762 1946H-1389C-1390.1 1946 -1391 1945.1 -1391 1944V-1099Z" fill="white"/>
<path d="M-1389 -1101V-1100H762V-1101V-1102H-1389V-1101ZM764 -1099H763V1944H764H765V-1099H764ZM762 1946V1945H-1389V1946V1947H762V1946ZM-1391 1944H-1390V-1099H-1391H-1392V1944H-1391ZM-1389 1946V1945C-1389.55 1945 -1390 1944.55 -1390 1944H-1391H-1392C-1392 1945.66 -1390.66 1947 -1389 1947V1946ZM764 1944H763C763 1944.55 762.552 1945 762 1945V1946V1947C763.657 1947 765 1945.66 765 1944H764ZM762 -1101V-1100C762.552 -1100 763 -1099.55 763 -1099H764H765C765 -1100.66 763.657 -1102 762 -1102V-1101ZM-1389 -1101V-1102C-1390.66 -1102 -1392 -1100.66 -1392 -1099H-1391H-1390C-1390 -1099.55 -1389.55 -1100 -1389 -1100V-1101Z" fill="black" fill-opacity="0.1"/>
<g id="schedule-clock--schedule">
<g id="schedule-clock--frame-1597880587">
<rect x="-80" y="-39" width="343" height="94" rx="16" fill="#FAFAFA"/>
<g id="schedule-clock--frame-1597880586">
<g id="schedule-clock--frame-1597880584">
<g id="schedule-clock--clock" clip-path="url(#schedule-clock--clip0-51-145)">
<g id="schedule-clock--icon-frame">
<circle id="schedule-clock--ellipse-14" cx="9" cy="9" r="6.75" stroke="#B5BDBF" stroke-width="1.2" stroke-linecap="round" stroke-linejoin="round"/>
<path id="schedule-clock--vector" d="M8.25 6V9.75H12" stroke="#B5BDBF" stroke-width="1.2" stroke-linecap="round" stroke-linejoin="round"/>
</g>
</g>
</g>
</g>
</g>
</g>
</g>
<defs>
<clipPath id="schedule-clock--clip0-51-145">
<rect width="18" height="18" fill="white"/>
</clipPath>
</defs>
</symbol>
<symbol id="schedule-edit" viewBox="0 0 20 20" fill="none">
<rect width="20" height="20" fill="#E6E6E6"/>
<g id="schedule-edit--236-187-180-237-143-172-235-132-140-237-138-184">
<path d="M-1622 -1072C-1622 -1073.1 -1621.1 -1074 -1620 -1074H531C532.105 -1074 533 -1073.1 533 -1072V1971C533 1972.1 532.104 1973 531 1973H-1620C-1621.1 1973 -1622 1972.1 -1622 1971V-1072Z" fill="white"/>
<path d="M-1620 -1074V-1073H531V-1074V-1075H-1620V-1074ZM533 -1072H532V1971H533H534V-1072H533ZM531 1973V1972H-1620V1973V1974H531V1973ZM-1622 1971H-1621V-1072H-1622H-1623V1971H-1622ZM-1620 1973V1972C-1620.55 1972 -1621 1971.55 -1621 1971H-1622H-1623C-1623 1972.66 -1621.66 1974 -1620 1974V1973ZM533 1971H532C532 1971.55 531.552 1972 531 1972V1973V1974C532.657 1974 534 1972.66 534 1971H533ZM531 -1074V-1073C531.552 -1073 532 -1072.55 532 -1072H533H534C534 -1073.66 532.657 -1075 531 -1075V-1074ZM-1620 -1074V-1075C-1621.66 -1075 -1623 -1073.66 -1623 -1072H-1622H-1621C-1621 -1072.55 -1620.55 -1073 -1620 -1073V-1074Z" fill="black" fill-opacity="0.1"/>
<g id="schedule-edit--schedule">
<g id="schedule-edit--frame-1597880587">
<rect x="-311" y="-12" width="343" height="94" rx="16" fill="#FAFAFA"/>
<g id="schedule-edit--edit" clip-path="url(#schedule-edit--clip0-51-145)">
<g id="schedule-edit--icon-frame">
<rect id="schedule-edit--rectangle-86" x="10.0083" y="9.99927" width="0.00833333" height="0.00833333" transform="rotate(90 10.0083 9.99927)" stroke="#9AA5A8" stroke-width="2.25" stroke-linejoin="round"/>
<rect id="schedule-edit--rectangle-87" x="15.8418" y="9.99927" width="0.00833333" height="0.00833333" transform="rotate(90 15.8418 9.99927)" stroke="#9AA5A8" stroke-width="2.25" stroke-linejoin="round"/>
<rect id="schedule-edit--rectangle-88" x="4.1748" y="9.99927" width="0.00833333" height="0.00833333" transform="rotate(90 4.1748 9.99927)" stroke="#9AA5A8" stroke-width="2.25" stroke-linejoin="round"/>
</g>
</g>
</g>
</g>
</g>
<defs>
<clipPath id="schedule-edit--clip0-51-145">
<rect width="20" height="20" fill="white"/>
</clipPath>
</defs>
</symbol>
<symbol id="schedule-map-pin" viewBox="0 0 18 18" fill="none">
<path d="M3.75049 7.44214C3.75049 11.081 6.93384 14.0902 8.34288 15.2439C8.54454 15.409 8.64657 15.4926 8.79702 15.5349C8.91417 15.5679 9.08658 15.5679 9.20373 15.5349C9.35446 15.4925 9.45579 15.4098 9.6582 15.244C11.0672 14.0903 14.2504 11.0813 14.2504 7.44247C14.2504 6.06539 13.6973 4.74454 12.7128 3.77079C11.7282 2.79705 10.3929 2.25 9.00055 2.25C7.60816 2.25 6.27274 2.79713 5.28818 3.77087C4.30361 4.74462 3.75049 6.06505 3.75049 7.44214Z" stroke="#B5BDBF" stroke-width="1.2" stroke-linecap="round" stroke-linejoin="round"/>
<path d="M7.50049 6.75C7.50049 7.57843 8.17206 8.25 9.00049 8.25C9.82891 8.25 10.5005 7.57843 10.5005 6.75C10.5005 5.92157 9.82891 5.25 9.00049 5.25C8.17206 5.25 7.50049 5.92157 7.50049 6.75Z" stroke="#B5BDBF" stroke-width="1.2" stroke-linecap="round" stroke-linejoin="round"/>
</symbol>
<symbol id="schedule-more" viewBox="0 0 24 24" fill="none">
<circle cx="5" cy="12" r="1.5" fill="#1F2324"/>
<circle cx="12" cy="12" r="1.5" fill="#1F2324"/>
<circle cx="19" cy="12" r="1.5" fill="#1F2324"/>
</symbol>
<symbol id="search-bar-search" viewBox="0 0 20 20" fill="none">
<path d="M12.5 12.5L17.5 17.5M8.33333 14.1667C5.11167 14.1667 2.5 11.555 2.5 8.33333C2.5 5.11167 5.11167 2.5 8.33333 2.5C11.555 2.5 14.1667 5.11167 14.1667 8.33333C14.1667 11.555 11.555 14.1667 8.33333 14.1667Z" stroke="#9AA5A8" stroke-width="1.5" stroke-linecap="round" stroke-linejoin="round"/>
</symbol>
<symbol id="social-login-google" viewBox="0 0 20 20" fill="none">
<path fill-rule="evenodd" clip-rule="evenodd" d="M19.2 10.2171C19.2 9.53752 19.139 8.88411 19.0258 8.25684H10V11.9638H15.1576C14.9354 13.1618 14.2602 14.1767 13.2453 14.8563V17.2608H16.3424C18.1545 15.5924 19.2 13.1356 19.2 10.2171Z" fill="#4285F4"/>
<path fill-rule="evenodd" clip-rule="evenodd" d="M9.99956 19.5838C12.5871 19.5838 14.7564 18.7256 16.342 17.262L13.2448 14.8575C12.3867 15.4325 11.289 15.7722 9.99956 15.7722C7.50354 15.7722 5.39085 14.0864 4.63725 11.8213H1.43555V14.3042C3.01244 17.4363 6.25335 19.5838 9.99956 19.5838Z" fill="#34A853"/>
<path fill-rule="evenodd" clip-rule="evenodd" d="M4.63801 11.8213C4.44635 11.2463 4.33745 10.6321 4.33745 10.0004C4.33745 9.36881 4.44635 8.75461 4.63801 8.17961V5.69666H1.43631C0.787257 6.99041 0.416992 8.45404 0.416992 10.0004C0.416992 11.5468 0.787257 13.0105 1.43631 14.3042L4.63801 11.8213Z" fill="#FBBC05"/>
<path fill-rule="evenodd" clip-rule="evenodd" d="M9.99956 4.22824C11.4066 4.22824 12.6698 4.71176 13.663 5.66138L16.4117 2.91271C14.752 1.36631 12.5827 0.416687 9.99956 0.416687C6.25335 0.416687 3.01244 2.56422 1.43555 5.69623L4.63725 8.17919C5.39085 5.91404 7.50354 4.22824 9.99956 4.22824Z" fill="#EA4335"/>
</symbol>
<symbol id="social-login-kakao" viewBox="0 0 20 20" fill="none">
<g clip-path="url(#social-login-kakao--clip0-1361-2739)">
<path d="M0 10C0 4.47717 4.47717 0 10 0C15.5228 0 20 4.47717 20 10C20 15.5228 15.5228 20 10 20C4.47717 20 0 15.5228 0 10Z" fill="#FFE812"/>
<path d="M9.99967 4.58337C6.31776 4.58337 3.33301 6.93679 3.33301 9.83979C3.33301 11.7166 4.58084 13.3635 6.45788 14.2935C6.35576 14.6456 5.80167 16.5591 5.77959 16.7094C5.77959 16.7094 5.76634 16.8223 5.83947 16.8654C5.91263 16.9085 5.99863 16.875 5.99863 16.875C6.20838 16.8457 8.43088 15.2846 8.81559 15.0135C9.19988 15.0679 9.59559 15.0962 9.99967 15.0962C13.6816 15.0962 16.6663 12.7429 16.6663 9.83979C16.6663 6.93679 13.6816 4.58337 9.99967 4.58337Z" fill="#381F1F"/>
<path d="M7.29883 8.26929C7.50695 8.26929 7.67676 8.43862 7.67676 8.64624C7.67656 8.8537 7.50679 9.02222 7.29883 9.02222H6.69922V11.3074C6.69922 11.5099 6.52651 11.6745 6.31445 11.6746C6.10233 11.6746 5.92969 11.51 5.92969 11.3074V9.02222H5.3291C5.12131 9.02197 4.95235 8.85354 4.95215 8.64624C4.95215 8.43877 5.12123 8.26954 5.3291 8.26929H7.29883ZM8.58984 8.26929C8.84088 8.27505 9.03753 8.46473 9.10254 8.64917L10.0225 11.0701C10.1393 11.4333 10.0376 11.5682 9.93164 11.6169C9.85489 11.6519 9.7709 11.6697 9.68652 11.6697C9.52632 11.6696 9.40417 11.6044 9.36719 11.4998L9.17676 11.0017L8.00391 11.0007L7.8125 11.4998C7.77563 11.6043 7.65351 11.6697 7.49316 11.6697C7.40895 11.6698 7.32561 11.6519 7.24902 11.6169C7.14298 11.568 7.04043 11.4328 7.15723 11.0701L8.07715 8.64917C8.14198 8.465 8.3393 8.275 8.58984 8.26929ZM12.7783 8.26929C12.9903 8.26945 13.1631 8.44203 13.1631 8.65405V9.48022L14.2354 8.40796C14.2905 8.35275 14.3669 8.32202 14.4492 8.32202C14.5452 8.32207 14.6417 8.36319 14.7139 8.4353C14.7812 8.50264 14.8216 8.58953 14.8271 8.67944C14.8327 8.7701 14.8024 8.85356 14.7422 8.91382L13.8652 9.78979L14.8125 11.0437C14.8431 11.084 14.8653 11.1305 14.8779 11.1794C14.8906 11.2282 14.8929 11.279 14.8857 11.3289C14.8789 11.3788 14.8624 11.427 14.8369 11.4705C14.8113 11.514 14.7767 11.5525 14.7363 11.5828C14.67 11.6331 14.5891 11.66 14.5059 11.6599C14.4464 11.6602 14.3872 11.6473 14.334 11.6208C14.2806 11.5943 14.2339 11.5552 14.1982 11.5076L13.2959 10.3123L13.1631 10.446V11.2849C13.163 11.3869 13.1218 11.4843 13.0498 11.5564C12.9777 11.6285 12.8802 11.6694 12.7783 11.6697C12.5662 11.6697 12.3936 11.497 12.3936 11.2849V8.65405C12.3936 8.44193 12.5662 8.26929 12.7783 8.26929ZM10.665 8.26929C10.8815 8.26929 11.0576 8.44193 11.0576 8.65405V10.9138H11.875C12.0783 10.9138 12.2441 11.072 12.2441 11.2664C12.244 11.4606 12.0782 11.6189 11.875 11.6189H10.6416C10.4384 11.6189 10.2726 11.4606 10.2725 11.2664V8.65405C10.2725 8.442 10.4486 8.26941 10.665 8.26929ZM8.20605 10.3201H8.97363L8.58984 9.22827L8.20605 10.3201Z" fill="#FFE812"/>
</g>
<defs>
<clipPath id="social-login-kakao--clip0-1361-2739">
<rect width="20" height="20" fill="white"/>
</clipPath>
</defs>
</symbol>
<symbol id="tab-bar-chat-fill" viewBox="0 0 24 24" fill="none">
<path d="M17.3672 2.11328C18.6403 1.79275 19.9758 2.16149 20.9072 3.09277C21.8383 4.02391 22.2069 5.35884 21.8867 6.63184L21.8877 6.63281L18.9277 18.4717V18.4736C18.353 20.7601 16.4592 21.8589 14.75 21.9873L14.4102 22H14.3828C12.5869 21.9872 10.4548 20.8779 9.87891 18.4053L9.33008 16.0771L10.4941 14.7861L15.3486 9.93066C15.7004 9.57874 15.7005 9.00227 15.3486 8.65039C15.0746 8.37641 14.6645 8.31608 14.3301 8.46875C14.3272 8.47008 14.3242 8.4713 14.3213 8.47266C14.2767 8.49358 14.2336 8.51832 14.1924 8.54688C14.1905 8.54821 14.1884 8.54943 14.1865 8.55078C14.1449 8.58005 14.1055 8.6133 14.0684 8.65039L9.21289 13.5049L7.92188 14.668L5.59277 14.1201C3.12448 13.5436 2.01286 11.4154 2 9.62695C1.98724 7.82828 3.07171 5.68648 5.52832 5.07227L17.3672 2.11328ZM14.6494 20.5625L14.8604 20.5391C14.863 20.5387 14.8656 20.5375 14.8682 20.5371C14.795 20.5475 14.7221 20.5571 14.6494 20.5625Z" fill="#1F2324"/>
</symbol>
<symbol id="tab-bar-chat-line" viewBox="0 0 24 24" fill="none">
<path d="M17.3673 2.11348C18.6405 1.79293 19.9759 2.16147 20.9073 3.09287C21.8384 4.02402 22.2069 5.35891 21.8867 6.63192L21.8876 6.63284L18.928 18.4721V18.474C18.3534 20.7605 16.4593 21.8585 14.75 21.987L14.4105 22H14.3826C12.5867 21.9873 10.4549 20.8779 9.87904 18.4052L9.0624 14.9368L8.88568 14.8959L5.59218 14.1202C3.12376 13.5437 2.01292 11.4153 2.00011 9.62685C1.98735 7.82814 3.0713 5.68631 5.528 5.07213L17.3673 2.11348ZM5.874 6.45799C4.17769 6.88218 3.41973 8.34431 3.42875 9.61661C3.4378 10.8799 4.21411 12.3326 5.91958 12.7297L9.21308 13.5054L14.0682 8.65117C14.4202 8.29932 14.9971 8.29929 15.349 8.65117C15.7009 9.00309 15.7009 9.57999 15.349 9.93192L10.4948 14.7871L11.2705 18.0805C11.6427 19.6793 12.9426 20.4611 14.1519 20.5602L14.3928 20.5714H14.4105L14.6495 20.5621C15.7707 20.4785 16.9726 19.8068 17.451 18.4312L17.5422 18.1261L20.5018 6.28685C20.6879 5.55076 20.5014 4.78262 20.0014 4.21365L19.8972 4.10297C19.3197 3.52544 18.4984 3.29988 17.7133 3.4984L5.874 6.45799Z" fill="#1F2324"/>
</symbol>
<symbol id="tab-bar-home-fill" viewBox="0 0 24 24" fill="none">
<path d="M20.0402 6.81994L14.2802 2.78994C12.7102 1.68994 10.3002 1.74994 8.79023 2.91994L3.78023 6.82994C2.78023 7.60994 1.99023 9.20994 1.99023 10.4699V17.3699C1.99023 19.9199 4.06023 21.9999 6.61023 21.9999H17.3902C19.9402 21.9999 22.0102 19.9299 22.0102 17.3799V10.5999C22.0102 9.24994 21.1402 7.58994 20.0402 6.81994ZM12.7502 17.9999C12.7502 18.4099 12.4102 18.7499 12.0002 18.7499C11.5902 18.7499 11.2502 18.4099 11.2502 17.9999V14.9999C11.2502 14.5899 11.5902 14.2499 12.0002 14.2499C12.4102 14.2499 12.7502 14.5899 12.7502 14.9999V17.9999Z" fill="#1F2324"/>
</symbol>
<symbol id="tab-bar-home-line" viewBox="0 0 24 24" fill="none">
<path d="M9.02 2.83992L3.63 7.03992C2.73 7.73992 2 9.22992 2 10.3599V17.7699C2 20.0899 3.89 21.9899 6.21 21.9899H17.79C20.11 21.9899 22 20.0899 22 17.7799V10.4999C22 9.28992 21.19 7.73992 20.2 7.04992L14.02 2.71992C12.62 1.73992 10.37 1.78992 9.02 2.83992Z" stroke="#1F2324" stroke-width="1.5" stroke-linecap="round" stroke-linejoin="round"/>
<path d="M12 17.99V14.99" stroke="#1F2324" stroke-width="1.5" stroke-linecap="round" stroke-linejoin="round"/>
</symbol>
<symbol id="tab-bar-my-fill" viewBox="0 0 24 24" fill="none">
<circle cx="11.9998" cy="7.19686" r="4.10677" fill="#1F2324" stroke="#1F2324" stroke-width="1.5" stroke-linecap="round"/>
<path d="M3.55945 17.2751C4.34799 14.9763 6.73667 13.8748 9.16694 13.8748H14.8331C17.2633 13.8748 19.652 14.9763 20.4406 17.2751C20.7302 18.1195 20.9672 19.0925 21.062 20.1603C21.1108 20.7105 20.6587 21.1599 20.1064 21.1599H3.89356C3.34127 21.1599 2.88922 20.7105 2.93804 20.1603C3.0328 19.0925 3.26977 18.1195 3.55945 17.2751Z" fill="#1F2324" stroke="#1F2324" stroke-width="1.5" stroke-linecap="round"/>
</symbol>
<symbol id="tab-bar-my-line" viewBox="0 0 24 24" fill="none">
<circle cx="11.9998" cy="7.19686" r="4.10677" stroke="#1D1F20" stroke-width="1.5" stroke-linecap="round"/>
<path d="M3.55945 17.2751C4.34799 14.9763 6.73667 13.8748 9.16694 13.8748H14.8331C17.2633 13.8748 19.652 14.9763 20.4406 17.2751C20.7302 18.1195 20.9672 19.0925 21.062 20.1603C21.1108 20.7105 20.6587 21.1599 20.1064 21.1599H3.89356C3.34127 21.1599 2.88922 20.7105 2.93804 20.1603C3.0328 19.0925 3.26977 18.1195 3.55945 17.2751Z" stroke="#1D1F20" stroke-width="1.5" stroke-linecap="round"/>
</symbol>
<symbol id="tab-bar-question-fill" viewBox="0 0 24 24" fill="none">
<g clip-path="url(#tab-bar-question-fill--clip0-1841-12473)">
<path d="M12.5 2.25C17.8848 2.25 22.25 6.61522 22.25 12C22.25 17.3848 17.8848 21.75 12.5 21.75C10.9852 21.75 9.54921 21.4039 8.26855 20.7861L3.65039 21.7344C3.40353 21.7849 3.14791 21.7085 2.96973 21.5303C2.79154 21.3521 2.71507 21.0965 2.76562 20.8496L3.71289 16.2305C3.09544 14.9501 2.75 13.5144 2.75 12C2.75 6.61522 7.11522 2.25 12.5 2.25Z" fill="#1F2324"/>
<path d="M12.3926 14.6123C12.8067 14.6123 13.1425 14.9482 13.1426 15.3623V15.4463C13.1426 15.8605 12.8068 16.1963 12.3926 16.1963C11.9785 16.1962 11.6426 15.8604 11.6426 15.4463V15.3623C11.6427 14.9483 11.9785 14.6124 12.3926 14.6123ZM12.3926 7.25C14.0057 7.25 15.2849 8.58219 15.2852 10.1904C15.2852 11.7989 14.0058 13.1318 12.3926 13.1318C11.9785 13.1317 11.6427 12.7959 11.6426 12.3818C11.6426 11.9677 11.9785 11.632 12.3926 11.6318C13.1462 11.6318 13.7852 11.0019 13.7852 10.1904C13.7849 9.37911 13.1461 8.75 12.3926 8.75C11.6392 8.75013 11.0002 9.37919 11 10.1904C11 10.6046 10.6642 10.9404 10.25 10.9404C9.83579 10.9404 9.5 10.6046 9.5 10.1904C9.50022 8.58227 10.7796 7.25013 12.3926 7.25Z" fill="white"/>
</g>
<defs>
<clipPath id="tab-bar-question-fill--clip0-1841-12473">
<rect width="24" height="24" fill="white"/>
</clipPath>
</defs>
</symbol>
<symbol id="tab-bar-question-line" viewBox="0 0 24 24" fill="none">
<g clip-path="url(#tab-bar-question-line--clip0-1841-12132)">
<path d="M12.5 21C17.4706 21 21.5 16.9706 21.5 12C21.5 7.02944 17.4706 3 12.5 3C7.52944 3 3.5 7.02944 3.5 12C3.5 13.4876 3.86093 14.891 4.5 16.1272L3.5 21L8.3728 20C9.60904 20.6391 11.0124 21 12.5 21Z" stroke="#1F2324" stroke-width="1.5" stroke-linecap="round" stroke-linejoin="round"/>
<path d="M10.25 10.1908C10.25 8.98087 11.2094 8 12.3928 8C13.5762 8 14.5356 8.98087 14.5356 10.1908C14.5356 11.4008 13.5762 12.3817 12.3928 12.3817M12.3928 15.4467V15.3625" stroke="#1F2324" stroke-width="1.5" stroke-linecap="round" stroke-linejoin="round"/>
</g>
<defs>
<clipPath id="tab-bar-question-line--clip0-1841-12132">
<rect width="24" height="24" fill="white"/>
</clipPath>
</defs>
</symbol>
<symbol id="write-calendar-200" viewBox="0 0 20 20" fill="none">
<rect x="2.5" y="5" width="15" height="12.5" rx="2" stroke="#D0D6D7" stroke-width="1.5"/>
<path d="M2.5 8.33333C2.5 7.08718 2.5 6.4641 2.76795 6C2.94349 5.69596 3.19596 5.44349 3.5 5.26795C3.9641 5 4.58718 5 5.83333 5H14.1667C15.4128 5 16.0359 5 16.5 5.26795C16.804 5.44349 17.0565 5.69596 17.2321 6C17.5 6.4641 17.5 7.08718 17.5 8.33333V8.33333H2.5V8.33333Z" fill="#D0D6D7"/>
<path d="M5.83301 2.5L5.83301 5" stroke="#D0D6D7" stroke-width="1.5" stroke-linecap="round"/>
<path d="M14.167 2.5L14.167 5" stroke="#D0D6D7" stroke-width="1.5" stroke-linecap="round"/>
</symbol>
<symbol id="write-calendar-700" viewBox="0 0 20 20" fill="none">
<rect x="2.5" y="5" width="15" height="12.5" rx="2" stroke="#4E585A" stroke-width="1.5"/>
<path d="M2.5 8.33333C2.5 7.08718 2.5 6.4641 2.76795 6C2.94349 5.69596 3.19596 5.44349 3.5 5.26795C3.9641 5 4.58718 5 5.83333 5H14.1667C15.4128 5 16.0359 5 16.5 5.26795C16.804 5.44349 17.0565 5.69596 17.2321 6C17.5 6.4641 17.5 7.08718 17.5 8.33333H2.5Z" fill="#4E585A"/>
<path d="M5.83301 2.5L5.83301 5" stroke="#4E585A" stroke-width="1.5" stroke-linecap="round"/>
<path d="M14.167 2.5L14.167 5" stroke="#4E585A" stroke-width="1.5" stroke-linecap="round"/>
</symbol>
<symbol id="write-clock-200" viewBox="0 0 20 20" fill="none">
<g clip-path="url(#write-clock-200--clip0-1782-10076)">
<circle cx="10" cy="10" r="7.5" stroke="#D0D6D7" stroke-width="1.5" stroke-linecap="round" stroke-linejoin="round"/>
<path d="M9.16699 6.66669V10.8334H13.3337" stroke="#D0D6D7" stroke-width="1.5" stroke-linecap="round" stroke-linejoin="round"/>
</g>
<defs>
<clipPath id="write-clock-200--clip0-1782-10076">
<rect width="20" height="20" fill="white"/>
</clipPath>
</defs>
</symbol>
<symbol id="write-clock-700" viewBox="0 0 20 20" fill="none">
<circle cx="10" cy="10" r="7.5" stroke="#4E585A" stroke-width="1.5" stroke-linecap="round" stroke-linejoin="round"/>
<path d="M9.16699 6.66663V10.8333H13.3337" stroke="#4E585A" stroke-width="1.5" stroke-linecap="round" stroke-linejoin="round"/>
</symbol>
<symbol id="write-location-200" viewBox="0 0 20 20" fill="none">
<path d="M4.16699 8.26904C4.16699 12.3122 7.70405 15.6558 9.26965 16.9377C9.49371 17.1211 9.60709 17.214 9.77425 17.261C9.90441 17.2977 10.096 17.2977 10.2262 17.261C10.3936 17.2139 10.5062 17.122 10.7311 16.9378C12.2967 15.6559 15.8336 12.3126 15.8336 8.26941C15.8336 6.73932 15.219 5.27171 14.1251 4.18977C13.0311 3.10783 11.5475 2.5 10.0004 2.5C8.4533 2.5 6.9695 3.10792 5.87554 4.18986C4.78157 5.2718 4.16699 6.73895 4.16699 8.26904Z" stroke="#D0D6D7" stroke-width="1.5" stroke-linecap="round" stroke-linejoin="round"/>
<path d="M8.33366 7.5C8.33366 8.42047 9.07985 9.16667 10.0003 9.16667C10.9208 9.16667 11.667 8.42047 11.667 7.5C11.667 6.57953 10.9208 5.83333 10.0003 5.83333C9.07985 5.83333 8.33366 6.57953 8.33366 7.5Z" stroke="#D0D6D7" stroke-width="1.5" stroke-linecap="round" stroke-linejoin="round"/>
</symbol>
<symbol id="write-location-700" viewBox="0 0 20 20" fill="none">
<path d="M4.16699 8.26904C4.16699 12.3122 7.70405 15.6558 9.26965 16.9377C9.49371 17.1211 9.60709 17.214 9.77425 17.261C9.90441 17.2977 10.096 17.2977 10.2262 17.261C10.3936 17.2139 10.5062 17.122 10.7311 16.9378C12.2967 15.6559 15.8336 12.3126 15.8336 8.26941C15.8336 6.73932 15.219 5.27171 14.1251 4.18977C13.0311 3.10783 11.5475 2.5 10.0004 2.5C8.4533 2.5 6.9695 3.10792 5.87554 4.18986C4.78157 5.2718 4.16699 6.73895 4.16699 8.26904Z" stroke="#4E585A" stroke-width="1.5" stroke-linecap="round" stroke-linejoin="round"/>
<path d="M8.33366 7.5C8.33366 8.42047 9.07985 9.16667 10.0003 9.16667C10.9208 9.16667 11.667 8.42047 11.667 7.5C11.667 6.57953 10.9208 5.83333 10.0003 5.83333C9.07985 5.83333 8.33366 6.57953 8.33366 7.5Z" stroke="#4E585A" stroke-width="1.5" stroke-linecap="round" stroke-linejoin="round"/>
</symbol>
<symbol id="write-location-list" viewBox="0 0 24 24" fill="none">
<path d="M12 2.49976C13.9873 2.49976 15.8948 3.28024 17.3018 4.67163C18.7087 6.06314 19.4998 7.95239 19.5 9.92261C19.5 12.4937 18.377 14.8123 17.0488 16.6589C15.7182 18.509 14.1511 19.9274 13.1934 20.7117C12.9446 20.9153 12.7269 21.1038 12.4062 21.1941C12.1615 21.263 11.8375 21.263 11.5928 21.1941C11.2725 21.1038 11.0536 20.9139 10.8066 20.7117C9.84882 19.9274 8.28193 18.5082 6.95117 16.658C5.62301 14.8112 4.5 12.4936 4.5 9.92261C4.50007 7.95215 5.29119 6.06322 6.69824 4.67163C8.10514 3.28027 10.0127 2.49978 12 2.49976ZM12 6.55054C10.6193 6.55054 9.5 7.66983 9.5 9.05054C9.50012 10.4311 10.6194 11.5505 12 11.5505C13.3806 11.5505 14.4999 10.4311 14.5 9.05054C14.5 7.66983 13.3807 6.55054 12 6.55054Z" fill="#9AA5A8"/>
</symbol>
<symbol id="write-location-plus" viewBox="0 0 24 24" fill="none">
<path d="M12 4.91797L12 19.082" stroke="#9AA5A8" stroke-width="1.5" stroke-linecap="round"/>
<path d="M19.082 12L4.91797 12" stroke="#9AA5A8" stroke-width="1.5" stroke-linecap="round"/>
</symbol>
<symbol id="write-photo" viewBox="0 0 20 20" fill="none">
<path d="M2.5 8.21173C2.5 7.3584 3.19176 6.66665 4.04508 6.66665C4.63032 6.66665 5.16533 6.33599 5.42705 5.81254L6.11111 4.44442C6.11378 4.43908 6.11512 4.43641 6.11637 4.43393C6.45523 3.76087 7.14364 3.33541 7.89719 3.33332C7.89996 3.33331 7.90295 3.33331 7.90893 3.33331H12.0911C12.0971 3.33331 12.1 3.33331 12.1028 3.33332C12.8564 3.33541 13.5448 3.76087 13.8836 4.43393C13.8849 4.43641 13.8862 4.43908 13.8889 4.44442L14.5729 5.81254C14.8347 6.33599 15.3697 6.66665 15.9549 6.66665C16.8082 6.66665 17.5 7.3584 17.5 8.21173V12.3809C17.5 13.5779 17.5 14.1764 17.3316 14.6575C17.0301 15.5192 16.3526 16.1968 15.4908 16.4983C15.0097 16.6666 14.4112 16.6666 13.2143 16.6666H6.78571C5.58876 16.6666 4.99028 16.6666 4.50916 16.4983C3.64742 16.1968 2.96989 15.5192 2.66835 14.6575C2.5 14.1764 2.5 13.5779 2.5 12.3809V8.21173Z" stroke="#D0D6D7" stroke-width="1.5"/>
<circle cx="10.0003" cy="10.8333" r="2.58333" stroke="#D0D6D7" stroke-width="1.5"/>
</symbol>
</svg>
