<svg width="24" height="24" viewBox="0 0 24 24" fill="none" xmlns="http://www.w3.org/2000/svg">
<path d="M12 2.49985C13.9873 2.49985 15.8948 3.28033 17.3018 4.67172C18.7087 6.06323 19.4998 7.95248 19.5 9.9227C19.5 12.4938 18.377 14.8123 17.0488 16.659C15.7182 18.5091 14.1511 19.9275 13.1934 20.7118C12.9446 20.9154 12.7269 21.1039 12.4062 21.1942C12.1615 21.2631 11.8375 21.2631 11.5928 21.1942C11.2725 21.1039 11.0536 20.914 10.8066 20.7118C9.84882 19.9275 8.28193 18.5083 6.95117 16.6581C5.62301 14.8113 4.5 12.4936 4.5 9.9227C4.50007 7.95225 5.29119 6.06331 6.69824 4.67172C8.10514 3.28036 10.0127 2.49987 12 2.49985ZM12 6.55063C10.6193 6.55063 9.5 7.66992 9.5 9.05063C9.50012 10.4312 10.6194 11.5506 12 11.5506C13.3806 11.5506 14.4999 10.4312 14.5 9.05063C14.5 7.66992 13.3807 6.55063 12 6.55063Z" fill="#9AA5A8"/>
</svg>
