<svg width="28" height="28" viewBox="0 0 28 28" fill="none" xmlns="http://www.w3.org/2000/svg">
<path d="M2.9165 6.91674C2.9165 4.70761 4.70736 2.91675 6.9165 2.91675H21.0832C23.2923 2.91675 25.0832 4.70761 25.0832 6.91675V21.0834C25.0832 23.2926 23.2923 25.0834 21.0832 25.0834H6.9165C4.70736 25.0834 2.9165 23.2926 2.9165 21.0834V6.91674Z" stroke="#B5BDBF" stroke-width="1.5"/>
<path d="M2.9165 16.9164L7.05534 12.7777C7.93767 11.8954 9.40363 12.0276 10.1139 13.0535L12.7663 16.8846C13.431 17.8446 14.7733 18.0335 15.6771 17.294L19.0157 14.5626C19.8109 13.9119 20.9698 13.9697 21.6963 14.6963L25.0832 18.0831" stroke="#B5BDBF" stroke-width="1.5"/>
<circle cx="19.25" cy="8.75" r="1.75" fill="#B5BDBF"/>
</svg>
