<svg width="24" height="24" viewBox="0 0 24 24" fill="none" xmlns="http://www.w3.org/2000/svg">
<g transform="translate(1.25 1.25)">
<path id="Subtract" d="M11.3818 0.750001V1.01328e-06V0.750001ZM12.2129 0.820314L12.4889 0.122959L12.4886 0.122845L12.2129 0.820314ZM12.7334 1.29199L13.4001 0.948378L13.4 0.948304L12.7334 1.29199ZM12.8857 2.11133L13.632 2.03681L12.8857 2.11133ZM13.1807 3.56836L12.5843 4.02313L12.5844 4.02332L13.1807 3.56836ZM14.1094 3.95313L14.2093 4.69643L14.2096 4.6964L14.1094 3.95313ZM15.3477 3.13086L14.8728 2.55035L15.3477 3.13086ZM16.0361 2.65918L15.8082 1.94466L15.8081 1.94468L16.0361 2.65918ZM16.7373 2.69434L17.0354 2.00614L17.0353 2.0061L16.7373 2.69434ZM17.375 3.23242L16.8447 3.76275L17.375 3.23242ZM18.2676 4.125L18.7979 3.59467L18.2676 4.125ZM18.8057 4.7627L19.494 4.46478L19.4938 4.46453L18.8057 4.7627ZM18.8408 5.46387L19.5552 5.69224L19.5553 5.69191L18.8408 5.46387ZM18.3682 6.15137L18.9485 6.62643L18.3682 6.15137ZM17.5469 7.38965L16.8037 7.28889L16.8036 7.2895L17.5469 7.38965ZM17.9316 8.31836L17.4767 8.91462L17.4768 8.91473L17.9316 8.31836ZM19.3887 8.61328L19.4634 7.86701L19.3887 8.61328ZM20.209 8.7666L20.5533 8.10029L20.5529 8.10013L20.209 8.7666ZM20.6797 9.28711L21.3771 9.01122L21.3771 9.0112L20.6797 9.28711ZM20.75 10.1182H21.5H20.75ZM20.75 11.3818H21.5H20.75ZM20.6797 12.2129L21.377 12.4889L21.3772 12.4885L20.6797 12.2129ZM20.208 12.7334L20.5516 13.4001L20.5516 13.4L20.208 12.7334ZM19.3887 12.8857L19.4632 13.632L19.3887 12.8857ZM17.9326 13.1807L17.478 12.5842L17.4779 12.5842L17.9326 13.1807ZM17.5479 14.1094L16.8046 14.2096L16.8046 14.2096L17.5479 14.1094ZM18.3691 15.3477L18.9496 14.8727L18.3691 15.3477ZM18.8408 16.0342L19.5552 15.8058L19.5551 15.8054L18.8408 16.0342ZM18.8057 16.7363L19.4938 17.0346L19.4939 17.0343L18.8057 16.7363ZM16.7373 18.8047L17.0354 19.4929L17.0354 19.4929L16.7373 18.8047ZM16.0361 18.8398L15.8081 19.5543L15.8082 19.5544L16.0361 18.8398ZM15.3477 18.3682L15.8225 17.7877L15.3477 18.3682ZM14.1084 17.5459L14.2081 16.8026L14.2078 16.8025L14.1084 17.5459ZM13.1807 17.9307L12.5844 17.4757L12.5844 17.4757L13.1807 17.9307ZM12.8857 19.3877L12.1395 19.3132L12.8857 19.3877ZM12.7334 20.208L13.3999 20.5518L13.4001 20.5515L12.7334 20.208ZM12.2129 20.6797L12.4888 21.3771L12.4889 21.377L12.2129 20.6797ZM10.1182 20.75V21.5V20.75ZM9.28711 20.6797L9.0112 21.3771L9.01122 21.3771L9.28711 20.6797ZM8.7666 20.209L8.10013 20.5529L8.10029 20.5533L8.7666 20.209ZM8.61328 19.3887L7.86701 19.4634L8.61328 19.3887ZM8.31836 17.9316L8.91473 17.4768L8.91462 17.4767L8.31836 17.9316ZM7.38965 17.5469L7.2895 16.8036L7.28889 16.8037L7.38965 17.5469ZM6.15137 18.3682L6.62643 18.9485L6.15137 18.3682ZM5.46387 18.8408L5.69191 19.5553L5.69224 19.5552L5.46387 18.8408ZM4.7627 18.8057L4.46453 19.4938L4.46478 19.494L4.7627 18.8057ZM3.23242 17.375L2.70209 17.9053L3.23242 17.375ZM2.69434 16.7373L2.0061 17.0353L2.00614 17.0354L2.69434 16.7373ZM2.65918 16.0361L1.94468 15.8081L1.94466 15.8082L2.65918 16.0361ZM3.13086 15.3477L2.55035 14.8728L3.13086 15.3477ZM3.95313 14.1094L4.6964 14.2096L4.69643 14.2093L3.95313 14.1094ZM3.56836 13.1807L4.02332 12.5844L4.02313 12.5843L3.56836 13.1807ZM2.11133 12.8857L2.03681 13.632L2.11133 12.8857ZM1.29199 12.7334L0.948304 13.4L0.948378 13.4001L1.29199 12.7334ZM0.820314 12.2129L0.122845 12.4886L0.122959 12.4889L0.820314 12.2129ZM0.750001 11.3818H1.07288e-06H0.750001ZM0.750001 10.1182H1.07288e-06H0.750001ZM0.820314 9.28711L0.122905 9.01121L0.12288 9.01127L0.820314 9.28711ZM1.29102 8.7666L0.947088 8.10011L0.946735 8.10029L1.29102 8.7666ZM2.11133 8.61328L2.03663 7.86701L2.11133 8.61328ZM3.56836 8.31836L4.02336 8.91458L4.02348 8.91449L3.56836 8.31836ZM3.95313 7.39063L4.69647 7.29091L4.69643 7.29066L3.95313 7.39063ZM3.13086 6.15137L2.55042 6.62633V6.62633L3.13086 6.15137ZM2.65918 5.46387L1.94467 5.69186L1.94475 5.69208L2.65918 5.46387ZM2.69434 4.7627L2.00614 4.46456L2.00609 4.46468L2.69434 4.7627ZM4.7627 2.69434L4.46458 2.00613L4.46457 2.00614L4.7627 2.69434ZM5.46387 2.65918L5.69193 1.9447L5.69181 1.94466L5.46387 2.65918ZM6.15234 3.13086L5.67749 3.71139L6.15234 3.13086ZM7.39063 3.95215L7.29076 4.69547L7.29086 4.69548L7.39063 3.95215ZM8.31836 3.56738L8.91459 4.02237L8.91469 4.02224L8.31836 3.56738ZM8.61328 2.11133L9.35955 2.18604L8.61328 2.11133ZM8.7666 1.29102L8.1003 0.946729L8.10009 0.947121L8.7666 1.29102ZM9.28711 0.820314L9.01132 0.12286L9.01122 0.1229L9.28711 0.820314ZM11.3818 0.750001V1.5C11.6094 1.5 11.7437 1.50046 11.844 1.5072C11.9369 1.51345 11.9497 1.52275 11.9371 1.51778L12.2129 0.820314L12.4886 0.122845C12.2989 0.047841 12.1141 0.0219854 11.9447 0.0105869C11.7826 -0.000316918 11.59 1.01328e-06 11.3818 1.01328e-06V0.750001ZM12.2129 0.820314L11.9369 1.51767C11.9925 1.5397 12.0388 1.58139 12.0668 1.63568L12.7334 1.29199L13.4 0.948304C13.2063 0.572594 12.8831 0.278977 12.4889 0.122959L12.2129 0.820314ZM12.7334 1.29199L12.0667 1.63561C12.0606 1.6236 12.071 1.63534 12.0864 1.72694C12.1031 1.82592 12.1168 1.95938 12.1395 2.18585L12.8857 2.11133L13.632 2.03681C13.6114 1.82984 13.5926 1.63828 13.5657 1.47827C13.5375 1.31088 13.4935 1.12967 13.4001 0.948378L12.7334 1.29199ZM12.8857 2.11133L12.1395 2.18585C12.1792 2.58377 12.2129 2.92659 12.2614 3.19602C12.3086 3.45816 12.3866 3.7639 12.5843 4.02313L13.1807 3.56836L13.7771 3.11359C13.803 3.14762 13.7746 3.13525 13.7377 2.93037C13.7021 2.73279 13.6743 2.45969 13.632 2.03681L12.8857 2.11133ZM13.1807 3.56836L12.5844 4.02332C12.9656 4.52293 13.5861 4.78025 14.2093 4.69643L14.1094 3.95313L14.0094 3.20982C13.9206 3.22176 13.8315 3.18494 13.7769 3.1134L13.1807 3.56836ZM14.1094 3.95313L14.2096 4.6964C14.5332 4.65276 14.8046 4.49113 15.0228 4.33919C15.2472 4.183 15.5133 3.96432 15.8225 3.71138L15.3477 3.13086L14.8728 2.55035C14.5434 2.81977 14.3307 2.9933 14.1657 3.10818C13.9946 3.22732 13.9662 3.21565 14.0091 3.20986L14.1094 3.95313ZM15.3477 3.13086L15.8225 3.71138C15.9986 3.56737 16.103 3.48269 16.1847 3.42464C16.2604 3.37087 16.2765 3.36973 16.2641 3.37368L16.0361 2.65918L15.8081 1.94468C15.4569 2.05676 15.1591 2.31616 14.8728 2.55035L15.3477 3.13086ZM16.0361 2.65918L16.2641 3.3737C16.3214 3.35541 16.3836 3.35845 16.4393 3.38257L16.7373 2.69434L17.0353 2.0061C16.6474 1.83808 16.2115 1.81599 15.8082 1.94466L16.0361 2.65918ZM16.7373 2.69434L16.4392 3.38254C16.4269 3.37722 16.4426 3.37977 16.5127 3.44099C16.5883 3.50708 16.6837 3.60178 16.8447 3.76275L17.375 3.23242L17.9053 2.70209C17.758 2.55477 17.622 2.4183 17.4996 2.31137C17.3716 2.19956 17.2226 2.08722 17.0354 2.00614L16.7373 2.69434ZM17.375 3.23242L16.8447 3.76275L17.7372 4.65533L18.2676 4.125L18.7979 3.59467L17.9053 2.70209L17.375 3.23242ZM18.2676 4.125L17.7372 4.65533C17.8982 4.81624 17.9929 4.91164 18.059 4.98731C18.1203 5.05744 18.1228 5.07318 18.1175 5.06086L18.8057 4.7627L19.4938 4.46453C19.4128 4.27739 19.3004 4.12839 19.1886 4.00044C19.0817 3.87802 18.9452 3.74199 18.7979 3.59467L18.2676 4.125ZM18.8057 4.7627L18.1174 5.06061C18.1416 5.11655 18.1445 5.17875 18.1263 5.23582L18.8408 5.46387L19.5553 5.69191C19.6841 5.2884 19.6618 4.85255 19.494 4.46478L18.8057 4.7627ZM18.8408 5.46387L18.1264 5.2355C18.1308 5.22194 18.1301 5.23738 18.0758 5.31345C18.0172 5.39556 17.9323 5.49974 17.7878 5.67631L18.3682 6.15137L18.9485 6.62643C19.0801 6.46573 19.2025 6.31689 19.2967 6.18494C19.3952 6.04695 19.4929 5.88727 19.5552 5.69224L18.8408 5.46387ZM18.3682 6.15137L17.7878 5.67631C17.5345 5.98577 17.3161 6.25189 17.16 6.47668C17.008 6.69548 16.8474 6.96642 16.8037 7.28889L17.5469 7.38965L18.2901 7.49041C18.2844 7.53229 18.2733 7.50313 18.3919 7.33246C18.5063 7.16778 18.6795 6.95505 18.9485 6.62643L18.3682 6.15137ZM17.5469 7.38965L16.8036 7.2895C16.7196 7.91306 16.9771 8.53341 17.4767 8.91462L17.9316 8.31836L18.3866 7.7221C18.3149 7.66738 18.2782 7.57846 18.2902 7.4898L17.5469 7.38965ZM17.9316 8.31836L17.4768 8.91473C17.7361 9.11247 18.0419 9.19043 18.3039 9.23757C18.5732 9.28601 18.9161 9.31973 19.314 9.35956L19.3887 8.61328L19.4634 7.86701C19.0402 7.82466 18.7671 7.7968 18.5695 7.76126C18.3646 7.72441 18.3523 7.69599 18.3864 7.72199L17.9316 8.31836ZM19.3887 8.61328L19.314 9.35956C19.5401 9.38218 19.6738 9.39615 19.7727 9.4129C19.8643 9.42844 19.8766 9.43904 19.865 9.43308L20.209 8.7666L20.5529 8.10013C20.2254 7.93111 19.8313 7.90383 19.4634 7.86701L19.3887 8.61328ZM20.209 8.7666L19.8647 9.43292C19.9182 9.46056 19.96 9.50668 19.9823 9.56303L20.6797 9.28711L21.3771 9.0112C21.2216 8.61814 20.9291 8.29449 20.5533 8.10029L20.209 8.7666ZM20.6797 9.28711L19.9823 9.563C19.9773 9.55043 19.9866 9.56318 19.9928 9.65594C19.9996 9.75615 20 9.89044 20 10.1182H20.75H21.5C21.5 9.90999 21.5003 9.71736 21.4894 9.55532C21.4781 9.38584 21.4522 9.20101 21.3771 9.01122L20.6797 9.28711ZM20.75 10.1182H20V11.3818H20.75H21.5V10.1182H20.75ZM20.75 11.3818H20C20 11.6093 19.9995 11.7437 19.9928 11.844C19.9865 11.9369 19.9772 11.9498 19.9822 11.9372L20.6797 12.2129L21.3772 12.4885C21.4521 12.2989 21.478 12.1141 21.4894 11.9447C21.5003 11.7826 21.5 11.59 21.5 11.3818H20.75ZM20.6797 12.2129L19.9823 11.9369C19.9603 11.9926 19.9186 12.0388 19.8644 12.0668L20.208 12.7334L20.5516 13.4C20.9275 13.2063 21.221 12.8831 21.377 12.4889L20.6797 12.2129ZM20.208 12.7334L19.8644 12.0667C19.8764 12.0605 19.8647 12.071 19.7731 12.0864C19.6741 12.1031 19.5406 12.1168 19.3141 12.1395L19.3887 12.8857L19.4632 13.632C19.6702 13.6114 19.8617 13.5926 20.0218 13.5657C20.1891 13.5375 20.3703 13.4935 20.5516 13.4001L20.208 12.7334ZM19.3887 12.8857L19.3141 12.1395C18.9162 12.1792 18.5737 12.2129 18.3044 12.2615C18.0422 12.3087 17.737 12.3868 17.478 12.5842L17.9326 13.1807L18.3873 13.7771C18.3534 13.8029 18.3659 13.7745 18.5703 13.7377C18.7676 13.7021 19.0405 13.6742 19.4632 13.632L19.3887 12.8857ZM17.9326 13.1807L17.4779 12.5842C16.9776 12.9656 16.7205 13.586 16.8046 14.2096L17.5479 14.1094L18.2911 14.0092C18.2791 13.9202 18.3158 13.8316 18.3873 13.7771L17.9326 13.1807ZM17.5479 14.1094L16.8046 14.2096C16.8481 14.5325 17.009 14.8037 17.1609 15.0224C17.3171 15.247 17.5355 15.5132 17.7887 15.8226L18.3691 15.3477L18.9496 14.8727C18.6805 14.5438 18.5072 14.3311 18.3927 14.1664C18.2741 13.9956 18.2854 13.9668 18.2911 14.0092L17.5479 14.1094ZM18.3691 15.3477L17.7887 15.8226C17.9329 15.9988 18.0175 16.1028 18.0759 16.1847C18.13 16.2605 18.1308 16.2761 18.1266 16.263L18.8408 16.0342L19.5551 15.8054C19.4928 15.611 19.3956 15.4517 19.2972 15.3138C19.2032 15.1819 19.081 15.0333 18.9496 14.8727L18.3691 15.3477ZM18.8408 16.0342L18.1264 16.2625C18.1447 16.3195 18.1417 16.3822 18.1174 16.4383L18.8057 16.7363L19.4939 17.0343C19.6619 16.6464 19.6843 16.2097 19.5552 15.8058L18.8408 16.0342ZM18.8057 16.7363L18.1175 16.438C18.1229 16.4257 18.1203 16.4415 18.0589 16.5118C17.9928 16.5875 17.898 16.6829 17.7372 16.8437L18.2676 17.374L18.7979 17.9044C18.9452 17.7571 19.0816 17.621 19.1886 17.4986C19.3003 17.3707 19.4127 17.2217 19.4938 17.0346L18.8057 16.7363ZM18.2676 17.374L17.7372 16.8437L16.8447 17.7363L17.375 18.2666L17.9053 18.7969L18.7979 17.9044L18.2676 17.374ZM17.375 18.2666L16.8447 17.7363C16.6837 17.8972 16.5883 17.9919 16.5127 18.058C16.4426 18.1193 16.4269 18.1218 16.4392 18.1165L16.7373 18.8047L17.0354 19.4929C17.2226 19.4118 17.3716 19.2995 17.4996 19.1877C17.622 19.0807 17.758 18.9443 17.9053 18.7969L17.375 18.2666ZM16.7373 18.8047L16.4393 18.1165C16.3836 18.1406 16.3214 18.1436 16.2641 18.1253L16.0361 18.8398L15.8082 19.5544C16.2115 19.683 16.6473 19.661 17.0354 19.4929L16.7373 18.8047ZM16.0361 18.8398L16.2642 18.1253C16.2765 18.1293 16.2604 18.1282 16.1847 18.0744C16.1029 18.0163 15.9985 17.9316 15.8225 17.7877L15.3477 18.3682L14.8728 18.9487C15.159 19.1828 15.4569 19.4423 15.8081 19.5543L16.0361 18.8398ZM15.3477 18.3682L15.8225 17.7877C15.5131 17.5345 15.2467 17.3158 15.0221 17.1595C14.8035 17.0075 14.5318 16.846 14.2081 16.8026L14.1084 17.5459L14.0087 18.2892C13.9658 18.2835 13.9944 18.2718 14.1655 18.3909C14.3306 18.5057 14.5434 18.6792 14.8728 18.9487L15.3477 18.3682ZM14.1084 17.5459L14.2078 16.8025C13.585 16.7193 12.9654 16.9764 12.5844 17.4757L13.1807 17.9307L13.7769 18.3856C13.8314 18.3142 13.9202 18.2774 14.009 18.2893L14.1084 17.5459ZM13.1807 17.9307L12.5844 17.4757C12.3866 17.735 12.3085 18.0408 12.2613 18.303C12.2129 18.5724 12.1792 18.9152 12.1395 19.3132L12.8857 19.3877L13.632 19.4622C13.6743 19.0391 13.7021 18.7661 13.7376 18.5685C13.7745 18.3638 13.8029 18.3516 13.7769 18.3856L13.1807 17.9307ZM12.8857 19.3877L12.1395 19.3132C12.1168 19.5399 12.1031 19.6736 12.0864 19.7729C12.071 19.8648 12.0604 19.8766 12.0667 19.8645L12.7334 20.208L13.4001 20.5515C13.4936 20.37 13.5376 20.1885 13.5657 20.0211C13.5926 19.861 13.6114 19.6692 13.632 19.4622L12.8857 19.3877ZM12.7334 20.208L12.0669 19.8642C12.0388 19.9186 11.9923 19.9604 11.9368 19.9823L12.2129 20.6797L12.4889 21.377C12.8831 21.221 13.2063 20.9272 13.3999 20.5518L12.7334 20.208ZM12.2129 20.6797L11.937 19.9823C11.9497 19.9772 11.9369 19.9866 11.8437 19.9928C11.7433 19.9996 11.6087 20 11.3809 20V20.75V21.5C11.5891 21.5 11.782 21.5003 11.9442 21.4895C12.1136 21.4781 12.2988 21.4523 12.4888 21.3771L12.2129 20.6797ZM11.3809 20.75V20H10.1182V20.75V21.5H11.3809V20.75ZM10.1182 20.75V20C9.89044 20 9.75615 19.9996 9.65594 19.9928C9.56318 19.9866 9.55043 19.9773 9.563 19.9823L9.28711 20.6797L9.01122 21.3771C9.20101 21.4522 9.38584 21.4781 9.55532 21.4894C9.71736 21.5003 9.90999 21.5 10.1182 21.5V20.75ZM9.28711 20.6797L9.56303 19.9823C9.50668 19.96 9.46056 19.9182 9.43292 19.8647L8.7666 20.209L8.10029 20.5533C8.29449 20.9291 8.61814 21.2216 9.0112 21.3771L9.28711 20.6797ZM8.7666 20.209L9.43308 19.865C9.43904 19.8766 9.42844 19.8643 9.4129 19.7727C9.39615 19.6738 9.38218 19.5401 9.35956 19.314L8.61328 19.3887L7.86701 19.4634C7.90383 19.8313 7.93111 20.2254 8.10013 20.5529L8.7666 20.209ZM8.61328 19.3887L9.35956 19.314C9.31973 18.9161 9.28601 18.5732 9.23757 18.3039C9.19043 18.0419 9.11247 17.7361 8.91473 17.4768L8.31836 17.9316L7.72199 18.3864C7.69599 18.3523 7.72441 18.3646 7.76126 18.5695C7.7968 18.7671 7.82466 19.0402 7.86701 19.4634L8.61328 19.3887ZM8.31836 17.9316L8.91462 17.4767C8.53341 16.9771 7.91306 16.7196 7.2895 16.8036L7.38965 17.5469L7.4898 18.2902C7.57846 18.2782 7.66738 18.3149 7.7221 18.3866L8.31836 17.9316ZM7.38965 17.5469L7.28889 16.8037C6.96642 16.8474 6.69548 17.008 6.47668 17.16C6.25189 17.3161 5.98577 17.5345 5.67631 17.7878L6.15137 18.3682L6.62643 18.9485C6.95505 18.6795 7.16778 18.5063 7.33246 18.3919C7.50313 18.2733 7.53229 18.2844 7.49041 18.2901L7.38965 17.5469ZM6.15137 18.3682L5.67631 17.7878C5.49974 17.9323 5.39556 18.0172 5.31345 18.0758C5.23738 18.1301 5.22194 18.1308 5.2355 18.1264L5.46387 18.8408L5.69224 19.5552C5.88727 19.4929 6.04695 19.3952 6.18494 19.2967C6.31689 19.2025 6.46573 19.0801 6.62643 18.9485L6.15137 18.3682ZM5.46387 18.8408L5.23582 18.1263C5.17875 18.1445 5.11655 18.1416 5.06061 18.1174L4.7627 18.8057L4.46478 19.494C4.85255 19.6618 5.2884 19.6841 5.69191 19.5553L5.46387 18.8408ZM4.7627 18.8057L5.06086 18.1175C5.07318 18.1228 5.05744 18.1203 4.98731 18.059C4.91164 17.9929 4.81624 17.8982 4.65533 17.7372L4.125 18.2676L3.59467 18.7979C3.74199 18.9452 3.87802 19.0817 4.00044 19.1886C4.12839 19.3004 4.27739 19.4128 4.46453 19.4938L4.7627 18.8057ZM4.125 18.2676L4.65533 17.7372L3.76275 16.8447L3.23242 17.375L2.70209 17.9053L3.59467 18.7979L4.125 18.2676ZM3.23242 17.375L3.76275 16.8447C3.60178 16.6837 3.50708 16.5883 3.44099 16.5127C3.37977 16.4426 3.37722 16.4269 3.38254 16.4392L2.69434 16.7373L2.00614 17.0354C2.08722 17.2226 2.19956 17.3716 2.31137 17.4996C2.4183 17.622 2.55477 17.758 2.70209 17.9053L3.23242 17.375ZM2.69434 16.7373L3.38257 16.4393C3.35845 16.3836 3.35541 16.3214 3.3737 16.2641L2.65918 16.0361L1.94466 15.8082C1.81599 16.2115 1.83808 16.6474 2.0061 17.0353L2.69434 16.7373ZM2.65918 16.0361L3.37368 16.2641C3.36973 16.2765 3.37087 16.2604 3.42464 16.1847C3.48269 16.103 3.56737 15.9986 3.71138 15.8225L3.13086 15.3477L2.55035 14.8728C2.31616 15.1591 2.05676 15.4569 1.94468 15.8081L2.65918 16.0361ZM3.13086 15.3477L3.71138 15.8225C3.96432 15.5133 4.183 15.2472 4.33919 15.0228C4.49113 14.8046 4.65276 14.5332 4.6964 14.2096L3.95313 14.1094L3.20986 14.0091C3.21565 13.9662 3.22732 13.9946 3.10818 14.1657C2.9933 14.3307 2.81977 14.5434 2.55035 14.8728L3.13086 15.3477ZM3.95313 14.1094L4.69643 14.2093C4.78025 13.5861 4.52293 12.9656 4.02332 12.5844L3.56836 13.1807L3.1134 13.7769C3.18494 13.8315 3.22176 13.9206 3.20982 14.0094L3.95313 14.1094ZM3.56836 13.1807L4.02313 12.5843C3.7639 12.3866 3.45816 12.3086 3.19603 12.2614C2.92659 12.2129 2.58377 12.1792 2.18585 12.1395L2.11133 12.8857L2.03681 13.632C2.45969 13.6743 2.73279 13.7021 2.93037 13.7377C3.13525 13.7746 3.14762 13.803 3.11359 13.7771L3.56836 13.1807ZM2.11133 12.8857L2.18585 12.1395C1.95938 12.1168 1.82592 12.1031 1.72694 12.0864C1.63534 12.071 1.6236 12.0606 1.63561 12.0667L1.29199 12.7334L0.948378 13.4001C1.12967 13.4935 1.31088 13.5375 1.47827 13.5657C1.63828 13.5926 1.82984 13.6114 2.03681 13.632L2.11133 12.8857ZM1.29199 12.7334L1.63568 12.0668C1.58139 12.0388 1.5397 11.9925 1.51767 11.9369L0.820314 12.2129L0.122959 12.4889C0.278977 12.8831 0.572594 13.2063 0.948304 13.4L1.29199 12.7334ZM0.820314 12.2129L1.51778 11.9371C1.52275 11.9497 1.51345 11.9369 1.5072 11.844C1.50046 11.7437 1.5 11.6094 1.5 11.3818H0.750001H1.07288e-06C1.07288e-06 11.59 -0.000316858 11.7826 0.010587 11.9447C0.0219854 12.1141 0.0478411 12.2989 0.122845 12.4886L0.820314 12.2129ZM0.750001 11.3818H1.5V10.1182H0.750001H1.07288e-06V11.3818H0.750001ZM0.750001 10.1182H1.5C1.5 9.89046 1.50045 9.75616 1.50719 9.65595C1.51342 9.56317 1.52271 9.5504 1.51775 9.56295L0.820314 9.28711L0.12288 9.01127C0.0478327 9.20102 0.0219626 9.38583 0.0105659 9.55531C-0.000330448 9.71735 1.07288e-06 9.90998 1.07288e-06 10.1182H0.750001ZM0.820314 9.28711L1.51772 9.56301C1.54001 9.50668 1.58177 9.46057 1.6353 9.43291L1.29102 8.7666L0.946735 8.10029C0.5709 8.29449 0.278415 8.61812 0.122905 9.01121L0.820314 9.28711ZM1.29102 8.7666L1.63495 9.4331C1.6234 9.43906 1.63568 9.42845 1.72735 9.41291C1.82621 9.39615 1.95996 9.38218 2.18603 9.35955L2.11133 8.61328L2.03663 7.86701C1.66873 7.90384 1.27456 7.93112 0.947088 8.10011L1.29102 8.7666ZM2.11133 8.61328L2.18603 9.35955C2.58386 9.31973 2.92671 9.28603 3.196 9.23761C3.45805 9.1905 3.76396 9.11254 4.02336 8.91458L3.56836 8.31836L3.11336 7.72214C3.14757 7.69604 3.13549 7.72444 2.93058 7.76128C2.73291 7.79682 2.45985 7.82465 2.03663 7.86701L2.11133 8.61328ZM3.56836 8.31836L4.02348 8.91449C4.52226 8.53369 4.7801 7.91435 4.69647 7.29091L3.95313 7.39063L3.20978 7.49035C3.22162 7.57855 3.18519 7.66731 3.11324 7.72223L3.56836 8.31836ZM3.95313 7.39063L4.69643 7.29066C4.65293 6.96719 4.49154 6.69558 4.33952 6.47697C4.18321 6.2522 3.96451 5.98585 3.71131 5.67641L3.13086 6.15137L2.55042 6.62633C2.81971 6.95542 2.99325 7.16833 3.10802 7.33336C3.22707 7.50456 3.21556 7.53331 3.20982 7.49059L3.95313 7.39063ZM3.13086 6.15137L3.71131 5.67641C3.56725 5.50036 3.48258 5.39616 3.42436 5.31436C3.37043 5.23858 3.3695 5.22278 3.37362 5.23565L2.65918 5.46387L1.94475 5.69208C2.00682 5.8864 2.10382 6.0458 2.20228 6.18414C2.29645 6.31646 2.41864 6.46528 2.55042 6.62633L3.13086 6.15137ZM2.65918 5.46387L3.37369 5.23588C3.35542 5.17862 3.35843 5.1165 3.38259 5.06071L2.69434 4.7627L2.00609 4.46468C1.8381 4.85262 1.81595 5.28846 1.94467 5.69186L2.65918 5.46387ZM2.69434 4.7627L3.38253 5.06083C3.3772 5.07315 3.37975 5.05743 3.44101 4.98731C3.50711 4.91165 3.60182 4.81626 3.76275 4.65533L3.23242 4.125L2.70209 3.59467C2.55478 3.74199 2.41832 3.87802 2.31138 4.00043C2.19959 4.12839 2.08722 4.27739 2.00614 4.46456L2.69434 4.7627ZM3.23242 4.125L3.76275 4.65533L4.65533 3.76275L4.125 3.23242L3.59467 2.70209L2.70209 3.59467L3.23242 4.125ZM4.125 3.23242L4.65533 3.76275C4.81627 3.60181 4.91165 3.5071 4.98732 3.441C5.05742 3.37975 5.07313 3.3772 5.06082 3.38254L4.7627 2.69434L4.46457 2.00614C4.27739 2.08722 4.12839 2.19959 4.00042 2.31138C3.87802 2.41832 3.74199 2.55478 3.59467 2.70209L4.125 3.23242ZM4.7627 2.69434L5.06081 3.38254C5.11644 3.35845 5.17851 3.35539 5.23593 3.3737L5.46387 2.65918L5.69181 1.94466C5.28852 1.81601 4.8527 1.83801 4.46458 2.00613L4.7627 2.69434ZM5.46387 2.65918L5.23581 3.37367C5.22339 3.3697 5.23953 3.37085 5.31533 3.42469C5.3971 3.48277 5.50155 3.56748 5.67749 3.71139L6.15234 3.13086L6.6272 2.55033C6.34108 2.31629 6.04305 2.05677 5.69193 1.9447L5.46387 2.65918ZM6.15234 3.13086L5.67749 3.71139C5.98683 3.96441 6.25298 4.18291 6.47754 4.33901C6.6961 4.49095 6.96744 4.65203 7.29076 4.69547L7.39063 3.95215L7.49049 3.20883C7.53311 3.21455 7.50452 3.2261 7.33372 3.10737C7.16892 2.99281 6.95629 2.81952 6.6272 2.55033L6.15234 3.13086ZM7.39063 3.95215L7.29086 4.69548C7.91434 4.77916 8.53371 4.52148 8.91459 4.02237L8.31836 3.56738L7.72213 3.1124C7.66729 3.18426 7.57875 3.22067 7.49039 3.20881L7.39063 3.95215ZM8.31836 3.56738L8.91469 4.02224C9.1124 3.76304 9.1904 3.45755 9.23756 3.19551C9.28601 2.92636 9.31973 2.58375 9.35955 2.18604L8.61328 2.11133L7.86701 2.03661C7.82467 2.45957 7.79682 2.73238 7.76129 2.9298C7.72447 3.13432 7.6961 3.14653 7.72203 3.11253L8.31836 3.56738ZM8.61328 2.11133L9.35955 2.18604C9.38218 1.96 9.39616 1.82623 9.41292 1.72736C9.42846 1.63565 9.43907 1.62336 9.43311 1.63491L8.7666 1.29102L8.10009 0.947121C7.93114 1.27456 7.90384 1.66875 7.86701 2.03661L8.61328 2.11133ZM8.7666 1.29102L9.43291 1.6353C9.46058 1.58176 9.50669 1.54 9.563 1.51773L9.28711 0.820314L9.01122 0.1229C8.6181 0.278412 8.29448 0.57091 8.1003 0.946729L8.7666 1.29102ZM9.28711 0.820314L9.5629 1.51777C9.55036 1.52272 9.56317 1.51343 9.65596 1.50719C9.75618 1.50045 9.8905 1.5 10.1182 1.5V0.750001V1.01328e-06C9.90996 1.01328e-06 9.71735 -0.000324905 9.5553 0.0105749C9.38583 0.0219738 9.20104 0.0478412 9.01132 0.12286L9.28711 0.820314ZM10.1182 0.750001V1.5H11.3818V0.750001V1.01328e-06H10.1182V0.750001ZM10.75 6.75V6C8.12665 6 6 8.12665 6 10.75H6.75H7.5C7.5 8.95508 8.95508 7.5 10.75 7.5V6.75ZM6.75 10.75H6C6 13.3734 8.12665 15.5 10.75 15.5V14.75V14C8.95508 14 7.5 12.5449 7.5 10.75H6.75ZM10.75 14.75V15.5C13.3734 15.5 15.5 13.3734 15.5 10.75H14.75H14C14 12.5449 12.5449 14 10.75 14V14.75ZM14.75 10.75H15.5C15.5 8.12665 13.3734 6 10.75 6V6.75V7.5C12.5449 7.5 14 8.95508 14 10.75H14.75Z" fill="currentColor"/>
</g>
</svg>
