<svg width="256" height="256" viewBox="0 0 256 256" fill="none" xmlns="http://www.w3.org/2000/svg">
<rect width="256" height="256" rx="56" fill="#FFFFFF"/>
<g transform="translate(30 77.2) scale(1.7727)" fill="#FC7045">
<path d="M105.313 35.2426C107.706 35.2426 109.281 37.0058 109.281 39.6508V52.184C109.281 54.8292 107.707 56.5932 105.313 56.5932H60.4705C58.0774 56.593 56.5027 54.8291 56.5027 52.184V39.6508C56.5028 37.006 58.0775 35.2428 60.4705 35.2426H105.313ZM90.3171 46.1928C90.3168 45.3176 89.4411 44.7029 88.5916 44.9135C85.0729 45.7857 80.7107 45.7857 77.1921 44.9135C76.3426 44.7029 75.4669 45.3176 75.4666 46.1928C75.4666 46.7201 75.7942 47.1964 76.2986 47.35C80.24 48.5503 85.5437 48.5503 89.4851 47.35C89.9895 47.1964 90.3171 46.7201 90.3171 46.1928Z"/>
<path d="M109.26 29.2059V27.8729C109.26 25.2068 107.686 23.4294 105.293 23.4294H60.4553C58.0623 23.4294 56.4879 25.2068 56.4879 27.8729V29.2059C56.4879 31.872 58.0623 33.6494 60.4553 33.6494H105.293C107.686 33.6494 109.26 31.872 109.26 29.2059Z"/>
<path d="M53.3287 52.0957V4.98264C53.3287 2.33726 51.7507 0.573669 49.3521 0.573669H40.7676C38.369 0.573669 36.791 2.33726 36.791 4.98264V52.0957C36.791 54.741 38.369 56.5046 40.7676 56.5046H49.3521C51.7507 56.5046 53.3287 54.741 53.3287 52.0957Z"/>
<path d="M11.5304 0.671369C16.6409 0.293533 19.4805 0.293556 24.5909 0.671369C31.2158 1.17516 34.813 7.28376 35.0655 13.77C35.6334 26.365 35.6334 30.8997 35.0655 43.4946C34.8132 49.8551 31.2159 56.0894 24.5909 56.5932C19.4805 56.9711 16.641 56.9711 11.5304 56.5932C4.77937 56.0893 0.678285 49.855 0.425893 43.4946C-0.141964 30.8997 -0.141964 26.365 0.425893 13.77C0.678449 7.40978 4.7795 1.17529 11.5304 0.671369ZM17.838 22.4243C13.6162 22.4243 10.1937 25.245 10.1935 28.7251C10.1935 29.7666 10.5003 30.7492 11.0431 31.6147L10.1935 35.0268L14.3321 34.3266C15.3822 34.7741 16.5744 35.0268 17.838 35.0268C22.0599 35.0268 25.4825 32.2053 25.4825 28.7251C25.4824 25.245 22.0598 22.4243 17.838 22.4243Z"/>
<path d="M68.6227 0.425066C76.5557 -0.1417 89.5259 -0.141677 97.5221 0.425066C103.315 0.802917 108.477 3.44823 109.233 8.80104C109.548 10.5644 109.485 11.7613 109.233 13.3987C108.603 18.8143 103.314 21.6483 97.5221 21.8372C89.5259 22.0261 76.5557 22.0261 68.6227 21.8372C62.8304 21.6481 57.4159 18.8142 56.5973 13.3987C56.4084 11.7613 56.3454 10.5644 56.5973 8.80104C57.4158 3.44829 62.8303 0.803002 68.6227 0.425066ZM90.4371 10.8635C90.437 9.9883 89.5621 9.3738 88.7125 9.58425C85.1938 10.4565 80.8308 10.4565 77.3121 9.58425C76.4625 9.37378 75.5876 9.98829 75.5875 10.8635C75.5875 11.3908 75.9151 11.8662 76.4195 12.0198C80.3609 13.2199 85.6637 13.2199 89.6051 12.0198C90.1095 11.8662 90.4371 11.3908 90.4371 10.8635Z"/>
</g>
</svg>
