<svg width="18" height="18" viewBox="0 0 18 18" fill="none" xmlns="http://www.w3.org/2000/svg">
<path d="M3.75049 7.44214C3.75049 11.081 6.93384 14.0902 8.34288 15.2439C8.54454 15.409 8.64657 15.4926 8.79702 15.5349C8.91417 15.5679 9.08658 15.5679 9.20373 15.5349C9.35446 15.4925 9.45579 15.4098 9.6582 15.244C11.0672 14.0903 14.2504 11.0813 14.2504 7.44247C14.2504 6.06539 13.6973 4.74454 12.7128 3.77079C11.7282 2.79705 10.3929 2.25 9.00055 2.25C7.60816 2.25 6.27274 2.79713 5.28818 3.77087C4.30361 4.74462 3.75049 6.06505 3.75049 7.44214Z" stroke="#B5BDBF" stroke-width="1.2" stroke-linecap="round" stroke-linejoin="round"/>
<path d="M7.50049 6.75C7.50049 7.57843 8.17206 8.25 9.00049 8.25C9.82891 8.25 10.5005 7.57843 10.5005 6.75C10.5005 5.92157 9.82891 5.25 9.00049 5.25C8.17206 5.25 7.50049 5.92157 7.50049 6.75Z" stroke="#B5BDBF" stroke-width="1.2" stroke-linecap="round" stroke-linejoin="round"/>
</svg>
