<svg width="18" height="18" viewBox="0 0 18 18" fill="none" xmlns="http://www.w3.org/2000/svg">
<rect width="18" height="18" fill="#E6E6E6"/>
<g id="&#236;&#187;&#180;&#237;&#143;&#172;&#235;&#132;&#140;&#237;&#138;&#184;">
<path d="M-1391 -1123C-1391 -1124.1 -1390.1 -1125 -1389 -1125H762C763.105 -1125 764 -1124.1 764 -1123V1920C764 1921.1 763.104 1922 762 1922H-1389C-1390.1 1922 -1391 1921.1 -1391 1920V-1123Z" fill="white"/>
<path d="M-1389 -1125V-1124H762V-1125V-1126H-1389V-1125ZM764 -1123H763V1920H764H765V-1123H764ZM762 1922V1921H-1389V1922V1923H762V1922ZM-1391 1920H-1390V-1123H-1391H-1392V1920H-1391ZM-1389 1922V1921C-1389.55 1921 -1390 1920.55 -1390 1920H-1391H-1392C-1392 1921.66 -1390.66 1923 -1389 1923V1922ZM764 1920H763C763 1920.55 762.552 1921 762 1921V1922V1923C763.657 1923 765 1921.66 765 1920H764ZM762 -1125V-1124C762.552 -1124 763 -1123.55 763 -1123H764H765C765 -1124.66 763.657 -1126 762 -1126V-1125ZM-1389 -1125V-1126C-1390.66 -1126 -1392 -1124.66 -1392 -1123H-1391H-1390C-1390 -1123.55 -1389.55 -1124 -1389 -1124V-1125Z" fill="black" fill-opacity="0.1"/>
<g id="Schedule">
<g id="Frame 1597880587">
<rect x="-80" y="-63" width="343" height="94" rx="16" fill="#FAFAFA"/>
<g id="Frame 1597880586">
<g id="Frame 1597880585">
<g id="MapPin">
<g id="Vector">
<path d="M3.75049 7.44214C3.75049 11.081 6.93384 14.0902 8.34288 15.2439C8.54454 15.409 8.64657 15.4926 8.79702 15.5349C8.91417 15.5679 9.08658 15.5679 9.20373 15.5349C9.35446 15.4925 9.45579 15.4098 9.6582 15.244C11.0672 14.0903 14.2504 11.0813 14.2504 7.44247C14.2504 6.06539 13.6973 4.74454 12.7128 3.77079C11.7282 2.79705 10.3929 2.25 9.00055 2.25C7.60816 2.25 6.27274 2.79713 5.28818 3.77087C4.30361 4.74462 3.75049 6.06505 3.75049 7.44214Z" stroke="#B5BDBF" stroke-width="1.2" stroke-linecap="round" stroke-linejoin="round"/>
<path d="M7.50049 6.75C7.50049 7.57843 8.17206 8.25 9.00049 8.25C9.82891 8.25 10.5005 7.57843 10.5005 6.75C10.5005 5.92157 9.82891 5.25 9.00049 5.25C8.17206 5.25 7.50049 5.92157 7.50049 6.75Z" stroke="#B5BDBF" stroke-width="1.2" stroke-linecap="round" stroke-linejoin="round"/>
</g>
</g>
</g>
</g>
</g>
</g>
</g>
</svg>
