<svg preserveAspectRatio="none" width="100%" height="100%" overflow="visible" style="display: block;" viewBox="0 0 24 24" fill="none" xmlns="http://www.w3.org/2000/svg">
<g id="Alarm">
<path id="Vector (Stroke)" d="M14.25 17.75H9.75V18C9.75 19.2426 10.7574 20.25 12 20.25C13.2426 20.25 14.25 19.2426 14.25 18V17.75ZM5.75 13.7227C5.74994 14.0996 5.5999 14.4606 5.33398 14.7266L4.94434 15.1162C4.88197 15.1786 4.84696 15.2138 4.82129 15.2412C4.80513 15.2584 4.79857 15.2664 4.79687 15.2686C4.77471 15.2994 4.75925 15.3355 4.75293 15.374C4.75259 15.3769 4.7517 15.3873 4.75098 15.4102C4.7498 15.4478 4.75 15.4974 4.75 15.5859C4.75 15.7872 4.7498 15.9074 4.75488 15.9971C4.75966 16.0812 4.76702 16.0929 4.7627 16.0801C4.78752 16.1537 4.84587 16.2122 4.91992 16.2373C4.90751 16.2332 4.91945 16.2404 5.00195 16.2451C5.09076 16.2502 5.20965 16.25 5.40918 16.25H18.5908C18.7902 16.25 18.909 16.2502 18.998 16.2451C19.0819 16.2404 19.0932 16.2329 19.0801 16.2373C19.153 16.2127 19.211 16.155 19.2363 16.0801C19.238 16.0709 19.2413 16.0465 19.2441 15.9971C19.2492 15.9074 19.25 15.7872 19.25 15.5859C19.25 15.4975 19.2493 15.4476 19.248 15.4102C19.2473 15.3863 19.2464 15.3765 19.2461 15.374C19.2395 15.3339 19.2243 15.2981 19.2031 15.2686C19.2012 15.2661 19.1949 15.2584 19.1797 15.2422C19.1537 15.2145 19.1182 15.1787 19.0557 15.1162L18.666 14.7266C18.3998 14.4603 18.2501 14.0992 18.25 13.7227V10C18.25 6.54821 15.4518 3.74999 12 3.75C8.54822 3.75001 5.75 6.54823 5.75 10V13.7227ZM19.75 13.6895L20.1162 14.0557C20.2176 14.1571 20.3305 14.2663 20.4219 14.3936C20.5803 14.6142 20.6833 14.8671 20.7266 15.1309C20.7519 15.2853 20.75 15.4402 20.75 15.5859C20.75 15.9109 20.7599 16.258 20.6582 16.5596C20.4839 17.0763 20.0783 17.4832 19.5596 17.6582C19.3341 17.7342 19.0831 17.748 18.8359 17.75H15.75V18C15.75 20.0711 14.0711 21.75 12 21.75C9.92893 21.75 8.25 20.0711 8.25 18V17.75H5.16504C4.91779 17.748 4.66711 17.7343 4.44141 17.6582C3.92392 17.4837 3.51655 17.0775 3.3418 16.5596C3.24009 16.258 3.25 15.9109 3.25 15.5859C3.25 15.4417 3.24804 15.2856 3.27344 15.1309C3.31703 14.8654 3.42064 14.6129 3.57812 14.3936C3.66942 14.2664 3.78098 14.1585 3.88379 14.0557L4.25 13.6895V10C4.25 5.7198 7.7198 2.25001 12 2.25C16.2802 2.24999 19.75 5.71979 19.75 10V13.6895Z" fill="var(--fill-0, #1F2324)"/>
</g>
</svg>
