<svg preserveAspectRatio="none" width="100%" height="100%" overflow="visible" style="display: block;" viewBox="0 0 20 20" fill="none" xmlns="http://www.w3.org/2000/svg">
<g id="Global">
<circle id="Ellipse 114" cx="10" cy="10" r="7.58333" stroke="var(--stroke-0, #1F2324)" stroke-width="1.5"/>
<path id="Ellipse 115" d="M9.99967 2.41667C10.1872 2.41667 10.4422 2.50843 10.7526 2.83659C11.0645 3.16643 11.3801 3.68467 11.6608 4.38639C12.2204 5.78559 12.5836 7.76982 12.5837 9.99967C12.5837 12.2298 12.2205 14.2147 11.6608 15.6139C11.3802 16.3155 11.0645 16.8329 10.7526 17.1628C10.4422 17.491 10.1872 17.5837 9.99967 17.5837C9.81214 17.5836 9.55798 17.4908 9.24772 17.1628C8.9358 16.8329 8.62019 16.3156 8.33952 15.6139C7.7798 14.2146 7.41667 12.2299 7.41667 9.99967C7.4167 7.76976 7.7799 5.7856 8.33952 4.38639C8.62021 3.68467 8.93578 3.16643 9.24772 2.83659C9.55786 2.50875 9.8122 2.41677 9.99967 2.41667Z" stroke="var(--stroke-0, #1F2324)" stroke-width="1.5"/>
<path id="Vector 397" d="M2.5 10H17.5" stroke="var(--stroke-0, #1F2324)" stroke-width="1.5" stroke-linecap="round"/>
</g>
</svg>
