<svg width="24" height="24" viewBox="0 0 24 24" fill="none" xmlns="http://www.w3.org/2000/svg">
<path d="M17.3673 2.11348C18.6405 1.79293 19.9759 2.16147 20.9073 3.09287C21.8384 4.02402 22.2069 5.35891 21.8867 6.63192L21.8876 6.63284L18.928 18.4721V18.474C18.3534 20.7605 16.4593 21.8585 14.75 21.987L14.4105 22H14.3826C12.5867 21.9873 10.4549 20.8779 9.87904 18.4052L9.0624 14.9368L8.88568 14.8959L5.59218 14.1202C3.12376 13.5437 2.01292 11.4153 2.00011 9.62685C1.98735 7.82814 3.0713 5.68631 5.528 5.07213L17.3673 2.11348ZM5.874 6.45799C4.17769 6.88218 3.41973 8.34431 3.42875 9.61661C3.4378 10.8799 4.21411 12.3326 5.91958 12.7297L9.21308 13.5054L14.0682 8.65117C14.4202 8.29932 14.9971 8.29929 15.349 8.65117C15.7009 9.00309 15.7009 9.57999 15.349 9.93192L10.4948 14.7871L11.2705 18.0805C11.6427 19.6793 12.9426 20.4611 14.1519 20.5602L14.3928 20.5714H14.4105L14.6495 20.5621C15.7707 20.4785 16.9726 19.8068 17.451 18.4312L17.5422 18.1261L20.5018 6.28685C20.6879 5.55076 20.5014 4.78262 20.0014 4.21365L19.8972 4.10297C19.3197 3.52544 18.4984 3.29988 17.7133 3.4984L5.874 6.45799Z" fill="#1F2324"/>
</svg>
