<svg width="24" height="24" viewBox="0 0 24 24" fill="none" xmlns="http://www.w3.org/2000/svg">
<path d="M17.3672 2.11328C18.6403 1.79275 19.9758 2.16149 20.9072 3.09277C21.8383 4.02391 22.2069 5.35884 21.8867 6.63184L21.8877 6.63281L18.9277 18.4717V18.4736C18.353 20.7601 16.4592 21.8589 14.75 21.9873L14.4102 22H14.3828C12.5869 21.9872 10.4548 20.8779 9.87891 18.4053L9.33008 16.0771L10.4941 14.7861L15.3486 9.93066C15.7004 9.57874 15.7005 9.00227 15.3486 8.65039C15.0746 8.37641 14.6645 8.31608 14.3301 8.46875C14.3272 8.47008 14.3242 8.4713 14.3213 8.47266C14.2767 8.49358 14.2336 8.51832 14.1924 8.54688C14.1905 8.54821 14.1884 8.54943 14.1865 8.55078C14.1449 8.58005 14.1055 8.6133 14.0684 8.65039L9.21289 13.5049L7.92188 14.668L5.59277 14.1201C3.12448 13.5436 2.01286 11.4154 2 9.62695C1.98724 7.82828 3.07171 5.68648 5.52832 5.07227L17.3672 2.11328ZM14.6494 20.5625L14.8604 20.5391C14.863 20.5387 14.8656 20.5375 14.8682 20.5371C14.795 20.5475 14.7221 20.5571 14.6494 20.5625Z" fill="#1F2324"/>
</svg>
