<svg width="24" height="24" viewBox="0 0 24 24" fill="none" xmlns="http://www.w3.org/2000/svg">
<g clip-path="url(#clip0_1841_12473)">
<path d="M12.5 2.25C17.8848 2.25 22.25 6.61522 22.25 12C22.25 17.3848 17.8848 21.75 12.5 21.75C10.9852 21.75 9.54921 21.4039 8.26855 20.7861L3.65039 21.7344C3.40353 21.7849 3.14791 21.7085 2.96973 21.5303C2.79154 21.3521 2.71507 21.0965 2.76562 20.8496L3.71289 16.2305C3.09544 14.9501 2.75 13.5144 2.75 12C2.75 6.61522 7.11522 2.25 12.5 2.25Z" fill="#1F2324"/>
<path d="M12.3926 14.6123C12.8067 14.6123 13.1425 14.9482 13.1426 15.3623V15.4463C13.1426 15.8605 12.8068 16.1963 12.3926 16.1963C11.9785 16.1962 11.6426 15.8604 11.6426 15.4463V15.3623C11.6427 14.9483 11.9785 14.6124 12.3926 14.6123ZM12.3926 7.25C14.0057 7.25 15.2849 8.58219 15.2852 10.1904C15.2852 11.7989 14.0058 13.1318 12.3926 13.1318C11.9785 13.1317 11.6427 12.7959 11.6426 12.3818C11.6426 11.9677 11.9785 11.632 12.3926 11.6318C13.1462 11.6318 13.7852 11.0019 13.7852 10.1904C13.7849 9.37911 13.1461 8.75 12.3926 8.75C11.6392 8.75013 11.0002 9.37919 11 10.1904C11 10.6046 10.6642 10.9404 10.25 10.9404C9.83579 10.9404 9.5 10.6046 9.5 10.1904C9.50022 8.58227 10.7796 7.25013 12.3926 7.25Z" fill="white"/>
</g>
<defs>
<clipPath id="clip0_1841_12473">
<rect width="24" height="24" fill="white"/>
</clipPath>
</defs>
</svg>
