<svg width="24" height="24" viewBox="0 0 24 24" fill="none" xmlns="http://www.w3.org/2000/svg">
<g clip-path="url(#clip0_1841_12132)">
<path d="M12.5 21C17.4706 21 21.5 16.9706 21.5 12C21.5 7.02944 17.4706 3 12.5 3C7.52944 3 3.5 7.02944 3.5 12C3.5 13.4876 3.86093 14.891 4.5 16.1272L3.5 21L8.3728 20C9.60904 20.6391 11.0124 21 12.5 21Z" stroke="#1F2324" stroke-width="1.5" stroke-linecap="round" stroke-linejoin="round"/>
<path d="M10.25 10.1908C10.25 8.98087 11.2094 8 12.3928 8C13.5762 8 14.5356 8.98087 14.5356 10.1908C14.5356 11.4008 13.5762 12.3817 12.3928 12.3817M12.3928 15.4467V15.3625" stroke="#1F2324" stroke-width="1.5" stroke-linecap="round" stroke-linejoin="round"/>
</g>
<defs>
<clipPath id="clip0_1841_12132">
<rect width="24" height="24" fill="white"/>
</clipPath>
</defs>
</svg>
