<svg width="21" height="15" viewBox="0 0 21 15" fill="none" xmlns="http://www.w3.org/2000/svg">
<g clip-path="url(#clip0_1258_6591)">
<rect width="21" height="15" rx="3" fill="#FCD20F"/>
<path d="M19 0H2C0.89543 0 0 0.89543 0 2V13C0 14.1046 0.89543 15 2 15H19C20.1046 15 21 14.1046 21 13V2C21 0.89543 20.1046 0 19 0Z" fill="#FCD20F"/>
<path fill-rule="evenodd" clip-rule="evenodd" d="M0 8H21V15H0V8Z" fill="#009F47"/>
<path fill-rule="evenodd" clip-rule="evenodd" d="M0 0H8V15H0V0Z" fill="#CF0921"/>
<path fill-rule="evenodd" clip-rule="evenodd" d="M4.50001 8.75L3.03001 9.523L3.31001 7.886L2.12201 6.726L3.76501 6.489L4.50001 5L5.23501 6.49L6.87801 6.727L5.68801 7.887L5.96801 9.523" fill="#151515"/>
</g>
<defs>
<clipPath id="clip0_1258_6591">
<rect width="21" height="15" rx="3" fill="white"/>
</clipPath>
</defs>
</svg>
