<svg width="21" height="15" viewBox="0 0 21 15" fill="none" xmlns="http://www.w3.org/2000/svg">
<g clip-path="url(#clip0_1258_6580)">
<rect width="21" height="15" rx="3" fill="white"/>
<path fill-rule="evenodd" clip-rule="evenodd" d="M0 10H21V15H0V10Z" fill="#151515"/>
<path fill-rule="evenodd" clip-rule="evenodd" d="M0 0H21V5H0V0Z" fill="#CE0920"/>
<path d="M9.22925 6.27378C9.15028 6.20597 9.08621 6.12391 9.03706 6.02757C9.02838 6.01039 9.02266 5.9886 9.01991 5.96222C9.01984 5.96145 9.01955 5.96072 9.01908 5.9601C9.0186 5.95949 9.01797 5.95902 9.01724 5.95875C9.01651 5.95848 9.01573 5.95842 9.01497 5.95858C9.01421 5.95874 9.01351 5.95911 9.01295 5.95964L7.43314 7.48545C7.43135 7.4872 7.42992 7.48928 7.42895 7.49159C7.42797 7.49389 7.42747 7.49636 7.42747 7.49885V7.85513C7.42747 7.85729 7.42833 7.85935 7.42985 7.86088C7.43137 7.8624 7.43344 7.86325 7.43559 7.86325C8.26348 7.86317 8.9583 7.86317 9.52005 7.86325C9.56671 7.86325 9.60487 7.85655 9.6077 7.80332C9.60779 7.80211 9.60796 7.72314 9.60822 7.5664C9.60822 7.56392 9.60857 7.56149 9.60925 7.55918C9.61991 7.51827 9.64405 7.49619 9.68169 7.49292C9.76006 7.48622 9.77734 7.5441 9.77682 7.6137C9.77588 7.73899 9.7757 7.85346 9.77631 7.95709C9.77632 7.95831 9.7761 7.95951 9.77565 7.96064C9.77519 7.96176 9.77452 7.96279 9.77367 7.96365C9.77282 7.96451 9.7718 7.9652 9.77069 7.96567C9.76957 7.96613 9.76837 7.96638 9.76715 7.96638H7.00777C7.0063 7.96638 7.00489 7.96579 7.00385 7.96475C7.00281 7.96371 7.00223 7.9623 7.00223 7.96083V7.4023C7.0022 7.40136 7.00191 7.40044 7.00139 7.39965C7.00087 7.39886 7.00014 7.39824 6.99927 7.39784C6.99841 7.39745 6.99746 7.39731 6.99652 7.39744C6.99558 7.39757 6.9947 7.39796 6.99398 7.39857C6.93159 7.45313 6.87754 7.49894 6.83182 7.53598C6.79315 7.56726 6.76127 7.58977 6.73617 7.60352C6.70979 7.61804 6.67404 7.63403 6.62893 7.65147C6.628 7.65182 6.6272 7.65245 6.62664 7.65327C6.62608 7.65409 6.62578 7.65505 6.62578 7.65605C6.62578 7.65704 6.62608 7.65801 6.62664 7.65882C6.6272 7.65964 6.628 7.66027 6.62893 7.66062C6.66691 7.67549 6.69007 7.70578 6.69841 7.7515C6.71267 7.83021 6.71576 7.91168 6.70769 7.99589C6.70759 7.99703 6.70708 7.9981 6.70625 7.99888C6.70541 7.99967 6.70432 8.00012 6.70318 8.00015C6.57582 8.00126 6.473 8.00114 6.39472 7.99976C6.27561 7.9977 6.17666 7.98257 6.09786 7.95439C5.98743 7.91477 5.9381 7.83442 5.94988 7.71334C5.95233 7.68898 5.9656 7.65804 5.96999 7.63059C5.97008 7.62993 5.96998 7.62926 5.9697 7.62866C5.96942 7.62806 5.96897 7.62755 5.96842 7.6272C5.96787 7.62686 5.96723 7.62669 5.96659 7.62672C5.96595 7.62675 5.96534 7.62697 5.96483 7.62737C5.83735 7.71773 5.70767 7.79623 5.55686 7.84147C5.55519 7.84198 5.55366 7.84286 5.55238 7.84404C5.5511 7.84522 5.5501 7.84667 5.54945 7.84828C5.54881 7.84989 5.54854 7.85162 5.54866 7.85334C5.54878 7.85506 5.54929 7.85673 5.55016 7.85823C5.61564 7.97011 5.67304 8.0823 5.72237 8.19479C5.76344 8.28846 5.78974 8.38023 5.80125 8.47012C5.83412 8.72702 5.64322 8.88299 5.43994 8.99114C5.41331 9.00532 5.39418 9.01619 5.38258 9.02375C5.38202 9.02409 5.38158 9.0246 5.38132 9.0252C5.38105 9.0258 5.38098 9.02647 5.3811 9.02712C5.38123 9.02776 5.38155 9.02836 5.38202 9.02881C5.38249 9.02927 5.38309 9.02957 5.38374 9.02968C5.63188 9.07686 5.88388 9.00983 6.0383 8.80797C6.08866 8.74206 6.11904 8.66755 6.12944 8.58446C6.12962 8.5831 6.13028 8.58185 6.13127 8.58095C6.13227 8.58005 6.13354 8.57955 6.13485 8.57956H10.1444C10.1454 8.57956 10.1463 8.5792 10.1469 8.57858C10.1476 8.57795 10.1479 8.5771 10.1479 8.57621C10.1484 8.24966 10.1483 7.91142 10.1477 7.5615C10.1473 7.35229 10.0051 7.26735 9.83483 7.19838C9.78421 7.17793 9.73914 7.15361 9.69961 7.12543C9.69783 7.12415 9.69573 7.12339 9.69355 7.12323C9.69137 7.12307 9.68918 7.12352 9.68723 7.12452C9.67048 7.1329 9.65179 7.15043 9.63207 7.15971C9.5958 7.17681 9.53462 7.20513 9.44851 7.24466C9.3142 7.3064 9.23492 7.4161 9.23441 7.56704C9.23437 7.5689 9.23362 7.57067 9.23232 7.57197C9.23102 7.57327 9.22927 7.574 9.22744 7.574H7.80257C7.80154 7.57401 7.80052 7.57371 7.79966 7.57314C7.7988 7.57256 7.79813 7.57174 7.79774 7.57078C7.79735 7.56982 7.79726 7.56877 7.79747 7.56776C7.79769 7.56674 7.79821 7.56582 7.79896 7.56511C8.39045 6.99545 8.82012 6.58043 9.08797 6.32005C9.13335 6.27584 9.17808 6.28873 9.22693 6.28203C9.22782 6.28191 9.22865 6.28154 9.22932 6.28095C9.22999 6.28037 9.23048 6.27959 9.23073 6.27872C9.23097 6.27785 9.23096 6.27692 9.2307 6.27604C9.23044 6.27517 9.22993 6.27438 9.22925 6.27378Z" stroke="#80BE9D" stroke-width="0.0257802"/>
<path d="M10.4492 5.96032V8.57469C10.4492 8.57602 10.4497 8.5773 10.4507 8.57825C10.4516 8.57919 10.4529 8.57972 10.4542 8.57972H11.3131C11.3145 8.57972 11.316 8.57943 11.3173 8.57887C11.3186 8.5783 11.3198 8.57747 11.3207 8.57644C11.3217 8.5754 11.3225 8.57417 11.323 8.57283C11.3234 8.57148 11.3236 8.57006 11.3236 8.56863C11.3199 8.50075 11.3058 8.43088 11.2814 8.35904C11.2043 8.13256 11.1589 8.03704 11.1401 7.87669C11.14 7.87533 11.1395 7.87404 11.1386 7.87296C11.1378 7.87188 11.1367 7.87105 11.1354 7.87055C11.1341 7.87006 11.1327 7.86993 11.1314 7.87017C11.13 7.87041 11.1288 7.87102 11.1278 7.87192C11.1009 7.89555 11.0656 7.92477 11.0221 7.95958C10.958 8.01088 10.8759 8.01603 10.7951 8.00005C10.7942 7.9999 10.7934 7.99945 10.7928 7.99879C10.7923 7.99813 10.792 7.9973 10.792 7.99644V6.37976C10.792 6.36237 10.7977 6.3454 10.8082 6.33143C10.8526 6.27252 10.8843 6.23939 10.8923 6.18177C10.8925 6.17969 10.8921 6.17758 10.8909 6.17581C10.8898 6.17404 10.8881 6.17273 10.8861 6.1721C10.7968 6.14469 10.7228 6.1138 10.6641 6.07942C10.6033 6.04393 10.5339 6.00294 10.4561 5.95645C10.4554 5.95604 10.4546 5.95582 10.4538 5.95581C10.453 5.9558 10.4522 5.956 10.4515 5.9564C10.4508 5.95679 10.4502 5.95736 10.4498 5.95805C10.4494 5.95874 10.4492 5.95952 10.4492 5.96032Z" stroke="#80BE9D" stroke-width="0.0257802"/>
<path d="M14.37 5.96178L14.3692 8.57461C14.3692 8.57594 14.3698 8.57722 14.3707 8.57816C14.3716 8.57911 14.3729 8.57964 14.3743 8.57964L15.2326 8.58002C15.234 8.58003 15.2355 8.57974 15.2368 8.57917C15.2381 8.57861 15.2393 8.57778 15.2402 8.57674C15.2412 8.5757 15.242 8.57447 15.2425 8.57313C15.2429 8.57179 15.2431 8.57036 15.2431 8.56894C15.2394 8.50105 15.2253 8.43119 15.2009 8.35934C15.1239 8.13299 15.0787 8.03761 15.0599 7.87725C15.0597 7.8759 15.0592 7.8746 15.0584 7.87352C15.0575 7.87244 15.0564 7.87161 15.0551 7.87112C15.0539 7.87062 15.0525 7.87049 15.0511 7.87073C15.0498 7.87097 15.0485 7.87158 15.0475 7.87249C15.0206 7.89612 14.9854 7.92533 14.9419 7.96014C14.8779 8.01131 14.7958 8.01647 14.7151 8.00048C14.7142 8.00033 14.7134 7.99989 14.7128 7.99922C14.7123 7.99856 14.712 7.99773 14.712 7.99687L14.7125 6.3811C14.7125 6.3637 14.7182 6.34673 14.7287 6.33276C14.7731 6.27398 14.8048 6.24086 14.8128 6.18324C14.8131 6.18115 14.8126 6.17904 14.8115 6.17727C14.8103 6.1755 14.8086 6.17419 14.8066 6.17357C14.7173 6.14616 14.6434 6.11526 14.5848 6.08089C14.524 6.0454 14.4547 6.00441 14.3768 5.95792C14.3762 5.95751 14.3754 5.95729 14.3746 5.95728C14.3738 5.95727 14.373 5.95747 14.3723 5.95786C14.3716 5.95825 14.371 5.95882 14.3706 5.95951C14.3702 5.9602 14.37 5.96099 14.37 5.96178Z" stroke="#80BE9D" stroke-width="0.0257802"/>
<path d="M14.0632 6.06061C13.9792 6.18061 13.8487 6.28077 13.7524 6.35708C13.7506 6.35857 13.7491 6.36045 13.7481 6.36257C13.7471 6.36468 13.7465 6.36699 13.7465 6.36933V7.96087C13.7465 7.96237 13.7459 7.96381 13.7449 7.96488C13.7438 7.96594 13.7423 7.96654 13.7408 7.96654H13.5236C13.5221 7.96654 13.5206 7.96593 13.5195 7.96484C13.5183 7.96375 13.5177 7.96228 13.5177 7.96074V6.56384C13.5177 6.56316 13.5176 6.56248 13.5172 6.5619C13.5168 6.56132 13.5163 6.56086 13.5157 6.56057C13.5151 6.56028 13.5144 6.56018 13.5137 6.56028C13.5131 6.56038 13.5124 6.56068 13.5119 6.56113L13.2009 6.82074C13.1991 6.82223 13.1977 6.8241 13.1967 6.82621C13.1957 6.82833 13.1952 6.83064 13.1952 6.83298V7.96048C13.1952 7.96131 13.195 7.96213 13.1947 7.9629C13.1944 7.96366 13.1939 7.96436 13.1934 7.96495C13.1928 7.96553 13.1921 7.966 13.1913 7.96632C13.1905 7.96663 13.1897 7.9668 13.1889 7.9668H12.973C12.9712 7.9668 12.9696 7.9661 12.9683 7.96487C12.9671 7.96364 12.9664 7.96197 12.9664 7.96022V7.02466C12.9664 7.02401 12.9662 7.02338 12.9659 7.02283C12.9655 7.02229 12.9651 7.02185 12.9645 7.02158C12.9639 7.02131 12.9632 7.02121 12.9626 7.0213C12.962 7.02139 12.9614 7.02166 12.9609 7.02208L12.5539 7.36174C12.5519 7.36343 12.5503 7.36566 12.5495 7.36819C12.5487 7.37071 12.5486 7.37342 12.5492 7.376C12.5499 7.37858 12.5512 7.38092 12.5532 7.38275C12.5551 7.38459 12.5575 7.38584 12.5601 7.38636L12.6092 7.39641C12.6131 7.39721 12.6166 7.39933 12.6191 7.4024C12.6216 7.40548 12.623 7.40932 12.623 7.4133V7.62792C12.623 7.62867 12.6229 7.62941 12.6226 7.6301C12.6222 7.63079 12.6218 7.6314 12.6212 7.6319C12.6206 7.6324 12.62 7.63278 12.6192 7.633C12.6185 7.63322 12.6177 7.63329 12.617 7.6332C12.4619 7.61039 12.3152 7.60626 12.1931 7.71544C12.0989 7.79974 12.0529 7.96448 12.0437 8.08719C12.0321 8.24239 12.0322 8.4054 12.0439 8.57624C12.0439 8.57722 12.0444 8.57814 12.0451 8.57881C12.0458 8.57948 12.0467 8.57985 12.0477 8.57985H14.0578C14.0604 8.57985 14.0628 8.57883 14.0646 8.57702C14.0665 8.57521 14.0675 8.57275 14.0675 8.57018V6.0619C14.0675 6.0614 14.0673 6.06091 14.067 6.06051C14.0667 6.06011 14.0663 6.05981 14.0658 6.05967C14.0654 6.05953 14.0648 6.05954 14.0644 6.05971C14.0639 6.05988 14.0635 6.06019 14.0632 6.06061Z" stroke="#80BE9D" stroke-width="0.0257802"/>
<path d="M12.4375 7.91568C12.4375 7.92492 12.4399 7.93408 12.4445 7.94262C12.4492 7.95117 12.4561 7.95894 12.4647 7.96549C12.4734 7.97204 12.4836 7.97724 12.4949 7.9808C12.5062 7.98436 12.5183 7.9862 12.5306 7.98622C12.5428 7.98624 12.5549 7.98444 12.5662 7.98092C12.5776 7.97741 12.5878 7.97224 12.5965 7.96572C12.6052 7.9592 12.6121 7.95145 12.6167 7.94292C12.6214 7.93439 12.6239 7.92524 12.6239 7.916C12.6239 7.90676 12.6215 7.8976 12.6168 7.88906C12.6122 7.88051 12.6053 7.87274 12.5967 7.86619C12.588 7.85964 12.5778 7.85444 12.5665 7.85088C12.5552 7.84732 12.5431 7.84548 12.5308 7.84546C12.5186 7.84544 12.5065 7.84724 12.4951 7.85075C12.4838 7.85427 12.4735 7.85944 12.4649 7.86596C12.4562 7.87248 12.4493 7.88023 12.4446 7.88876C12.4399 7.89729 12.4375 7.90643 12.4375 7.91568Z" stroke="#80BE9D" stroke-width="0.0257802"/>
<path d="M9.22693 6.28203C9.17808 6.28873 9.13335 6.27584 9.08797 6.32005C8.82012 6.58043 8.39045 6.99545 7.79896 7.56511C7.79821 7.56582 7.79769 7.56674 7.79747 7.56776C7.79726 7.56877 7.79735 7.56982 7.79774 7.57078C7.79813 7.57174 7.7988 7.57256 7.79966 7.57314C7.80052 7.57371 7.80154 7.57401 7.80257 7.574H9.22744C9.22927 7.574 9.23102 7.57327 9.23232 7.57197C9.23362 7.57067 9.23437 7.5689 9.23441 7.56704C9.23492 7.4161 9.3142 7.3064 9.44851 7.24466C9.53462 7.20513 9.5958 7.17681 9.63207 7.15971C9.65179 7.15043 9.67048 7.1329 9.68723 7.12452C9.68918 7.12352 9.69137 7.12307 9.69355 7.12323C9.69573 7.12339 9.69783 7.12415 9.69961 7.12543C9.73914 7.15361 9.78421 7.17793 9.83483 7.19838C10.0051 7.26735 10.1473 7.35229 10.1477 7.5615C10.1483 7.91142 10.1484 8.24966 10.1479 8.57621C10.1479 8.5771 10.1476 8.57795 10.1469 8.57858C10.1463 8.5792 10.1454 8.57956 10.1444 8.57956H6.13485C6.13354 8.57955 6.13227 8.58005 6.13127 8.58095C6.13028 8.58185 6.12962 8.5831 6.12944 8.58446C6.11904 8.66755 6.08866 8.74206 6.0383 8.80797C5.88388 9.00983 5.63188 9.07686 5.38374 9.02968C5.38309 9.02957 5.38249 9.02927 5.38202 9.02881C5.38155 9.02836 5.38123 9.02776 5.3811 9.02712C5.38098 9.02647 5.38105 9.0258 5.38132 9.0252C5.38158 9.0246 5.38202 9.02409 5.38258 9.02375C5.39418 9.01619 5.41331 9.00532 5.43994 8.99114C5.64322 8.88299 5.83412 8.72702 5.80125 8.47012C5.78974 8.38023 5.76344 8.28846 5.72237 8.19479C5.67304 8.0823 5.61564 7.97011 5.55016 7.85823C5.54929 7.85673 5.54878 7.85506 5.54866 7.85334C5.54854 7.85162 5.54881 7.84989 5.54945 7.84828C5.5501 7.84667 5.5511 7.84522 5.55238 7.84404C5.55366 7.84286 5.55519 7.84198 5.55686 7.84147C5.70767 7.79623 5.83735 7.71773 5.96483 7.62737C5.96534 7.62697 5.96595 7.62675 5.96659 7.62672C5.96723 7.62669 5.96787 7.62686 5.96842 7.6272C5.96897 7.62755 5.96942 7.62806 5.9697 7.62866C5.96998 7.62926 5.97008 7.62993 5.96999 7.63059C5.9656 7.65804 5.95233 7.68898 5.94988 7.71334C5.9381 7.83442 5.98743 7.91477 6.09786 7.95439C6.17666 7.98257 6.27561 7.9977 6.39471 7.99976C6.473 8.00114 6.57582 8.00126 6.70318 8.00015C6.70432 8.00012 6.70541 7.99967 6.70625 7.99888C6.70708 7.9981 6.70759 7.99703 6.70769 7.99589C6.71576 7.91168 6.71267 7.83021 6.69841 7.7515C6.69007 7.70578 6.66691 7.67549 6.62893 7.66062C6.628 7.66027 6.6272 7.65964 6.62664 7.65882C6.62608 7.65801 6.62578 7.65704 6.62578 7.65605C6.62578 7.65505 6.62608 7.65409 6.62664 7.65327C6.6272 7.65245 6.628 7.65182 6.62893 7.65147C6.67404 7.63403 6.70979 7.61804 6.73617 7.60352C6.76127 7.58977 6.79315 7.56726 6.83182 7.53598C6.87754 7.49894 6.93159 7.45313 6.99398 7.39857C6.9947 7.39796 6.99558 7.39757 6.99652 7.39744C6.99746 7.39731 6.99841 7.39745 6.99927 7.39784C7.00014 7.39824 7.00087 7.39886 7.00139 7.39965C7.00191 7.40044 7.0022 7.40136 7.00223 7.4023V7.96083C7.00223 7.9623 7.00281 7.96371 7.00385 7.96475C7.00489 7.96579 7.0063 7.96638 7.00777 7.96638H9.76715C9.76837 7.96638 9.76957 7.96613 9.77069 7.96567C9.7718 7.9652 9.77282 7.96451 9.77367 7.96365C9.77452 7.96279 9.77519 7.96176 9.77565 7.96064C9.7761 7.95951 9.77632 7.95831 9.77631 7.95709C9.7757 7.85346 9.77588 7.73899 9.77682 7.6137C9.77734 7.5441 9.76006 7.48622 9.68169 7.49292C9.64405 7.49619 9.61991 7.51827 9.60925 7.55918C9.60857 7.56149 9.60822 7.56392 9.60822 7.5664C9.60796 7.72314 9.60779 7.80211 9.6077 7.80332C9.60487 7.85655 9.56671 7.86325 9.52005 7.86325C8.9583 7.86317 8.26348 7.86317 7.43559 7.86325C7.43344 7.86325 7.43137 7.8624 7.42985 7.86088C7.42833 7.85935 7.42747 7.85729 7.42747 7.85513V7.49885C7.42747 7.49636 7.42797 7.49389 7.42895 7.49159C7.42992 7.48928 7.43135 7.4872 7.43314 7.48545L9.01295 5.95964C9.01351 5.95911 9.01421 5.95874 9.01497 5.95858C9.01573 5.95842 9.01651 5.95848 9.01724 5.95875C9.01797 5.95902 9.0186 5.95949 9.01908 5.9601C9.01955 5.96072 9.01984 5.96145 9.01991 5.96222C9.02266 5.9886 9.02838 6.01039 9.03706 6.02757C9.08621 6.12391 9.15028 6.20597 9.22925 6.27378C9.22993 6.27438 9.23044 6.27517 9.2307 6.27604C9.23096 6.27692 9.23097 6.27785 9.23073 6.27872C9.23048 6.27959 9.22999 6.28037 9.22932 6.28095C9.22865 6.28154 9.22782 6.28191 9.22693 6.28203Z" fill="#007C3A"/>
<path d="M10.4492 5.96032C10.4492 5.95952 10.4494 5.95874 10.4498 5.95805C10.4502 5.95736 10.4508 5.95679 10.4515 5.9564C10.4522 5.956 10.453 5.9558 10.4538 5.95581C10.4546 5.95582 10.4554 5.95604 10.4561 5.95645C10.5339 6.00294 10.6033 6.04393 10.6641 6.07942C10.7228 6.1138 10.7968 6.14469 10.8861 6.1721C10.8881 6.17273 10.8898 6.17404 10.8909 6.17581C10.8921 6.17758 10.8925 6.17969 10.8923 6.18177C10.8843 6.23939 10.8526 6.27252 10.8082 6.33143C10.7977 6.3454 10.792 6.36237 10.792 6.37976V7.99644C10.792 7.9973 10.7923 7.99813 10.7928 7.99879C10.7934 7.99945 10.7942 7.9999 10.7951 8.00005C10.8759 8.01603 10.958 8.01088 11.0221 7.95958C11.0656 7.92477 11.1009 7.89555 11.1278 7.87192C11.1288 7.87102 11.13 7.87041 11.1314 7.87017C11.1327 7.86993 11.1341 7.87006 11.1354 7.87055C11.1367 7.87105 11.1378 7.87188 11.1386 7.87296C11.1395 7.87404 11.14 7.87533 11.1401 7.87669C11.1589 8.03705 11.2043 8.13256 11.2814 8.35904C11.3058 8.43088 11.3199 8.50075 11.3236 8.56863C11.3236 8.57006 11.3234 8.57148 11.323 8.57283C11.3225 8.57417 11.3217 8.5754 11.3207 8.57644C11.3198 8.57747 11.3186 8.5783 11.3173 8.57887C11.316 8.57943 11.3145 8.57972 11.3131 8.57972H10.4542C10.4529 8.57972 10.4516 8.57919 10.4507 8.57825C10.4497 8.5773 10.4492 8.57602 10.4492 8.57469V5.96032Z" fill="#007C3A"/>
<path d="M14.37 5.96178C14.37 5.96099 14.3702 5.9602 14.3706 5.95951C14.371 5.95882 14.3716 5.95825 14.3723 5.95786C14.373 5.95747 14.3738 5.95727 14.3746 5.95728C14.3754 5.95729 14.3762 5.95751 14.3768 5.95792C14.4547 6.00441 14.524 6.0454 14.5848 6.08089C14.6434 6.11526 14.7173 6.14616 14.8066 6.17357C14.8086 6.17419 14.8103 6.1755 14.8115 6.17727C14.8126 6.17904 14.8131 6.18115 14.8128 6.18324C14.8048 6.24086 14.7731 6.27398 14.7287 6.33276C14.7182 6.34673 14.7125 6.3637 14.7125 6.3811L14.712 7.99687C14.712 7.99773 14.7123 7.99856 14.7128 7.99922C14.7134 7.99989 14.7142 8.00033 14.7151 8.00048C14.7958 8.01647 14.8779 8.01131 14.9419 7.96014C14.9854 7.92533 15.0206 7.89612 15.0475 7.87249C15.0485 7.87158 15.0498 7.87097 15.0511 7.87073C15.0525 7.87049 15.0539 7.87062 15.0551 7.87112C15.0564 7.87161 15.0575 7.87244 15.0584 7.87352C15.0592 7.8746 15.0597 7.8759 15.0599 7.87725C15.0787 8.03761 15.1239 8.13299 15.2009 8.35934C15.2253 8.43119 15.2394 8.50105 15.2431 8.56894C15.2431 8.57036 15.2429 8.57179 15.2425 8.57313C15.242 8.57447 15.2412 8.5757 15.2402 8.57674C15.2393 8.57778 15.2381 8.57861 15.2368 8.57917C15.2355 8.57974 15.234 8.58003 15.2326 8.58002L14.3743 8.57964C14.3729 8.57964 14.3716 8.57911 14.3707 8.57816C14.3698 8.57722 14.3692 8.57594 14.3692 8.57461L14.37 5.96178Z" fill="#007C3A"/>
<path d="M14.0632 6.06061C14.0635 6.06019 14.0639 6.05988 14.0644 6.05971C14.0648 6.05954 14.0654 6.05953 14.0658 6.05967C14.0663 6.05981 14.0667 6.06011 14.067 6.06051C14.0673 6.06091 14.0675 6.0614 14.0675 6.0619V8.57018C14.0675 8.57275 14.0665 8.57521 14.0646 8.57702C14.0628 8.57883 14.0604 8.57985 14.0578 8.57985H12.0477C12.0467 8.57985 12.0458 8.57948 12.0451 8.57881C12.0444 8.57814 12.0439 8.57722 12.0439 8.57624C12.0322 8.4054 12.0321 8.24239 12.0437 8.08719C12.0529 7.96448 12.0989 7.79974 12.1931 7.71544C12.3152 7.60626 12.4619 7.61039 12.617 7.6332C12.6177 7.63329 12.6185 7.63322 12.6192 7.633C12.62 7.63278 12.6206 7.6324 12.6212 7.6319C12.6218 7.6314 12.6222 7.63079 12.6226 7.6301C12.6229 7.62941 12.623 7.62867 12.623 7.62792V7.4133C12.623 7.40932 12.6216 7.40548 12.6191 7.4024C12.6166 7.39933 12.6131 7.39721 12.6092 7.39641L12.5601 7.38636C12.5575 7.38584 12.5551 7.38459 12.5532 7.38275C12.5512 7.38092 12.5499 7.37858 12.5492 7.376C12.5486 7.37342 12.5487 7.37071 12.5495 7.36819C12.5503 7.36566 12.5519 7.36343 12.5539 7.36174L12.9609 7.02208C12.9614 7.02166 12.962 7.02139 12.9626 7.0213C12.9632 7.02121 12.9639 7.02131 12.9645 7.02158C12.9651 7.02185 12.9655 7.02229 12.9659 7.02283C12.9662 7.02338 12.9664 7.02401 12.9664 7.02466V7.96022C12.9664 7.96197 12.9671 7.96364 12.9683 7.96487C12.9696 7.9661 12.9712 7.9668 12.973 7.9668H13.1889C13.1897 7.9668 13.1905 7.96663 13.1913 7.96632C13.1921 7.966 13.1928 7.96553 13.1934 7.96495C13.1939 7.96436 13.1944 7.96366 13.1947 7.9629C13.195 7.96213 13.1952 7.96131 13.1952 7.96048V6.83298C13.1952 6.83064 13.1957 6.82833 13.1967 6.82621C13.1977 6.8241 13.1991 6.82223 13.2009 6.82074L13.5119 6.56113C13.5124 6.56068 13.5131 6.56038 13.5137 6.56028C13.5144 6.56018 13.5151 6.56028 13.5157 6.56057C13.5163 6.56086 13.5168 6.56132 13.5172 6.5619C13.5176 6.56248 13.5177 6.56316 13.5177 6.56384V7.96074C13.5177 7.96228 13.5183 7.96375 13.5195 7.96484C13.5206 7.96593 13.5221 7.96654 13.5236 7.96654H13.7408C13.7423 7.96654 13.7438 7.96594 13.7449 7.96488C13.7459 7.96381 13.7465 7.96237 13.7465 7.96087V6.36933C13.7465 6.36699 13.7471 6.36468 13.7481 6.36257C13.7491 6.36045 13.7506 6.35857 13.7524 6.35708C13.8487 6.28077 13.9792 6.18061 14.0632 6.06061ZM12.4374 7.91546C12.4374 7.9247 12.4398 7.93386 12.4444 7.94241C12.4491 7.95095 12.456 7.95872 12.4646 7.96527C12.4732 7.97183 12.4835 7.97703 12.4948 7.98058C12.5061 7.98414 12.5182 7.98598 12.5305 7.986C12.5427 7.98602 12.5548 7.98423 12.5661 7.98071C12.5775 7.97719 12.5877 7.97202 12.5964 7.9655C12.6051 7.95898 12.6119 7.95124 12.6166 7.94271C12.6213 7.93418 12.6238 7.92503 12.6238 7.91579C12.6238 7.90654 12.6214 7.89739 12.6167 7.88884C12.6121 7.88029 12.6052 7.87252 12.5966 7.86597C12.5879 7.85942 12.5777 7.85422 12.5664 7.85066C12.5551 7.84711 12.543 7.84526 12.5307 7.84524C12.5185 7.84522 12.5064 7.84702 12.495 7.85054C12.4837 7.85406 12.4734 7.85922 12.4648 7.86574C12.4561 7.87226 12.4492 7.88001 12.4445 7.88854C12.4398 7.89707 12.4374 7.90622 12.4374 7.91546Z" fill="#007C3A"/>
<path d="M12.5309 7.84541C12.4794 7.84532 12.4376 7.87675 12.4376 7.91562C12.4375 7.95449 12.4792 7.98608 12.5306 7.98617C12.5821 7.98626 12.6239 7.95482 12.624 7.91595C12.624 7.87708 12.5824 7.8455 12.5309 7.84541Z" fill="white"/>
</g>
<defs>
<clipPath id="clip0_1258_6580">
<rect width="21" height="15" rx="3" fill="white"/>
</clipPath>
</defs>
</svg>
