<svg width="21" height="15" viewBox="0 0 21 15" fill="none" xmlns="http://www.w3.org/2000/svg">
<g clip-path="url(#clip0_1258_6659)">
<rect width="21" height="15" rx="3" fill="#F93939"/>
<path d="M19 0H2C0.89543 0 0 0.89543 0 2V13C0 14.1046 0.89543 15 2 15H19C20.1046 15 21 14.1046 21 13V2C21 0.89543 20.1046 0 19 0Z" fill="#CD022B"/>
<path fill-rule="evenodd" clip-rule="evenodd" d="M0 8H21V15H0V8Z" fill="#151515"/>
<path fill-rule="evenodd" clip-rule="evenodd" d="M12.451 9.58586C12.885 9.00386 13.141 8.28186 13.141 7.49986C13.141 6.03286 12.238 4.77686 10.958 4.25586L10.353 5.10286C11.387 5.40986 12.141 6.36686 12.141 7.49986C12.141 8.09386 11.934 8.63986 11.588 9.06786L8.141 6.99986L10.837 9.69586C10.482 9.88986 10.074 9.99986 9.641 9.99986C8.801 9.99986 8.058 9.58586 7.605 8.94986L7 9.79686C7.641 10.5339 8.586 10.9999 9.641 10.9999C10.351 10.9999 11.013 10.7879 11.565 10.4239L12.141 10.9999L13.141 9.99986L12.451 9.58586ZM8.141 4.99986H9.141V5.99986H8.141V4.99986Z" fill="#FFCC00"/>
</g>
<defs>
<clipPath id="clip0_1258_6659">
<rect width="21" height="15" rx="3" fill="white"/>
</clipPath>
</defs>
</svg>
