<svg width="21" height="15" viewBox="0 0 21 15" fill="none" xmlns="http://www.w3.org/2000/svg">
<g clip-path="url(#clip0_1258_6545)">
<rect width="21" height="15" rx="3" fill="#0066B3"/>
<path fill-rule="evenodd" clip-rule="evenodd" d="M0 0H7V15H0V0Z" fill="#DB1A2D"/>
<path fill-rule="evenodd" clip-rule="evenodd" d="M2 7H3V11H2V7ZM5 7H6V11H5V7Z" fill="#FFD400"/>
<path d="M4 11C4.55228 11 5 10.5523 5 10C5 9.44772 4.55228 9 4 9C3.44772 9 3 9.44772 3 10C3 10.5523 3.44772 11 4 11Z" fill="#FFD400"/>
<path d="M4 8C4.55228 8 5 7.55228 5 7C5 6.44772 4.55228 6 4 6C3.44772 6 3 6.44772 3 7C3 7.55228 3.44772 8 4 8Z" fill="#FFD400"/>
<path fill-rule="evenodd" clip-rule="evenodd" d="M4 3L5 5H3L4 3Z" fill="#FFD400"/>
<path fill-rule="evenodd" clip-rule="evenodd" d="M14 0H21V15H14V0Z" fill="#DB1A2D"/>
</g>
<defs>
<clipPath id="clip0_1258_6545">
<rect width="21" height="15" rx="3" fill="white"/>
</clipPath>
</defs>
</svg>
