<svg width="21" height="15" viewBox="0 0 21 15" fill="none" xmlns="http://www.w3.org/2000/svg">
<g clip-path="url(#clip0_1258_6503)">
<rect width="21" height="15" rx="3" fill="#2049A6"/>
<path fill-rule="evenodd" clip-rule="evenodd" d="M0 10H21V15H0V10Z" fill="#EE151F"/>
<path fill-rule="evenodd" clip-rule="evenodd" d="M0 0H21V5H0V0ZM9.93 10H10V5H3V10H3.07C3.024 10.162 3 10.33 3 10.5C3 11.88 6.5 13 6.5 13C6.5 13 10 11.88 10 10.5C10 10.33 9.976 10.162 9.93 10Z" fill="white"/>
<path fill-rule="evenodd" clip-rule="evenodd" d="M9 10V4H4V10C4 11.105 6.5 12 6.5 12C6.5 12 9 11.105 9 10Z" fill="#EE151F"/>
<path fill-rule="evenodd" clip-rule="evenodd" d="M6 8V7H5V6H6V5H7V6H8V7H7V8H8.5V9H7V10H6V9H4.5V8H6Z" fill="white"/>
<path fill-rule="evenodd" clip-rule="evenodd" d="M6.5 12.0001C6.5 12.0001 9 11.1051 9 10.0001C9 8.89507 8 9.00007 6.5 10.0001C5 9.00007 4 8.89507 4 10.0001C4 11.1051 6.5 12.0001 6.5 12.0001Z" fill="#2049A6"/>
</g>
<defs>
<clipPath id="clip0_1258_6503">
<rect width="21" height="15" rx="3" fill="white"/>
</clipPath>
</defs>
</svg>
