<svg width="21" height="15" viewBox="0 0 21 15" fill="none" xmlns="http://www.w3.org/2000/svg">
<g clip-path="url(#clip0_1258_6632)">
<path d="M19 0H2C0.89543 0 0 0.89543 0 2V13C0 14.1046 0.89543 15 2 15H19C20.1046 15 21 14.1046 21 13V2C21 0.89543 20.1046 0 19 0Z" fill="#CE1126"/>
<path fill-rule="evenodd" clip-rule="evenodd" d="M10.5 8.75L9.03001 9.523L9.31001 7.886L8.12201 6.726L9.76501 6.489L10.5 5L11.235 6.49L12.878 6.727L11.688 7.887L11.968 9.523" fill="#FCD116"/>
<path fill-rule="evenodd" clip-rule="evenodd" d="M14 0H21V15H14V0Z" fill="#FCD116"/>
<path fill-rule="evenodd" clip-rule="evenodd" d="M0 0H7V15H0V0Z" fill="#007B5E"/>
</g>
<defs>
<clipPath id="clip0_1258_6632">
<rect width="21" height="15" rx="3" fill="white"/>
</clipPath>
</defs>
</svg>
