<svg width="21" height="15" viewBox="0 0 21 15" fill="none" xmlns="http://www.w3.org/2000/svg">
<g clip-path="url(#clip0_1258_6501)">
<rect width="21" height="15" rx="3" fill="#0050BB"/>
<path fill-rule="evenodd" clip-rule="evenodd" d="M0 15H21V0L0 15Z" fill="#FCD20F"/>
<path fill-rule="evenodd" clip-rule="evenodd" d="M2 15H21V2L2 15Z" fill="#1B5B30"/>
<path fill-rule="evenodd" clip-rule="evenodd" d="M5.12201 5.658L4.50401 6L4.62201 5.276L4.12201 4.764L4.81201 4.658L5.12201 4L5.43201 4.658L6.12201 4.764L5.62201 5.276L5.74001 6L5.12201 5.658ZM3.12201 3.658L2.50401 4L2.62201 3.276L2.12201 2.764L2.81201 2.658L3.12201 2L3.43201 2.658L4.12201 2.764L3.62201 3.276L3.74001 4L3.12201 3.658ZM7.12201 3.658L6.50401 4L6.62201 3.276L6.12201 2.764L6.81201 2.658L7.12201 2L7.43201 2.658L8.12201 2.764L7.62201 3.276L7.74001 4L7.12201 3.658ZM7.12201 7.658L6.50401 8L6.62201 7.276L6.12201 6.764L6.81201 6.658L7.12201 6L7.43201 6.658L8.12201 6.764L7.62201 7.276L7.74001 8L7.12201 7.658ZM3.12201 7.658L2.50401 8L2.62201 7.276L2.12201 6.764L2.81201 6.658L3.12201 6L3.43201 6.658L4.12201 6.764L3.62201 7.276L3.74001 8L3.12201 7.658Z" fill="white"/>
</g>
<defs>
<clipPath id="clip0_1258_6501">
<rect width="21" height="15" rx="3" fill="white"/>
</clipPath>
</defs>
</svg>
