<svg width="21" height="15" viewBox="0 0 21 15" fill="none" xmlns="http://www.w3.org/2000/svg">
<g clip-path="url(#clip0_1258_6570)">
<rect width="21" height="15" rx="3" fill="#C90707"/>
<path d="M10.5 11C12.433 11 14 9.433 14 7.5C14 5.567 12.433 4 10.5 4C8.567 4 7 5.567 7 7.5C7 9.433 8.567 11 10.5 11Z" fill="#F8D100"/>
<path fill-rule="evenodd" clip-rule="evenodd" d="M0 8H21V15H0V8Z" fill="#112C70"/>
<path fill-rule="evenodd" clip-rule="evenodd" d="M0 8H21V9H0V8ZM0 10H21V11H0V10ZM0 12H21V13H0V12Z" fill="white"/>
<path fill-rule="evenodd" clip-rule="evenodd" d="M8 2L10.5 3L13 2H8Z" fill="#F8D100"/>
</g>
<defs>
<clipPath id="clip0_1258_6570">
<rect width="21" height="15" rx="3" fill="white"/>
</clipPath>
</defs>
</svg>
