<svg width="21" height="15" viewBox="0 0 21 15" fill="none" xmlns="http://www.w3.org/2000/svg">
<g clip-path="url(#clip0_1258_6607)">
<rect width="21" height="15" rx="3" fill="#3F90DF"/>
<path d="M19 0H2C0.89543 0 0 0.89543 0 2V13C0 14.1046 0.89543 15 2 15H19C20.1046 15 21 14.1046 21 13V2C21 0.89543 20.1046 0 19 0Z" fill="#3F90DF"/>
<path fill-rule="evenodd" clip-rule="evenodd" d="M0 0H21V8H0V0Z" fill="#41B125"/>
<path fill-rule="evenodd" clip-rule="evenodd" d="M0 0L21 7.5L0 15V0Z" fill="#E50027"/>
<path fill-rule="evenodd" clip-rule="evenodd" d="M9 7.49998C9 6.11998 7.88 4.99998 6.5 4.49998C5.12 4.99998 4 6.11998 4 7.49998C4 8.70998 4.86 9.71798 6 9.94998V6.49798C6 6.22298 6.232 5.99998 6.5 5.99998C6.776 5.99998 7 6.21498 7 6.49798V9.94998C8.14 9.71798 9 8.70998 9 7.49998ZM10 7.49998C10 5.56698 8.433 3.99998 6.5 4.49998C4.567 3.99998 3 5.56698 3 7.49998C3 9.43298 4.567 11 6.5 11C8.433 11 10 9.43298 10 7.49998Z" fill="#FFDA2C"/>
</g>
<defs>
<clipPath id="clip0_1258_6607">
<rect width="21" height="15" rx="3" fill="white"/>
</clipPath>
</defs>
</svg>
