<svg width="21" height="15" viewBox="0 0 21 15" fill="none" xmlns="http://www.w3.org/2000/svg">
<g clip-path="url(#clip0_1258_6498)">
<rect width="21" height="15" rx="3" fill="white"/>
<path fill-rule="evenodd" clip-rule="evenodd" d="M14 7.5C14 9.433 12.433 11 10.5 11C8.567 11 7 9.433 7 7.5C7 6.38 9.35 5.91 11.328 6.087C11.538 6.031 11.764 6 12 6C13.105 6 14 6.672 14 7.5Z" fill="#0047A0"/>
<path fill-rule="evenodd" clip-rule="evenodd" d="M10 7C10 7 10.895 6 12 6C13.105 6 14 6.672 14 7.5C14 5.567 12.433 4 10.5 4C9.103 4 7.897 4.818 7.336 6.002C7 7 7 7.292 7 7.5C7.5 8 8.056 8 8.5 8C8.944 8 9.343 7.807 9.618 7.5L10 7Z" fill="#CD2E3A"/>
<mask id="mask0_1258_6498" style="mask-type:luminance" maskUnits="userSpaceOnUse" x="-1" y="0" width="23" height="15">
<path d="M-0.25 0.351074H21.2468V14.6492H-0.25V0.351074Z" fill="white"/>
</mask>
<g mask="url(#mask0_1258_6498)">
<path fill-rule="evenodd" clip-rule="evenodd" d="M-0.25 0.351074H21.25V14.6492H-0.25V0.351074Z" fill="white"/>
<path fill-rule="evenodd" clip-rule="evenodd" d="M14 7.5C14 9.433 12.433 11 10.5 11C8.567 11 7 9.433 7 7.5C7 6.38 9.35 5.91 11.328 6.087C11.538 6.031 11.764 6 12 6C13.105 6 14 6.672 14 7.5Z" fill="#0047A0"/>
<path fill-rule="evenodd" clip-rule="evenodd" d="M10 7C10 7 10.895 6 12 6C13.105 6 14 6.672 14 7.5C14 5.567 12.433 4 10.5 4C9.103 4 7.897 4.818 7.336 6.002C7 7 7 7.292 7 7.5C7.5 8 8.056 8 8.5 8C8.944 8 9.343 7.807 9.618 7.5L10 7Z" fill="#CD2E3A"/>
<path fill-rule="evenodd" clip-rule="evenodd" d="M3.19659 4.70142L5.18857 1.74196L5.66297 2.05544L3.67099 5.0149L3.19659 4.70142ZM3.90819 5.17164L5.90017 2.21219L6.37457 2.52567L4.38259 5.48513L3.90819 5.17164ZM4.61979 5.64187L6.61177 2.68241L7.08617 2.9959L5.09419 5.95536L4.61979 5.64187Z" fill="#000008"/>
<path fill-rule="evenodd" clip-rule="evenodd" d="M13.8911 11.8335L15.8831 8.87404L16.3575 9.18752L14.3655 12.147L13.8911 11.8335ZM14.6027 12.3037L16.5947 9.34427L17.0691 9.65775L15.0771 12.6172L14.6027 12.3037ZM15.3143 12.774L17.3063 9.81449L17.7807 10.128L15.7887 13.0874L15.3143 12.774Z" fill="#000008"/>
<path fill-rule="evenodd" clip-rule="evenodd" d="M14.6204 10.1702L17.0509 11.7911L14.6204 10.1702Z" fill="#000008"/>
<path d="M14.6204 10.1702L14.5399 10.2909L16.9704 11.9119L17.0509 11.7911L17.1315 11.6704L14.701 10.0494L14.6204 10.1702Z" fill="white"/>
<path fill-rule="evenodd" clip-rule="evenodd" d="M5.19672 13.0884L3.20474 10.1289L3.67914 9.81543L5.67112 12.7749L5.19672 13.0884ZM5.90832 12.6182L3.91634 9.65869L4.39074 9.34521L6.38272 12.3047L5.90832 12.6182ZM6.61992 12.1479L4.62794 9.18846L5.10234 8.87498L7.09432 11.8344L6.61992 12.1479Z" fill="#000008"/>
<path fill-rule="evenodd" clip-rule="evenodd" d="M15.8912 5.9563L13.8993 2.99684L14.3737 2.68335L16.3656 5.64281L15.8912 5.9563ZM16.6028 5.48607L14.6109 2.52661L15.0853 2.21313L17.0772 5.17259L16.6028 5.48607ZM17.3144 5.01584L15.3225 2.05638L15.7969 1.7429L17.7888 4.70236L17.3144 5.01584Z" fill="#000008"/>
<path fill-rule="evenodd" clip-rule="evenodd" d="M4.7851 11.2249L5.51425 10.7386L4.7851 11.2249ZM14.6287 4.65997L15.4794 4.09263L14.6287 4.65997ZM16.2086 3.60634L16.9377 3.12005L16.2086 3.60634Z" fill="#000008"/>
<path d="M4.7851 11.2249L4.86564 11.3456L5.59479 10.8593L5.51425 10.7386L5.43371 10.6178L4.70455 11.1041L4.7851 11.2249ZM14.6287 4.65997L14.7093 4.78073L15.56 4.2134L15.4794 4.09263L15.3989 3.97186L14.5482 4.5392L14.6287 4.65997ZM16.2086 3.60634L16.2891 3.72711L17.0183 3.24082L16.9377 3.12005L16.8572 2.99929L16.128 3.48558L16.2086 3.60634Z" fill="white"/>
</g>
</g>
<defs>
<clipPath id="clip0_1258_6498">
<rect width="21" height="15" rx="3" fill="white"/>
</clipPath>
</defs>
</svg>
