<svg width="21" height="15" viewBox="0 0 21 15" fill="none" xmlns="http://www.w3.org/2000/svg">
<g clip-path="url(#clip0_1258_6524)">
<rect width="21" height="15" rx="3" fill="white"/>
<path fill-rule="evenodd" clip-rule="evenodd" d="M0 10H21V15H0V10Z" fill="#0035A9"/>
<path fill-rule="evenodd" clip-rule="evenodd" d="M11.97 7.19995C11.99 7.29695 12 7.39695 12 7.49995C12 8.32795 11.328 8.99995 10.5 8.99995C9.672 8.99995 9 8.32795 9 7.49995C9 7.39695 9.01 7.29695 9.03 7.19995C9.17 7.65595 9.774 7.99995 10.5 7.99995C11.226 7.99995 11.83 7.65595 11.97 7.19995Z" fill="#018430"/>
<path d="M10.5 7C10.7761 7 11 6.77614 11 6.5C11 6.22386 10.7761 6 10.5 6C10.2239 6 10 6.22386 10 6.5C10 6.77614 10.2239 7 10.5 7Z" fill="#FFDA2C"/>
<path fill-rule="evenodd" clip-rule="evenodd" d="M0 0H21V5H0V0Z" fill="#D62718"/>
</g>
<defs>
<clipPath id="clip0_1258_6524">
<rect width="21" height="15" rx="3" fill="white"/>
</clipPath>
</defs>
</svg>
