<svg width="21" height="15" viewBox="0 0 21 15" fill="none" xmlns="http://www.w3.org/2000/svg">
<g clip-path="url(#clip0_1258_6581)">
<rect width="21" height="15" rx="3" fill="white"/>
<path fill-rule="evenodd" clip-rule="evenodd" d="M0 10H21V15H0V10Z" fill="#DB0000"/>
<path fill-rule="evenodd" clip-rule="evenodd" d="M10.5 9C11.88 9 13 8.328 13 7.5C13 6.672 11.88 6 10.5 6C9.12 6 8 6.672 8 7.5C8 8.328 9.12 9 10.5 9ZM10.5 8.25C11.328 8.25 12 7.746 12 7.125C12 6.505 11.328 6 10.5 6C9.672 6 9 6.504 9 7.125C9 7.745 9.672 8.25 10.5 8.25Z" fill="#DB0000"/>
<path d="M10.5 8C10.7761 8 11 7.55228 11 7C11 6.44772 10.7761 6 10.5 6C10.2239 6 10 6.44772 10 7C10 7.55228 10.2239 8 10.5 8Z" fill="#DB0000"/>
<path fill-rule="evenodd" clip-rule="evenodd" d="M0 0H21V5H0V0Z" fill="#1DA03E"/>
<rect x="1.48718" y="4.75" width="1.01929" height="0.25" fill="white"/>
<rect x="3.50452" y="4.75" width="2" height="0.25" fill="white"/>
<rect x="6.51355" y="4.75" width="2" height="0.25" fill="white"/>
<rect x="9.51123" y="4.75" width="2" height="0.25" fill="white"/>
<rect x="12.5093" y="4.75" width="2" height="0.25" fill="white"/>
<rect x="15.5073" y="4.75" width="2" height="0.25" fill="white"/>
<rect x="18.5054" y="4.75" width="1.00745" height="0.25" fill="white"/>
<rect x="1.48718" y="10" width="1.01929" height="0.25" fill="white"/>
<rect x="3.50452" y="10" width="2" height="0.25" fill="white"/>
<rect x="6.51355" y="10" width="2" height="0.25" fill="white"/>
<rect x="9.51123" y="10" width="2" height="0.25" fill="white"/>
<rect x="12.5093" y="10" width="2" height="0.25" fill="white"/>
<rect x="15.5073" y="10" width="2" height="0.25" fill="white"/>
<rect x="18.5054" y="10" width="1.00745" height="0.25" fill="white"/>
</g>
<defs>
<clipPath id="clip0_1258_6581">
<rect width="21" height="15" rx="3" fill="white"/>
</clipPath>
</defs>
</svg>
