<svg width="21" height="15" viewBox="0 0 21 15" fill="none" xmlns="http://www.w3.org/2000/svg">
<g clip-path="url(#clip0_1258_6627)">
<rect width="21" height="15" rx="3" fill="white"/>
<path d="M19 0H2C0.89543 0 0 0.89543 0 2V13C0 14.1046 0.89543 15 2 15H19C20.1046 15 21 14.1046 21 13V2C21 0.89543 20.1046 0 19 0Z" fill="white"/>
<path fill-rule="evenodd" clip-rule="evenodd" d="M0 8H21V15H0V8Z" fill="#DA291C"/>
<path fill-rule="evenodd" clip-rule="evenodd" d="M0 0H9V8H0V0Z" fill="#0032A0"/>
<path fill-rule="evenodd" clip-rule="evenodd" d="M4.50001 5.22707L3.03001 6.00007L3.31001 4.36407L2.12201 3.20407L3.76501 2.96607L4.50001 1.47607L5.23501 2.96607L6.87801 3.20607L5.68801 4.36407L5.97001 6.00007" fill="white"/>
</g>
<defs>
<clipPath id="clip0_1258_6627">
<rect width="21" height="15" rx="3" fill="white"/>
</clipPath>
</defs>
</svg>
