<svg width="21" height="15" viewBox="0 0 21 15" fill="none" xmlns="http://www.w3.org/2000/svg">
<g clip-path="url(#clip0_1258_6621)">
<rect width="21" height="15" rx="3" fill="white"/>
<path fill-rule="evenodd" clip-rule="evenodd" d="M0 0H21V5H0V0Z" fill="#F93939"/>
<path fill-rule="evenodd" clip-rule="evenodd" d="M0 10H21V15H0V10Z" fill="#101097"/>
<mask id="mask0_1258_6621" style="mask-type:alpha" maskUnits="userSpaceOnUse" x="8" y="5" width="5" height="6">
<path d="M13 8.5C13 9.88 11.88 11 10.5 11C9.12 11 8 9.88 8 8.5V5H13V8.5Z" fill="white"/>
</mask>
<g mask="url(#mask0_1258_6621)">
<path d="M13 8.5C13 9.88 11.88 11 10.5 11C9.12 11 8 9.88 8 8.5V5H13V8.5Z" fill="#F93939"/>
<path fill-rule="evenodd" clip-rule="evenodd" d="M9 10H10V11H9V10ZM11 10H12V11H11V10ZM10 9H11V10H10V9ZM9 8H10V9H9V8ZM11 8H12V9H11V8ZM10 7H11V8H10V7ZM9 6H10V7H9V6ZM11 6H12V7H11V6ZM10 5H11V6H10V5ZM12 5H13V6H12V5ZM12 7H13V8H12V7ZM12 9H13V10H12V9ZM8 9H9V10H8V9ZM8 7H9V8H8V7ZM8 5H9V6H8V5Z" fill="white"/>
</g>
</g>
<defs>
<clipPath id="clip0_1258_6621">
<rect width="21" height="15" rx="3" fill="white"/>
</clipPath>
</defs>
</svg>
