<svg width="21" height="15" viewBox="0 0 21 15" fill="none" xmlns="http://www.w3.org/2000/svg">
<g clip-path="url(#clip0_1258_6571)">
<rect width="21" height="15" rx="3" fill="#151515"/>
<path fill-rule="evenodd" clip-rule="evenodd" d="M0 11H21V15H0V11Z" fill="#006600"/>
<path fill-rule="evenodd" clip-rule="evenodd" d="M0 10H21V11H0V10Z" fill="white"/>
<path fill-rule="evenodd" clip-rule="evenodd" d="M0 5H21V10H0V5Z" fill="#BC0000"/>
<path fill-rule="evenodd" clip-rule="evenodd" d="M0 4H21V5H0V4Z" fill="white"/>
<path fill-rule="evenodd" clip-rule="evenodd" d="M12.414 5.91406C12.486 5.91406 12.914 5.24406 12.914 4.41406C12.914 3.58606 12.486 2.91406 12.414 2.91406C12.344 2.91406 11.914 3.58606 11.914 4.41406C11.914 5.24406 12.344 5.91406 12.414 5.91406ZM9.47501 5.47506C9.42501 5.52506 8.64501 5.35506 8.06101 4.76806C7.47601 4.18206 7.30401 3.40406 7.35501 3.35406C7.40501 3.30406 8.18301 3.47406 8.76901 4.06106C9.35501 4.64706 9.52601 5.42506 9.47601 5.47606L9.47501 5.47506ZM11.354 10.0081C11.404 9.96106 12.184 10.1211 12.769 10.6681C13.354 11.2181 13.526 11.9451 13.476 11.9921C13.426 12.0391 12.646 11.8791 12.06 11.3321C11.475 10.7821 11.303 10.0551 11.354 10.0081ZM9.47501 10.0081C9.42501 9.96106 8.64501 10.1211 8.06101 10.6681C7.47601 11.2181 7.30401 11.9451 7.35501 11.9921C7.40501 12.0391 8.18301 11.8791 8.76901 11.3321C9.35501 10.7821 9.52601 10.0551 9.47601 10.0081H9.47501Z" fill="white"/>
<path fill-rule="evenodd" clip-rule="evenodd" d="M10.5 12C10.857 12 13 9.985 13 7.5C13 5.015 10.857 3 10.5 3C10.143 3 8 5.015 8 7.5C8 9.985 10.143 12 10.5 12Z" fill="#BC0000"/>
<path fill-rule="evenodd" clip-rule="evenodd" d="M8.5 9C8.57 9 9 8.328 9 7.5C9 6.672 8.57 6 8.5 6C8.43 6 8 6.672 8 7.5C8 8.328 8.43 9 8.5 9ZM12.5 9C12.57 9 13 8.328 13 7.5C13 6.672 12.57 6 12.5 6C12.43 6 12 6.672 12 7.5C12 8.328 12.43 9 12.5 9Z" fill="#151515"/>
<path d="M11 7.5C11 6.67157 10.7761 6 10.5 6C10.2239 6 10 6.67157 10 7.5C10 8.32843 10.2239 9 10.5 9C10.7761 9 11 8.32843 11 7.5Z" fill="white"/>
</g>
<defs>
<clipPath id="clip0_1258_6571">
<rect width="21" height="15" rx="3" fill="white"/>
</clipPath>
</defs>
</svg>
