<svg width="21" height="15" viewBox="0 0 21 15" fill="none" xmlns="http://www.w3.org/2000/svg">
<g clip-path="url(#clip0_1258_6595)">
<rect width="21" height="15" rx="3" fill="white"/>
<path fill-rule="evenodd" clip-rule="evenodd" d="M0 0H4V4H0V0ZM6 0H10V4H6V0ZM0 6H4V10H0V6ZM6 6H10V10H6V6ZM10 0H21V2H10V0ZM10 4H21V6H10V4Z" fill="#055EB0"/>
<path fill-rule="evenodd" clip-rule="evenodd" d="M0 8H21V10H0V8ZM4 8H6V10H4V8ZM0 12H21V14H0V12Z" fill="#055EB0"/>
</g>
<defs>
<clipPath id="clip0_1258_6595">
<rect width="21" height="15" rx="3" fill="white"/>
</clipPath>
</defs>
</svg>
