<svg width="21" height="15" viewBox="0 0 21 15" fill="none" xmlns="http://www.w3.org/2000/svg">
<g clip-path="url(#clip0_1258_6465)">
<rect width="21" height="15" rx="3" fill="#006400"/>
<path fill-rule="evenodd" clip-rule="evenodd" d="M0 2H21V13H0V2Z" fill="#FFD300"/>
<path fill-rule="evenodd" clip-rule="evenodd" d="M0 4H21V11H0V4Z" fill="#D50000"/>
<path fill-rule="evenodd" clip-rule="evenodd" d="M0 6H21V9H0V6Z" fill="#151515"/>
<path fill-rule="evenodd" clip-rule="evenodd" d="M1 0L12 7.5L1 15H0V0" fill="#151515"/>
<path fill-rule="evenodd" clip-rule="evenodd" d="M0 0L11 7.5L0 15V0Z" fill="white"/>
<path fill-rule="evenodd" clip-rule="evenodd" d="M4.50001 8.75L3.03001 9.523L3.31001 7.886L2.12201 6.726L3.76501 6.489L4.50001 5L5.23501 6.49L6.87801 6.727L5.68801 7.887L5.96801 9.523" fill="#D50000"/>
<path fill-rule="evenodd" clip-rule="evenodd" d="M3 9H6V8L5 7C5 7 5 6 4 6H3L4 7L3 9Z" fill="#FFD300"/>
</g>
<defs>
<clipPath id="clip0_1258_6465">
<rect width="21" height="15" rx="3" fill="white"/>
</clipPath>
</defs>
</svg>
