<svg width="21" height="15" viewBox="0 0 21 15" fill="none" xmlns="http://www.w3.org/2000/svg">
<g clip-path="url(#clip0_1258_6542)">
<rect width="21" height="15" rx="3" fill="#151515"/>
<path fill-rule="evenodd" clip-rule="evenodd" d="M0 10H21V15H0V10Z" fill="#FCE200"/>
<path fill-rule="evenodd" clip-rule="evenodd" d="M0 0H21V5H0V0Z" fill="#007268"/>
<path opacity="0.35" fill-rule="evenodd" clip-rule="evenodd" d="M0 0H21V5H0V0Z" fill="#1A47B8"/>
<path fill-rule="evenodd" clip-rule="evenodd" d="M0 4H21V5H0V4ZM0 10H21V11H0V10Z" fill="white"/>
<path fill-rule="evenodd" clip-rule="evenodd" d="M0 0V15.033L10 7.5L0 0Z" fill="#D30731"/>
<path fill-rule="evenodd" clip-rule="evenodd" d="M3.378 8.75L1.908 9.523L2.188 7.886L1 6.726L2.643 6.489L3.378 5L4.112 6.49L5.755 6.727L4.565 7.887L4.847 9.523" fill="#FCE200"/>
<path fill-rule="evenodd" clip-rule="evenodd" d="M2.28 6.38403L2.634 6.03003L4.754 8.15203L4.402 8.50503L2.28 6.38503V6.38403Z" fill="#151515"/>
<path fill-rule="evenodd" clip-rule="evenodd" d="M4.755 6.38403L4.402 6.03003L2.28 8.15203L2.634 8.50503L4.754 6.38503L4.755 6.38403Z" fill="#151515"/>
</g>
<defs>
<clipPath id="clip0_1258_6542">
<rect width="21" height="15" rx="3" fill="white"/>
</clipPath>
</defs>
</svg>
