<svg width="21" height="15" viewBox="0 0 21 15" fill="none" xmlns="http://www.w3.org/2000/svg">
<g clip-path="url(#clip0_1258_6589)">
<rect width="21" height="15" rx="3" fill="#D30731"/>
<path fill-rule="evenodd" clip-rule="evenodd" d="M0 0H21V8H0V0Z" fill="#001AA0"/>
<path fill-rule="evenodd" clip-rule="evenodd" d="M6 5H14.3333V10H6V5Z" fill="white"/>
<path fill-rule="evenodd" clip-rule="evenodd" d="M9.33344 6.66675H11.0001V10.0001H9.33344V6.66675Z" fill="#FFDA2C"/>
<path fill-rule="evenodd" clip-rule="evenodd" d="M7.66656 7.5C7.66656 6.12 8.77656 5 10.1666 5C11.5466 5 12.6666 6.11 12.6666 7.5V10H7.66656V7.5ZM9.33323 7.50833C9.33323 7.04167 9.7199 6.66667 10.1666 6.66667C10.6266 6.66667 10.9999 7.02333 10.9999 7.50833V10H9.33323V7.50833Z" fill="#249F58"/>
</g>
<defs>
<clipPath id="clip0_1258_6589">
<rect width="21" height="15" rx="3" fill="white"/>
</clipPath>
</defs>
</svg>
