<svg width="24" height="24" viewBox="0 0 24 24" fill="none" xmlns="http://www.w3.org/2000/svg">
<path d="M12 2.49976C13.9873 2.49976 15.8948 3.28024 17.3018 4.67163C18.7087 6.06314 19.4998 7.95239 19.5 9.92261C19.5 12.4937 18.377 14.8123 17.0488 16.6589C15.7182 18.509 14.1511 19.9274 13.1934 20.7117C12.9446 20.9153 12.7269 21.1038 12.4062 21.1941C12.1615 21.263 11.8375 21.263 11.5928 21.1941C11.2725 21.1038 11.0536 20.9139 10.8066 20.7117C9.84882 19.9274 8.28193 18.5082 6.95117 16.658C5.62301 14.8112 4.5 12.4936 4.5 9.92261C4.50007 7.95215 5.29119 6.06322 6.69824 4.67163C8.10514 3.28027 10.0127 2.49978 12 2.49976ZM12 6.55054C10.6193 6.55054 9.5 7.66983 9.5 9.05054C9.50012 10.4311 10.6194 11.5505 12 11.5505C13.3806 11.5505 14.4999 10.4311 14.5 9.05054C14.5 7.66983 13.3807 6.55054 12 6.55054Z" fill="#9AA5A8"/>
</svg>
