<svg width="20" height="20" viewBox="0 0 20 20" fill="none" xmlns="http://www.w3.org/2000/svg">
<path d="M4.16699 8.26904C4.16699 12.3122 7.70405 15.6558 9.26965 16.9377C9.49371 17.1211 9.60709 17.214 9.77425 17.261C9.90441 17.2977 10.096 17.2977 10.2262 17.261C10.3936 17.2139 10.5062 17.122 10.7311 16.9378C12.2967 15.6559 15.8336 12.3126 15.8336 8.26941C15.8336 6.73932 15.219 5.27171 14.1251 4.18977C13.0311 3.10783 11.5475 2.5 10.0004 2.5C8.4533 2.5 6.9695 3.10792 5.87554 4.18986C4.78157 5.2718 4.16699 6.73895 4.16699 8.26904Z" stroke="#4E585A" stroke-width="1.5" stroke-linecap="round" stroke-linejoin="round"/>
<path d="M8.33366 7.5C8.33366 8.42047 9.07985 9.16667 10.0003 9.16667C10.9208 9.16667 11.667 8.42047 11.667 7.5C11.667 6.57953 10.9208 5.83333 10.0003 5.83333C9.07985 5.83333 8.33366 6.57953 8.33366 7.5Z" stroke="#4E585A" stroke-width="1.5" stroke-linecap="round" stroke-linejoin="round"/>
</svg>
