<svg width="20" height="20" viewBox="0 0 20 20" fill="none" xmlns="http://www.w3.org/2000/svg">
<path d="M2.5 8.21173C2.5 7.3584 3.19176 6.66665 4.04508 6.66665C4.63032 6.66665 5.16533 6.33599 5.42705 5.81254L6.11111 4.44442C6.11378 4.43908 6.11512 4.43641 6.11637 4.43393C6.45523 3.76087 7.14364 3.33541 7.89719 3.33332C7.89996 3.33331 7.90295 3.33331 7.90893 3.33331H12.0911C12.0971 3.33331 12.1 3.33331 12.1028 3.33332C12.8564 3.33541 13.5448 3.76087 13.8836 4.43393C13.8849 4.43641 13.8862 4.43908 13.8889 4.44442L14.5729 5.81254C14.8347 6.33599 15.3697 6.66665 15.9549 6.66665C16.8082 6.66665 17.5 7.3584 17.5 8.21173V12.3809C17.5 13.5779 17.5 14.1764 17.3316 14.6575C17.0301 15.5192 16.3526 16.1968 15.4908 16.4983C15.0097 16.6666 14.4112 16.6666 13.2143 16.6666H6.78571C5.58876 16.6666 4.99028 16.6666 4.50916 16.4983C3.64742 16.1968 2.96989 15.5192 2.66835 14.6575C2.5 14.1764 2.5 13.5779 2.5 12.3809V8.21173Z" stroke="#D0D6D7" stroke-width="1.5"/>
<circle cx="10.0003" cy="10.8333" r="2.58333" stroke="#D0D6D7" stroke-width="1.5"/>
</svg>
