<svg width="24" height="24" viewBox="0 0 24 24" fill="none" xmlns="http://www.w3.org/2000/svg">
<path d="M7 5.5L10 3.5H15L18.5 7L19 13.5L20 15.5V16C20 16.5523 19.5523 17 19 17H5C4.44772 17 4 16.5523 4 16V15.5L5.5 13.5V8L7 5.5Z" fill="#316CED"/>
<path d="M14.9023 18.75C14.569 20.0435 13.3976 21 12 21C10.6024 21 9.43095 20.0435 9.09766 18.75H14.9023ZM12 15C13.5726 15 14.8612 16.2102 14.9883 17.75H9.01172C9.13881 16.2102 10.4274 15 12 15Z" fill="#316CED"/>
<path d="M15.6741 18.75C15.3266 20.4616 13.8135 21.75 11.9993 21.75C10.1852 21.7499 8.67192 20.4616 8.32448 18.75H9.88015C10.1892 19.6234 11.02 20.2499 11.9993 20.25C12.9786 20.25 13.8093 19.6234 14.1184 18.75H15.6741ZM11.9993 2.25C16.2795 2.24999 19.7493 5.71979 19.7493 10V13.6895L20.1155 14.0557C20.2169 14.1571 20.3298 14.2663 20.4212 14.3936C20.5796 14.6142 20.6825 14.8671 20.7258 15.1309C20.7512 15.2853 20.7493 15.4402 20.7493 15.5859C20.7493 15.9109 20.7592 16.258 20.6575 16.5596C20.4832 17.0763 20.0776 17.4832 19.5589 17.6582C19.3334 17.7342 19.0824 17.748 18.8352 17.75H5.16432C4.91714 17.748 4.66634 17.7342 4.44069 17.6582C3.92329 17.4836 3.51581 17.0775 3.34108 16.5596C3.2394 16.2581 3.24929 15.9109 3.24929 15.5859C3.24929 15.4417 3.24733 15.2856 3.27272 15.1309C3.31631 14.8655 3.41996 14.6129 3.57741 14.3936C3.66867 14.2665 3.7803 14.1584 3.88307 14.0557L4.24929 13.6895V10C4.24929 5.71986 7.71918 2.25011 11.9993 2.25ZM11.9993 3.75C8.5476 3.75011 5.74929 6.54829 5.74929 10V13.7227C5.74923 14.0996 5.59919 14.4606 5.33327 14.7266L4.94362 15.1162C4.88132 15.1785 4.84623 15.2139 4.82057 15.2412C4.80448 15.2584 4.79785 15.2664 4.79616 15.2686C4.77403 15.2994 4.75853 15.3356 4.75222 15.374C4.75188 15.3769 4.75098 15.3873 4.75026 15.4102C4.74908 15.4478 4.74929 15.4974 4.74929 15.5859C4.74929 15.7872 4.74909 15.9074 4.75417 15.9971C4.75895 16.0812 4.76631 16.0929 4.76198 16.0801C4.78679 16.1536 4.84524 16.2122 4.91921 16.2373C4.90708 16.2333 4.91929 16.2404 5.00124 16.2451C5.09002 16.2502 5.20905 16.25 5.40847 16.25H18.5901C18.7893 16.25 18.9083 16.2501 18.9973 16.2451C19.0812 16.2404 19.0925 16.2329 19.0794 16.2373C19.1523 16.2127 19.2103 16.155 19.2356 16.0801C19.2373 16.0709 19.2406 16.0465 19.2434 15.9971C19.2485 15.9074 19.2493 15.7872 19.2493 15.5859C19.2493 15.4975 19.2485 15.4476 19.2473 15.4102C19.2465 15.3863 19.2457 15.3765 19.2454 15.374C19.2388 15.3339 19.2236 15.2981 19.2024 15.2686C19.2004 15.266 19.194 15.2582 19.179 15.2422C19.153 15.2146 19.1174 15.1787 19.0549 15.1162L18.6653 14.7266C18.3991 14.4603 18.2494 14.0992 18.2493 13.7227V10C18.2493 6.54821 15.4511 3.74999 11.9993 3.75Z" fill="#316CED"/>
</svg>
