<svg width="24" height="24" viewBox="0 0 24 24" fill="none" xmlns="http://www.w3.org/2000/svg">
<path d="M14.2498 17.75H9.74978V18C9.74978 19.2426 10.7571 20.25 11.9998 20.25C13.2424 20.25 14.2498 19.2426 14.2498 18V17.75ZM5.74978 13.7227C5.74972 14.0996 5.59968 14.4606 5.33376 14.7266L4.94411 15.1162C4.88175 15.1786 4.84673 15.2138 4.82106 15.2412C4.80491 15.2584 4.79834 15.2664 4.79665 15.2686C4.77449 15.2994 4.75902 15.3355 4.7527 15.374C4.75237 15.3769 4.75148 15.3873 4.75075 15.4102C4.74957 15.4478 4.74978 15.4974 4.74978 15.5859C4.74978 15.7872 4.74958 15.9074 4.75466 15.9971C4.75944 16.0812 4.7668 16.0929 4.76247 16.0801C4.7873 16.1537 4.84565 16.2122 4.9197 16.2373C4.90728 16.2332 4.91923 16.2404 5.00173 16.2451C5.09053 16.2502 5.20943 16.25 5.40896 16.25H18.5906C18.79 16.25 18.9088 16.2502 18.9978 16.2451C19.0817 16.2404 19.093 16.2329 19.0799 16.2373C19.1528 16.2127 19.2108 16.155 19.2361 16.0801C19.2378 16.0709 19.2411 16.0465 19.2439 15.9971C19.249 15.9074 19.2498 15.7872 19.2498 15.5859C19.2498 15.4975 19.249 15.4476 19.2478 15.4102C19.247 15.3863 19.2462 15.3765 19.2459 15.374C19.2393 15.3339 19.2241 15.2981 19.2029 15.2686C19.201 15.2661 19.1946 15.2584 19.1795 15.2422C19.1535 15.2145 19.118 15.1787 19.0554 15.1162L18.6658 14.7266C18.3995 14.4603 18.2498 14.0992 18.2498 13.7227V10C18.2498 6.54821 15.4516 3.74999 11.9998 3.75C8.548 3.75001 5.74978 6.54823 5.74978 10V13.7227ZM19.7498 13.6895L20.116 14.0557C20.2174 14.1571 20.3302 14.2663 20.4216 14.3936C20.5801 14.6142 20.683 14.8671 20.7263 15.1309C20.7517 15.2853 20.7498 15.4402 20.7498 15.5859C20.7498 15.9109 20.7597 16.258 20.658 16.5596C20.4837 17.0763 20.0781 17.4832 19.5593 17.6582C19.3338 17.7342 19.0829 17.748 18.8357 17.75H15.7498V18C15.7498 20.0711 14.0708 21.75 11.9998 21.75C9.92871 21.75 8.24978 20.0711 8.24978 18V17.75H5.16481C4.91757 17.748 4.66689 17.7343 4.44118 17.6582C3.9237 17.4837 3.51632 17.0775 3.34157 16.5596C3.23986 16.258 3.24978 15.9109 3.24978 15.5859C3.24978 15.4417 3.24781 15.2856 3.27321 15.1309C3.3168 14.8654 3.42041 14.6129 3.5779 14.3936C3.66919 14.2664 3.78076 14.1585 3.88356 14.0557L4.24978 13.6895V10C4.24978 5.7198 7.71958 2.25001 11.9998 2.25C16.28 2.24999 19.7498 5.71979 19.7498 10V13.6895Z" fill="#1F2324"/>
</svg>
