<svg width="24" height="24" viewBox="0 0 24 24" fill="none" xmlns="http://www.w3.org/2000/svg">
<path d="M5.88308 8.71094C5.79586 9.12691 5.75026 9.55811 5.75026 10V13.7227C5.7502 14.0996 5.60011 14.4606 5.33425 14.7266L4.9446 15.1162C4.88231 15.1785 4.84721 15.2139 4.82155 15.2412C4.80561 15.2582 4.79894 15.2663 4.79714 15.2686C4.77498 15.2994 4.75952 15.3355 4.75319 15.374C4.75286 15.3769 4.75196 15.3873 4.75124 15.4102C4.75006 15.4478 4.75026 15.4974 4.75026 15.5859C4.75026 15.7872 4.75007 15.9074 4.75515 15.9971C4.75992 16.0811 4.76724 16.0928 4.76296 16.0801C4.7878 16.1537 4.84615 16.2122 4.92019 16.2373C4.90777 16.2332 4.91972 16.2404 5.00222 16.2451C5.091 16.2501 5.21006 16.25 5.40944 16.25H13.4221L15.7112 18.5391C15.4498 20.3546 13.8882 21.7499 12.0003 21.75C9.9292 21.75 8.25026 20.0711 8.25026 18V17.75H5.1653C4.91812 17.748 4.66733 17.7342 4.44167 17.6582C3.92421 17.4837 3.51682 17.0775 3.34206 16.5596C3.24035 16.258 3.25026 15.9109 3.25026 15.5859C3.25026 15.4417 3.2483 15.2856 3.2737 15.1309C3.31729 14.8654 3.4209 14.6129 3.57839 14.3936C3.66967 14.2665 3.78127 14.1584 3.88405 14.0557L4.25026 13.6895V10C4.25026 9.12283 4.39771 8.28035 4.66628 7.49414L5.88308 8.71094ZM9.75026 18C9.75026 19.2426 10.7576 20.25 12.0003 20.25C13.2428 20.2499 14.2503 19.2426 14.2503 18V17.75H9.75026V18ZM12.0003 2.25C16.2804 2.25009 19.7503 5.71985 19.7503 10V13.6895L20.1165 14.0557C20.2179 14.1571 20.3308 14.2663 20.4221 14.3936C20.5806 14.6142 20.6835 14.8671 20.7268 15.1309C20.7522 15.2853 20.7503 15.4402 20.7503 15.5859C20.7503 15.9109 20.7602 16.2581 20.6585 16.5596C20.5579 16.8576 20.3784 17.1168 20.1467 17.3184L19.0667 16.2383C19.0869 16.2355 19.0881 16.2347 19.0803 16.2373C19.1532 16.2127 19.2113 16.1549 19.2366 16.0801C19.2383 16.0709 19.2416 16.0464 19.2444 15.9971C19.2495 15.9074 19.2503 15.7872 19.2503 15.5859C19.2503 15.4975 19.2495 15.4476 19.2483 15.4102C19.2475 15.3863 19.2467 15.3765 19.2464 15.374C19.2398 15.3339 19.2246 15.2981 19.2034 15.2686C19.2015 15.2661 19.1951 15.2583 19.18 15.2422C19.154 15.2146 19.1184 15.1787 19.0559 15.1162L18.6663 14.7266C18.4 14.4603 18.2503 14.0992 18.2503 13.7227V10C18.2503 6.54828 15.452 3.75009 12.0003 3.75C10.4853 3.75 9.0958 4.28881 8.01394 5.18555L6.95046 4.12207C8.30689 2.95572 10.071 2.25 12.0003 2.25Z" fill="#1F2324"/>
<path d="M3 3L21 21" stroke="#1F2324" stroke-width="1.5" stroke-linecap="round"/>
</svg>
