<svg width="24" height="24" viewBox="0 0 24 24" fill="none" xmlns="http://www.w3.org/2000/svg">
<path d="M19.3259 6.23982C20 7.24871 20 8.65317 20 11.4621C20 14.271 20 15.6755 19.3259 16.6844C19.034 17.1211 18.659 17.4961 18.2223 17.788C17.3409 18.3769 16.1577 18.4513 14 18.4607V18.4621L12.8944 20.6732C12.5259 21.4103 11.4741 21.4103 11.1056 20.6732L10 18.4621V18.4607C7.8423 18.4513 6.65907 18.3769 5.77772 17.788C5.34096 17.4961 4.96596 17.1211 4.67412 16.6844C4 15.6755 4 14.271 4 11.4621C4 8.65317 4 7.24871 4.67412 6.23982C4.96596 5.80306 5.34096 5.42805 5.77772 5.13622C6.78661 4.4621 8.19108 4.4621 11 4.4621H13C15.8089 4.4621 17.2134 4.4621 18.2223 5.13622C18.659 5.42805 19.034 5.80306 19.3259 6.23982Z" stroke="#F20808" stroke-width="1.5" stroke-linecap="round" stroke-linejoin="round"/>
<path d="M11.5157 7.98346C11.5061 7.7037 11.7302 7.47166 12.0101 7.47165C12.2908 7.47163 12.5153 7.70485 12.5046 7.98531L12.3032 13.2464C12.297 13.4092 12.1632 13.538 12.0003 13.538C11.8369 13.538 11.7029 13.4085 11.6973 13.2453L11.5157 7.98346Z" fill="#F20808" stroke="#F20808"/>
<circle cx="12.0007" cy="15.4335" r="0.839585" fill="#F20808"/>
</svg>
