<svg width="24" height="24" viewBox="0 0 24 24" fill="none" xmlns="http://www.w3.org/2000/svg">
<rect x="3" y="6" width="18" height="15" rx="2" stroke="#1F2324"/>
<path d="M3 10C3 8.11438 3 7.17157 3.58579 6.58579C4.17157 6 5.11438 6 7 6H17C18.8856 6 19.8284 6 20.4142 6.58579C21 7.17157 21 8.11438 21 10V17C21 18.8856 21 19.8284 20.4142 20.4142C19.8284 21 18.8856 21 17 21H7C5.11438 21 4.17157 21 3.58579 20.4142C3 19.8284 3 18.8856 3 17V10Z" fill="#1F2324"/>
<path d="M7 3L7 6" stroke="#1F2324" stroke-linecap="round"/>
<path d="M17 3L17 6" stroke="#1F2324" stroke-linecap="round"/>
<g clip-path="url(#clip0_1336_3737)">
<path d="M15.8728 10.3345L11.5944 16.2282L8.67773 13.3115" stroke="white" stroke-width="1.5" stroke-linecap="round" stroke-linejoin="round"/>
</g>
<defs>
<clipPath id="clip0_1336_3737">
<rect width="14" height="14" fill="white" transform="translate(5 6)"/>
</clipPath>
</defs>
</svg>
