<svg width="20" height="20" viewBox="0 0 20 20" fill="none" xmlns="http://www.w3.org/2000/svg">
<rect x="2.5" y="5" width="15" height="12.5" rx="2" stroke="#316CED"/>
<path d="M2.5 9C2.5 7.11438 2.5 6.17157 3.08579 5.58579C3.67157 5 4.61438 5 6.5 5H13.5C15.3856 5 16.3284 5 16.9142 5.58579C17.5 6.17157 17.5 7.11438 17.5 9V13.5C17.5 15.3856 17.5 16.3284 16.9142 16.9142C16.3284 17.5 15.3856 17.5 13.5 17.5H6.5C4.61438 17.5 3.67157 17.5 3.08579 16.9142C2.5 16.3284 2.5 15.3856 2.5 13.5V9Z" fill="#316CED"/>
<path d="M5.83301 2.5L5.83301 5" stroke="#316CED" stroke-linecap="round"/>
<path d="M14.167 2.5L14.167 5" stroke="#316CED" stroke-linecap="round"/>
<g clip-path="url(#clip0_1406_5834)">
<path d="M13.2283 8.61194L9.66298 13.5233L7.23242 11.0928" stroke="white" stroke-width="1.5" stroke-linecap="round" stroke-linejoin="round"/>
</g>
<defs>
<clipPath id="clip0_1406_5834">
<rect width="11.6667" height="11.6667" fill="white" transform="translate(4.16699 5)"/>
</clipPath>
</defs>
</svg>
