<svg width="20" height="20" viewBox="0 0 20 20" fill="none" xmlns="http://www.w3.org/2000/svg">
<path d="M12.1046 2.58301C13.1406 2.58588 14.0878 3.17141 14.5538 4.09668C14.5555 4.10005 14.5574 4.1039 14.5597 4.1084L15.2442 5.47656C15.3789 5.7459 15.654 5.91598 15.9552 5.91602C17.2225 5.9161 18.2499 6.94459 18.2501 8.21191V12.3809C18.2501 13.5147 18.2611 14.2737 18.0401 14.9053C17.6632 15.9823 16.8155 16.8292 15.7384 17.2061C15.1067 17.427 14.348 17.416 13.214 17.416H6.78622C5.65226 17.416 4.89345 17.427 4.26181 17.2061C3.18479 16.8291 2.33698 15.9823 1.96005 14.9053C1.73914 14.2737 1.75009 13.5147 1.75009 12.3809V8.21191C1.75028 6.94462 2.7777 5.91615 4.04501 5.91602C4.34617 5.91602 4.62127 5.74592 4.75595 5.47656L5.44052 4.1084C5.44279 4.10386 5.44467 4.10007 5.44638 4.09668C5.91235 3.17139 6.8596 2.58591 7.8956 2.58301H12.1046ZM10.0001 7.5C8.15941 7.50018 6.66727 8.99233 6.66708 10.833C6.66708 12.6165 8.06782 14.073 9.82919 14.1621L10.0001 14.167C11.7834 14.1669 13.2399 12.766 13.3292 11.0049L13.3341 10.833C13.3339 8.9923 11.8408 7.50013 10.0001 7.5ZM10.0001 9C11.0124 9.00013 11.8339 9.82072 11.8341 10.833C11.8341 11.8455 11.0125 12.6669 10.0001 12.667C8.98772 12.6668 8.16708 11.8454 8.16708 10.833C8.16727 9.82076 8.98783 9.00018 10.0001 9Z" fill="white"/>
</svg>
