<svg width="20" height="20" viewBox="0 0 20 20" fill="none" xmlns="http://www.w3.org/2000/svg">
<path d="M9.83992 2.85944C9.88277 2.85637 9.9257 2.85445 9.96865 2.85367C10.6765 2.8426 10.9197 3.41551 11.253 3.92973L12.487 5.81719C12.5748 5.95192 12.6659 6.08688 12.7543 6.22678C13.0738 6.73248 13.4404 7.39324 14.1617 7.10475C14.4253 6.99934 14.6682 6.71953 14.873 6.51492L15.9877 5.40244C16.2267 5.16477 16.4496 4.91953 16.7283 4.72018C17.3269 4.29069 18.2361 4.81652 18.1939 5.53295C18.1674 5.9833 17.9918 6.57611 17.8811 7.02545L17.4704 8.73486L16.8961 11.1462C16.7612 11.7315 16.6236 12.3341 16.4613 12.9128C16.4177 13.0666 16.3253 13.1848 16.2179 13.2979C15.8849 13.6484 15.4384 13.6002 15.0001 13.5995L13.9392 13.5974L10.1638 13.598L6.37453 13.5988L5.15707 13.5997C4.68611 13.5998 4.18588 13.6714 3.81578 13.3269C3.46877 13.0038 3.42427 12.4879 3.31888 12.0368L2.94213 10.4544L2.22779 7.47307C2.09367 6.91625 1.95238 6.35713 1.83228 5.79668C1.77072 5.50936 1.80864 5.22838 1.98177 4.98231C2.13449 4.76809 2.3666 4.62391 2.62631 4.58195C3.18388 4.49432 3.48652 4.88303 3.8373 5.23164L4.94322 6.33645C5.37533 6.76822 6.06861 7.61832 6.75615 6.91848C7.01351 6.65651 7.30314 6.13893 7.50943 5.82047L8.60447 4.15221C8.92269 3.66643 9.22244 2.96666 9.83992 2.85944Z" fill="#FFC240"/>
<path d="M4.26461 15.958L4.03226 14.9703C3.95843 14.6565 4.19656 14.3558 4.51897 14.3558H15.4922C15.8152 14.3558 16.0534 14.6575 15.9786 14.9716L15.7435 15.9593C15.6898 16.1845 15.4886 16.3435 15.2571 16.3435H4.75132C4.51929 16.3435 4.31775 16.1839 4.26461 15.958Z" fill="#FFC240"/>
</svg>
