<svg width="24" height="24" viewBox="0 0 24 24" fill="none" xmlns="http://www.w3.org/2000/svg">
<path d="M5 19L8.5 15.5" stroke="#1F2324" stroke-width="1.5" stroke-linecap="round"/>
<path d="M14.6358 3.90949C15.2888 3.47412 15.6153 3.25643 15.9711 3.29166C16.3269 3.32689 16.6044 3.60439 17.1594 4.15938L19.8406 6.84062C20.3956 7.39561 20.6731 7.67311 20.7083 8.02888C20.7436 8.38465 20.5259 8.71118 20.0905 9.36424L18.1885 12.2172C17.5952 13.1073 17.2985 13.5523 17.0642 14.0314C16.8299 14.5104 16.6607 15.0179 16.3224 16.0327L15.4331 18.7008C15.4228 18.7316 15.4177 18.747 15.4134 18.7588C15.1938 19.3662 14.4647 19.6093 13.9246 19.2551C13.9141 19.2482 13.9007 19.239 13.874 19.2205C13.7326 19.1226 13.662 19.0737 13.592 19.0247C10.238 16.6784 7.32156 13.762 4.97526 10.408C4.92634 10.338 4.8774 10.2674 4.77953 10.126C4.76104 10.0993 4.75179 10.0859 4.74489 10.0754C4.39074 9.53532 4.63379 8.80619 5.24116 8.58661C5.25298 8.58234 5.26839 8.5772 5.29921 8.56693L7.96727 7.67758C8.98213 7.33929 9.48956 7.17015 9.96862 6.93584C10.4477 6.70154 10.8927 6.40484 11.7828 5.81145L14.6358 3.90949Z" stroke="#1F2324" stroke-width="1.5"/>
<path d="M9.5 15.5L5 9.5L5.5 8.5L11 6.5L16 3.5L20.5 8.5L18.5 11L14.5 19L9.5 15.5Z" fill="#1F2324"/>
</svg>
