<svg width="24" height="24" viewBox="0 0 24 24" fill="none" xmlns="http://www.w3.org/2000/svg">
<path d="M5 19L8.5 15.5" stroke="#1F2324" stroke-width="1.5" stroke-linecap="round"/>
<path d="M6.22095 9.04927L5.53638 9.27876C5.52053 9.28405 5.51054 9.28799 5.50318 9.29048C5.49937 9.29176 5.49718 9.29214 5.49634 9.29243C5.34461 9.34737 5.28386 9.52952 5.37232 9.6645C5.37291 9.6654 5.37427 9.6675 5.37623 9.67036C5.38064 9.67677 5.38731 9.68605 5.39674 9.69966C5.49472 9.8412 5.54252 9.91095 5.59009 9.97896C7.88596 13.2607 10.7399 16.1148 14.0217 18.4106C14.0897 18.4581 14.1594 18.5059 14.301 18.604C14.3147 18.6134 14.3239 18.6201 14.3303 18.6245C14.3335 18.6266 14.3355 18.6279 14.3362 18.6284C14.471 18.7165 14.6532 18.6557 14.7083 18.5043C14.7085 18.5035 14.709 18.5011 14.7102 18.4975C14.7127 18.4902 14.7167 18.48 14.7219 18.4643L14.9504 17.7788L16.136 18.9643C16.1304 18.9816 16.1249 18.999 16.1194 19.0141C15.735 20.0766 14.4589 20.5017 13.5139 19.8823C13.4935 19.8689 13.47 19.8529 13.4475 19.8374C13.307 19.7401 13.234 19.6902 13.1624 19.6401C9.73659 17.2436 6.75713 14.2641 4.3606 10.8383C4.31047 10.7667 4.26058 10.6936 4.16334 10.5532C4.14783 10.5308 4.13179 10.5072 4.11842 10.4868C3.49869 9.54165 3.92374 8.26558 4.98658 7.8813C5.0018 7.8758 5.01902 7.87034 5.03638 7.8647L6.22095 9.04927ZM16.0452 2.54536C16.4173 2.58224 16.7083 2.74922 16.9524 2.93989C17.1801 3.11788 17.4257 3.36537 17.6897 3.62935L20.3713 6.31099C20.6353 6.57497 20.8829 6.82055 21.0608 7.04829C21.2514 7.29234 21.4185 7.58353 21.4553 7.95552C21.492 8.32745 21.3854 8.64567 21.2463 8.92232C21.1165 9.18057 20.9222 9.47006 20.7151 9.78071L18.8128 12.6333C18.209 13.5389 17.9459 13.9379 17.7385 14.3618C17.6798 14.482 17.6252 14.6043 17.5696 14.7417L16.4387 13.6108C16.6929 13.1107 17.0156 12.6249 17.5647 11.8012L19.467 8.94868C19.695 8.60677 19.8275 8.40552 19.9065 8.24849C19.942 8.17791 19.9544 8.13729 19.9592 8.11763C19.9611 8.1099 19.962 8.10531 19.9622 8.10396V8.102C19.9618 8.10083 19.9606 8.09643 19.9573 8.08931C19.9488 8.07113 19.9271 8.03472 19.8782 7.97212C19.77 7.83363 19.6013 7.66208 19.3108 7.37153L16.6292 4.68989C16.3386 4.39938 16.1671 4.23076 16.0286 4.12251C15.9661 4.07368 15.9297 4.05201 15.9114 4.04341C15.9044 4.04014 15.9001 4.03894 15.8987 4.03853H15.8967C15.8962 4.03857 15.892 4.03927 15.8831 4.04146C15.8635 4.04624 15.8233 4.05849 15.7522 4.09419C15.5951 4.17317 15.3941 4.3056 15.052 4.53364L12.1995 6.43599C11.3756 6.98522 10.8891 7.3068 10.3889 7.56099L9.25709 6.42915C9.3948 6.3734 9.51846 6.32107 9.63892 6.26216C10.0628 6.05483 10.4617 5.79174 11.3674 5.18794L14.22 3.2856C14.5307 3.07843 14.8201 2.88422 15.0784 2.75435C15.3551 2.61522 15.673 2.50855 16.0452 2.54536Z" fill="#1F2324"/>
<path d="M3 3L21 21" stroke="#1F2324" stroke-width="1.5" stroke-linecap="round"/>
</svg>
