<svg width="24" height="24" viewBox="0 0 24 24" fill="none" xmlns="http://www.w3.org/2000/svg">
<path d="M12.6963 10.3096C12.9892 10.0167 13.4649 10.0167 13.7578 10.3096L18.5303 15.083C18.8232 15.3759 18.8232 15.8507 18.5303 16.1436L13.7578 20.917C13.4649 21.2099 12.9892 21.2099 12.6963 20.917C12.4034 20.6241 12.4034 20.1484 12.6963 19.8555L16.1895 16.3633H10C7.37665 16.3633 5.25 14.2366 5.25 11.6133V3.61328C5.25 3.19907 5.58579 2.86328 6 2.86328C6.41421 2.86328 6.75 3.19907 6.75 3.61328V11.6133C6.75 13.4082 8.20507 14.8633 10 14.8633H16.1895L12.6963 11.3711C12.4034 11.0782 12.4034 10.6025 12.6963 10.3096Z" fill="#1F2324"/>
</svg>
