<svg width="32" height="32" viewBox="0 0 32 32" fill="none" xmlns="http://www.w3.org/2000/svg">
<rect width="32" height="32" rx="16" fill="#2663FD"/>
<path d="M22.7366 11.7352L20.1127 22.2313C19.7367 23.7273 18.4566 24.3993 17.3366 24.3993C17.3286 24.3993 17.3207 24.3993 17.3207 24.3993C16.1927 24.3913 14.9047 23.7033 14.5527 22.1913L13.8647 19.2713L18.1687 14.9672C18.4807 14.6552 18.4807 14.1433 18.1687 13.8313C17.8567 13.5193 17.3446 13.5193 17.0326 13.8313L12.7286 18.1352L9.80866 17.4473C8.29666 17.0953 7.60866 15.8073 7.60066 14.6873C7.59266 13.5593 8.26467 12.2633 9.76867 11.8873L20.2647 9.26333C20.9607 9.08733 21.6887 9.28726 22.2007 9.79926C22.7127 10.3113 22.9126 11.0392 22.7366 11.7352Z" fill="white"/>
</svg>
