<svg width="16" height="16" viewBox="0 0 16 16" fill="none" xmlns="http://www.w3.org/2000/svg">
<path d="M15.1361 2.53452L12.5121 13.0306C12.1361 14.5266 10.8561 15.1986 9.73606 15.1986C9.72806 15.1986 9.72009 15.1986 9.72009 15.1986C8.59209 15.1906 7.30407 14.5026 6.95207 12.9906L6.26408 10.0707L10.5681 5.76655C10.8801 5.45455 10.8801 4.94261 10.5681 4.63061C10.2561 4.31861 9.74405 4.31861 9.43205 4.63061L5.12805 8.93452L2.20808 8.24663C0.696078 7.89463 0.00807056 6.60667 7.05555e-05 5.48667C-0.00792945 4.35867 0.664088 3.06267 2.16809 2.68667L12.6641 0.0626422C13.3601 -0.113358 14.0881 0.0865798 14.6001 0.59858C15.1121 1.11058 15.3121 1.83852 15.1361 2.53452Z" fill="white"/>
</svg>
