<svg width="20" height="20" viewBox="0 0 20 20" fill="none" xmlns="http://www.w3.org/2000/svg">
<path d="M4.16634 15.8334L7.08301 12.9167" stroke="#9AA5A8" stroke-width="1.5" stroke-linecap="round"/>
<path d="M11.9688 3.40949C12.6218 2.97412 12.9484 2.75643 13.3041 2.79166C13.6599 2.82689 13.9374 3.10439 14.4924 3.65938L16.3403 5.50729C16.8953 6.06228 17.1728 6.33978 17.208 6.69555C17.2432 7.05132 17.0256 7.37785 16.5902 8.0309L15.3549 9.88384C14.7615 10.7739 14.4648 11.219 14.2305 11.698C13.9962 12.1771 13.8271 12.6845 13.4888 13.6994L12.8606 15.584C12.6801 16.1253 12.0305 16.3419 11.5614 16.0171C8.60007 13.9669 6.03274 11.3996 3.98261 8.43832C3.65781 7.96916 3.87435 7.31955 4.41568 7.13911L6.30027 6.51091C7.31514 6.17262 7.82257 6.00348 8.30163 5.76918C8.78069 5.53488 9.22574 5.23818 10.1158 4.64478L11.9688 3.40949Z" stroke="#9AA5A8" stroke-width="1.5"/>
<path d="M7.91699 12.9167L4.16699 7.91669L4.58366 7.08335L9.16699 5.41669L13.3337 2.91669L17.0837 7.08335L15.417 9.16669L12.0837 15.8334L7.91699 12.9167Z" fill="#9AA5A8"/>
</svg>
