<svg width="24" height="24" viewBox="0 0 24 24" fill="none" xmlns="http://www.w3.org/2000/svg">
<circle cx="9.4165" cy="8" r="2.25" stroke="#1F2324" stroke-width="1.5" stroke-linecap="round"/>
<path d="M13.401 8.625C13.633 8.22305 14.0153 7.92976 14.4636 7.80963C14.9119 7.6895 15.3896 7.75239 15.7915 7.98446C16.1935 8.21652 16.4867 8.59875 16.6069 9.04707C16.727 9.49538 16.6641 9.97305 16.432 10.375C16.2 10.7769 15.8178 11.0702 15.3694 11.1904C14.9211 11.3105 14.4435 11.2476 14.0415 11.0155C13.6396 10.7835 13.3463 10.4012 13.2261 9.95293C13.106 9.50462 13.1689 9.02695 13.401 8.625L13.401 8.625Z" stroke="#1F2324" stroke-width="1.5"/>
<path d="M9.41602 12.5L9.41602 11.75H9.41602V12.5ZM14.8213 17.5068L15.5619 17.3887L15.5619 17.3887L14.8213 17.5068ZM13.916 18.5V19.25H13.9161L13.916 18.5ZM4.01074 17.5068L3.2701 17.3887L3.2701 17.3887L4.01074 17.5068ZM9.41602 12.5L9.41601 13.25C11.2178 13.25 12.2852 13.9632 12.9546 14.8244C13.6512 15.7207 13.9539 16.8301 14.0807 17.625L14.8213 17.5068L15.5619 17.3887C15.4168 16.4787 15.0568 15.0848 14.1389 13.9038C13.1936 12.6878 11.6943 11.75 9.41602 11.75L9.41602 12.5ZM14.8213 17.5068L14.0806 17.625C14.0841 17.6463 14.0815 17.6584 14.0793 17.6653C14.0768 17.6733 14.0714 17.684 14.0602 17.6961C14.0369 17.721 13.9888 17.75 13.916 17.75L13.916 18.5L13.9161 19.25C14.8593 19.2499 15.7322 18.4565 15.5619 17.3887L14.8213 17.5068ZM13.916 18.5V17.75H4.91602V18.5V19.25H13.916V18.5ZM4.91602 18.5V17.75C4.84322 17.75 4.79515 17.7211 4.77188 17.6961C4.76059 17.684 4.75527 17.6733 4.75273 17.6653C4.75054 17.6584 4.74798 17.6463 4.75138 17.625L4.01074 17.5068L3.2701 17.3887C3.09982 18.4564 3.97263 19.25 4.91602 19.25V18.5ZM4.01074 17.5068L4.75138 17.625C4.87816 16.8301 5.18078 15.7206 5.87746 14.8244C6.54684 13.9632 7.61417 13.25 9.41602 13.25V12.5V11.75C7.13775 11.75 5.63841 12.6878 4.69316 13.9038C3.77521 15.0847 3.41525 16.4787 3.2701 17.3887L4.01074 17.5068Z" fill="#1F2324"/>
<path d="M14.9175 13.5L14.9176 12.75H14.9175V13.5ZM18.7134 17.416L19.4409 17.2338L19.4409 17.2338L18.7134 17.416ZM17.812 18.5V19.25H17.812L17.812 18.5ZM14.8228 17.5068L15.5634 17.3887L15.5634 17.3887L14.8228 17.5068ZM13.2173 13.9814L12.8154 13.3482L12.0428 13.8386L12.6753 14.4998L13.2173 13.9814ZM14.9175 13.5L14.9174 14.25C15.8468 14.2501 16.5008 14.6983 16.9954 15.3571C17.5058 16.0369 17.8123 16.9052 17.9858 17.5982L18.7134 17.416L19.4409 17.2338C19.2462 16.4565 18.8785 15.367 18.1949 14.4564C17.4954 13.5248 16.4356 12.7502 14.9176 12.75L14.9175 13.5ZM18.7134 17.416L17.9858 17.5982C17.9922 17.6238 17.9903 17.6393 17.988 17.6487C17.9854 17.6594 17.9794 17.6728 17.967 17.6875C17.9416 17.7174 17.89 17.75 17.812 17.75L17.812 18.5L17.812 19.25C18.8227 19.25 19.7194 18.3459 19.4409 17.2338L18.7134 17.416ZM17.812 18.5V17.75H13.9165V18.5V19.25H17.812V18.5ZM13.9165 18.5V19.25C14.8587 19.25 15.7338 18.4575 15.5634 17.3887L14.8228 17.5068L14.0821 17.625C14.0855 17.6461 14.0829 17.658 14.0808 17.6648C14.0783 17.6728 14.0729 17.6835 14.0615 17.6957C14.0379 17.721 13.9894 17.75 13.9165 17.75V18.5ZM14.8228 17.5068L15.5634 17.3887C15.4008 16.369 14.9646 14.7233 13.7593 13.4631L13.2173 13.9814L12.6753 14.4998C13.5708 15.4362 13.9384 16.724 14.0821 17.625L14.8228 17.5068ZM13.2173 13.9814L13.6192 14.6147C13.9703 14.3918 14.3924 14.25 14.9175 14.25V13.5V12.75C14.1004 12.75 13.4005 12.9768 12.8154 13.3482L13.2173 13.9814Z" fill="#1F2324"/>
<rect x="17.25" y="5.25" width="4.5" height="0.5" rx="0.25" stroke="#1F2324" stroke-width="0.5" stroke-linecap="round"/>
<rect x="19.75" y="3.25" width="4.5" height="0.5" rx="0.25" transform="rotate(90 19.75 3.25)" stroke="#1F2324" stroke-width="0.5" stroke-linecap="round"/>
</svg>
