<svg width="24" height="24" viewBox="0 0 24 24" fill="none" xmlns="http://www.w3.org/2000/svg">
<path d="M17.4697 5.46973C17.7626 5.17684 18.2374 5.17685 18.5303 5.46973C18.8232 5.76262 18.8232 6.23738 18.5303 6.53027L13.0605 12L18.5303 17.4697C18.8231 17.7626 18.8232 18.2374 18.5303 18.5303C18.2374 18.8232 17.7626 18.8231 17.4697 18.5303L12 13.0605L6.53027 18.5303C6.23738 18.8232 5.76262 18.8232 5.46973 18.5303C5.17685 18.2374 5.17684 17.7626 5.46973 17.4697L10.9395 12L5.46973 6.53027C5.17683 6.23738 5.17683 5.76262 5.46973 5.46973C5.76262 5.17683 6.23738 5.17683 6.53027 5.46973L12 10.9395L17.4697 5.46973Z" fill="white"/>
</svg>
