<svg width="32" height="32" viewBox="0 0 32 32" fill="none" xmlns="http://www.w3.org/2000/svg">
<circle cx="22.3336" cy="13.8751" r="3.02749" stroke="#1D1F20" stroke-width="1.5" stroke-linecap="round"/>
<path d="M15.5129 22.9601C16.101 20.602 18.5408 19.4968 20.971 19.4968H23.6691C26.0994 19.4968 28.5392 20.602 29.1273 22.9601C29.2217 23.3387 29.2978 23.7414 29.3459 24.1646C29.4083 24.7133 28.9552 25.1631 28.4029 25.1631H16.2373C15.685 25.1631 15.2319 24.7133 15.2943 24.1646C15.3424 23.7414 15.4185 23.3387 15.5129 22.9601Z" stroke="#1D1F20" stroke-width="1.5" stroke-linecap="round"/>
<circle cx="12.9998" cy="11.1969" r="4.10677" stroke="#1F2324" stroke-width="1.5" stroke-linecap="round"/>
<path d="M4.55945 21.2751C5.34799 18.9763 7.73667 17.8748 10.1669 17.8748H15.8331C18.2633 17.8748 20.652 18.9763 21.4406 21.2751C21.7302 22.1195 21.9672 23.0925 22.062 24.1603C22.1108 24.7105 21.6587 25.1599 21.1064 25.1599H4.89356C4.34127 25.1599 3.88922 24.7105 3.93804 24.1603C4.0328 23.0925 4.26977 22.1195 4.55945 21.2751Z" fill="white" stroke="#1F2324" stroke-width="1.5" stroke-linecap="round"/>
</svg>
