<svg width="24" height="24" viewBox="0 0 24 24" fill="none" xmlns="http://www.w3.org/2000/svg">
<path d="M12 0.75C12.4212 0.750002 12.7627 1.09147 12.7627 1.5127V2.6875C17.3145 3.05525 20.9448 6.68548 21.3125 11.2373H22.4873C22.9085 11.2373 23.25 11.5788 23.25 12C23.25 12.4212 22.9085 12.7627 22.4873 12.7627H21.3125C20.9447 17.3145 17.3145 20.9447 12.7627 21.3125V22.4873C12.7627 22.9085 12.4212 23.25 12 23.25C11.5788 23.25 11.2373 22.9085 11.2373 22.4873V21.3125C6.68548 20.9447 3.05525 17.3145 2.6875 12.7627H1.5127C1.09147 12.7627 0.750002 12.4212 0.75 12C0.75 11.5788 1.09147 11.2373 1.5127 11.2373H2.6875C3.05525 6.68548 6.68548 3.05525 11.2373 2.6875V1.5127C11.2373 1.09147 11.5788 0.75 12 0.75ZM12 4.18262C7.68235 4.18262 4.18262 7.68235 4.18262 12C4.18262 16.3176 7.68235 19.8174 12 19.8174C16.3176 19.8174 19.8174 16.3176 19.8174 12C19.8174 7.68235 16.3176 4.18262 12 4.18262ZM12 7.25C14.6234 7.25 16.75 9.37665 16.75 12C16.75 14.6234 14.6234 16.75 12 16.75C9.37665 16.75 7.25 14.6234 7.25 12C7.25 9.37665 9.37665 7.25 12 7.25ZM12 8.84961C10.2603 8.84961 8.84961 10.2603 8.84961 12C8.84961 13.7397 10.2603 15.1504 12 15.1504C13.7397 15.1504 15.1504 13.7397 15.1504 12C15.1504 10.2603 13.7397 8.84961 12 8.84961Z" fill="#1F2324"/>
</svg>
