<svg width="18" height="18" viewBox="0 0 18 18" fill="none" xmlns="http://www.w3.org/2000/svg">
<path d="M3.75 7.44214C3.75 11.081 6.93336 14.0902 8.34239 15.2439C8.54405 15.409 8.64608 15.4926 8.79653 15.5349C8.91368 15.5679 9.0861 15.5679 9.20325 15.5349C9.35398 15.4925 9.4553 15.4098 9.65771 15.244C11.0668 14.0903 14.2499 11.0813 14.2499 7.44247C14.2499 6.06539 13.6968 4.74454 12.7123 3.77079C11.7277 2.79705 10.3924 2.25 9.00006 2.25C7.60767 2.25 6.27226 2.79713 5.28769 3.77087C4.30312 4.74462 3.75 6.06505 3.75 7.44214Z" stroke="#B5BDBF" stroke-width="1.2" stroke-linecap="round" stroke-linejoin="round"/>
<path d="M7.5 6.75C7.5 7.57843 8.17157 8.25 9 8.25C9.82843 8.25 10.5 7.57843 10.5 6.75C10.5 5.92157 9.82843 5.25 9 5.25C8.17157 5.25 7.5 5.92157 7.5 6.75Z" stroke="#B5BDBF" stroke-width="1.2" stroke-linecap="round" stroke-linejoin="round"/>
</svg>
