<svg width="20" height="20" viewBox="0 0 20 20" fill="none" xmlns="http://www.w3.org/2000/svg">
<path d="M10 4.16667C10 2.08333 11.4286 0 13.3333 0C13.3333 2.08333 11.9048 4.16667 10 4.16667Z" fill="black"/>
<path d="M10.5212 5.84001C9.9848 5.84001 9.5698 5.67646 9.10595 5.49368C8.51866 5.26225 7.85319 5 6.76422 5C4.81527 5 1.66699 6.49945 1.66699 10.4995C1.66699 15.1516 4.90106 20 6.9844 20C7.68185 20 8.31022 19.7371 8.91074 19.4859C9.46022 19.2559 9.98658 19.0357 10.5212 19.0357C11.0557 19.0357 11.5821 19.2559 12.1316 19.4859C12.7321 19.7371 13.3604 20 14.0579 20C15.5086 20 17.2475 17.6492 18.3337 14.6508C16.6454 13.9702 15.5607 12.368 15.5607 10.5C15.5607 8.871 16.4624 7.78982 17.8128 7C16.7712 5.5 15.2226 5 14.1094 5C13.0204 5 12.3549 5.26225 11.7676 5.49368C11.3039 5.67646 11.0575 5.84001 10.5212 5.84001Z" fill="black"/>
</svg>
