<svg width="20" height="20" viewBox="0 0 20 20" fill="none" xmlns="http://www.w3.org/2000/svg">
<path fill-rule="evenodd" clip-rule="evenodd" d="M19.2 10.2171C19.2 9.53752 19.139 8.88411 19.0258 8.25684H10V11.9638H15.1576C14.9354 13.1618 14.2602 14.1767 13.2453 14.8563V17.2608H16.3424C18.1545 15.5924 19.2 13.1356 19.2 10.2171Z" fill="#4285F4"/>
<path fill-rule="evenodd" clip-rule="evenodd" d="M9.99956 19.5838C12.5871 19.5838 14.7564 18.7256 16.342 17.262L13.2448 14.8575C12.3867 15.4325 11.289 15.7722 9.99956 15.7722C7.50354 15.7722 5.39085 14.0864 4.63725 11.8213H1.43555V14.3042C3.01244 17.4363 6.25335 19.5838 9.99956 19.5838Z" fill="#34A853"/>
<path fill-rule="evenodd" clip-rule="evenodd" d="M4.63801 11.8213C4.44635 11.2463 4.33745 10.6321 4.33745 10.0004C4.33745 9.36881 4.44635 8.75461 4.63801 8.17961V5.69666H1.43631C0.787257 6.99041 0.416992 8.45404 0.416992 10.0004C0.416992 11.5468 0.787257 13.0105 1.43631 14.3042L4.63801 11.8213Z" fill="#FBBC05"/>
<path fill-rule="evenodd" clip-rule="evenodd" d="M9.99956 4.22824C11.4066 4.22824 12.6698 4.71176 13.663 5.66138L16.4117 2.91271C14.752 1.36631 12.5827 0.416687 9.99956 0.416687C6.25335 0.416687 3.01244 2.56422 1.43555 5.69623L4.63725 8.17919C5.39085 5.91404 7.50354 4.22824 9.99956 4.22824Z" fill="#EA4335"/>
</svg>
