<svg width="20" height="20" viewBox="0 0 20 20" fill="none" xmlns="http://www.w3.org/2000/svg">
<g clip-path="url(#clip0_1361_2739)">
<path d="M0 10C0 4.47717 4.47717 0 10 0C15.5228 0 20 4.47717 20 10C20 15.5228 15.5228 20 10 20C4.47717 20 0 15.5228 0 10Z" fill="#FFE812"/>
<path d="M9.99967 4.58337C6.31776 4.58337 3.33301 6.93679 3.33301 9.83979C3.33301 11.7166 4.58084 13.3635 6.45788 14.2935C6.35576 14.6456 5.80167 16.5591 5.77959 16.7094C5.77959 16.7094 5.76634 16.8223 5.83947 16.8654C5.91263 16.9085 5.99863 16.875 5.99863 16.875C6.20838 16.8457 8.43088 15.2846 8.81559 15.0135C9.19988 15.0679 9.59559 15.0962 9.99967 15.0962C13.6816 15.0962 16.6663 12.7429 16.6663 9.83979C16.6663 6.93679 13.6816 4.58337 9.99967 4.58337Z" fill="#381F1F"/>
<path d="M7.29883 8.26929C7.50695 8.26929 7.67676 8.43862 7.67676 8.64624C7.67656 8.8537 7.50679 9.02222 7.29883 9.02222H6.69922V11.3074C6.69922 11.5099 6.52651 11.6745 6.31445 11.6746C6.10233 11.6746 5.92969 11.51 5.92969 11.3074V9.02222H5.3291C5.12131 9.02197 4.95235 8.85354 4.95215 8.64624C4.95215 8.43877 5.12123 8.26954 5.3291 8.26929H7.29883ZM8.58984 8.26929C8.84088 8.27505 9.03753 8.46473 9.10254 8.64917L10.0225 11.0701C10.1393 11.4333 10.0376 11.5682 9.93164 11.6169C9.85489 11.6519 9.7709 11.6697 9.68652 11.6697C9.52632 11.6696 9.40417 11.6044 9.36719 11.4998L9.17676 11.0017L8.00391 11.0007L7.8125 11.4998C7.77563 11.6043 7.65351 11.6697 7.49316 11.6697C7.40895 11.6698 7.32561 11.6519 7.24902 11.6169C7.14298 11.568 7.04043 11.4328 7.15723 11.0701L8.07715 8.64917C8.14198 8.465 8.3393 8.275 8.58984 8.26929ZM12.7783 8.26929C12.9903 8.26945 13.1631 8.44203 13.1631 8.65405V9.48022L14.2354 8.40796C14.2905 8.35275 14.3669 8.32202 14.4492 8.32202C14.5452 8.32207 14.6417 8.36319 14.7139 8.4353C14.7812 8.50264 14.8216 8.58953 14.8271 8.67944C14.8327 8.7701 14.8024 8.85356 14.7422 8.91382L13.8652 9.78979L14.8125 11.0437C14.8431 11.084 14.8653 11.1305 14.8779 11.1794C14.8906 11.2282 14.8929 11.279 14.8857 11.3289C14.8789 11.3788 14.8624 11.427 14.8369 11.4705C14.8113 11.514 14.7767 11.5525 14.7363 11.5828C14.67 11.6331 14.5891 11.66 14.5059 11.6599C14.4464 11.6602 14.3872 11.6473 14.334 11.6208C14.2806 11.5943 14.2339 11.5552 14.1982 11.5076L13.2959 10.3123L13.1631 10.446V11.2849C13.163 11.3869 13.1218 11.4843 13.0498 11.5564C12.9777 11.6285 12.8802 11.6694 12.7783 11.6697C12.5662 11.6697 12.3936 11.497 12.3936 11.2849V8.65405C12.3936 8.44193 12.5662 8.26929 12.7783 8.26929ZM10.665 8.26929C10.8815 8.26929 11.0576 8.44193 11.0576 8.65405V10.9138H11.875C12.0783 10.9138 12.2441 11.072 12.2441 11.2664C12.244 11.4606 12.0782 11.6189 11.875 11.6189H10.6416C10.4384 11.6189 10.2726 11.4606 10.2725 11.2664V8.65405C10.2725 8.442 10.4486 8.26941 10.665 8.26929ZM8.20605 10.3201H8.97363L8.58984 9.22827L8.20605 10.3201Z" fill="#FFE812"/>
</g>
<defs>
<clipPath id="clip0_1361_2739">
<rect width="20" height="20" fill="white"/>
</clipPath>
</defs>
</svg>
